<svg width="1440" height="810" fill="none" xmlns="http://www.w3.org/2000/svg"><path d="M911.221 121.8 969 84l57.78 37.8 39.02-22.68 25.37 44.28 72.2-7.56-18.54 55.08 73.17 21.6-48.78 55.08 31.22 33.48-55.61 25.92L969 324.713 793.171 327l-55.61-25.92 31.22-33.48L720 212.52l73.171-21.6-18.536-55.08 72.196 7.56 25.366-44.28 39.024 22.68Z" fill="#E7D3A1"/><path d="m869.112 246.232 8.496-35.888h4.746l1.084 5.976-9.053 36.68h-5.098l-.175-6.768Zm-4.366-35.888 7.032 35.888-.586 6.768h-5.684l-9.463-42.656h8.701Zm26.163 35.742 6.943-35.742h8.701L897.12 253h-5.684l-.527-6.914Zm-5.889-35.742 8.555 36.035-.235 6.621h-5.097l-9.112-36.709 1.172-5.947h4.717Zm61.956 17.373v6.855H924.71v-6.855h22.266Zm-19.658-17.373V253h-8.789v-42.656h8.789Zm25.927 0V253h-8.759v-42.656h8.759Zm32.718 7.295L974.361 253h-9.345l15.849-42.656h5.947l-.849 7.295ZM995.602 253l-11.631-35.361-.938-7.295h6.006L1004.98 253h-9.378Zm-.528-15.879v6.885h-22.529v-6.885h22.529Zm36.496-26.777V253h-8.76v-42.656h8.76Zm13.13 0v6.885h-34.81v-6.885h34.81Zm26.06 29.619h-7.47c.02-1.758.16-3.272.41-4.541.28-1.289.74-2.451 1.38-3.486.66-1.036 1.54-2.061 2.64-3.077.91-.82 1.72-1.601 2.4-2.343.68-.743 1.22-1.504 1.61-2.286.39-.8.59-1.689.59-2.666 0-1.132-.18-2.07-.53-2.812-.33-.762-.84-1.338-1.52-1.729-.67-.39-1.51-.585-2.52-.585-.84 0-1.63.185-2.35.556-.72.352-1.32.899-1.79 1.641-.44.742-.68 1.719-.7 2.929h-8.49c.05-2.675.67-4.882 1.84-6.621 1.19-1.757 2.78-3.056 4.78-3.896 1.99-.859 4.23-1.289 6.71-1.289 2.73 0 5.07.449 7.03 1.347 1.95.879 3.44 2.178 4.48 3.897 1.03 1.699 1.55 3.769 1.55 6.211 0 1.699-.33 3.213-.99 4.541a15.852 15.852 0 0 1-2.61 3.662 90.035 90.035 0 0 1-3.55 3.516c-1.11.996-1.87 2.041-2.28 3.134-.39 1.094-.6 2.393-.62 3.897Zm-8.35 9.053c0-1.25.43-2.286 1.29-3.106.86-.84 2.01-1.26 3.46-1.26 1.43 0 2.57.42 3.43 1.26.88.82 1.32 1.856 1.32 3.106 0 1.211-.44 2.236-1.32 3.076-.86.84-2 1.26-3.43 1.26-1.45 0-2.6-.42-3.46-1.26-.86-.84-1.29-1.865-1.29-3.076ZM350.32 392.9H367v3.3h-16.68v-3.3Zm0-8.04H367v3.24h-16.68v-3.24Zm-6.48-5.1v21.6h29.94v-21.6h-29.94Zm4.5 20.04c-2.1 5.22-6.36 10.86-13.32 14.94 1.44.96 3.6 3.42 4.5 5.04 7.98-5.16 12.72-11.76 15.78-18.84l-6.96-1.14Zm1.74 4.92L346 410.6h25.38v-5.88h-21.3Zm18.84 0v1.14c-.42 14.82-.96 20.1-1.92 21.36-.54.66-1.02.84-1.8.84-.96 0-2.76-.06-4.74-.3.78 1.56 1.5 3.96 1.56 5.58 2.7.06 5.1.06 6.66-.18 1.68-.24 3-.78 4.14-2.28 1.56-2.04 2.22-7.8 2.76-23.52.06-.84.06-2.64.06-2.64h-6.72Zm-25.38 6.9v11.22c0 5.58 1.32 7.32 7.44 7.32h7.38c4.32 0 6-1.44 6.78-6.96-1.74-.36-4.26-1.32-5.46-2.28-.18 3.12-.48 3.6-1.98 3.6h-5.88c-1.98 0-2.28-.24-2.28-1.8v-11.1h-6Zm15 .72c-2.76 1.86-7.62 3.84-12 5.1.72 1.2 1.62 3.18 1.92 4.32 4.92-1.2 10.62-3 14.94-5.28l-4.86-4.14Zm-31.68-29.28v6.48h6.96v21.18h-6.96v6.6h13.02v-34.26h-13.02Zm-4.02 0v39.24h6.24v-39.24h-6.24Zm82.68 14.52v27.3c0 1.02-.48 1.38-1.8 1.38-1.38 0-6.3 0-10.56-.18 1.14 1.98 2.52 5.22 2.94 7.32 5.76 0 10.08-.12 13.02-1.2 3-1.08 4.02-3.06 4.02-7.14v-27.48h-7.62ZM385 381.26v7.08h41.94v-7.08H385Zm39.24 0V383c-3 4.56-10.08 11.76-16.32 15.72 1.44 1.14 3.78 3.54 4.92 5.1 7.38-4.62 15.3-12.24 20.7-18.84l-5.64-4.2-1.74.48h-1.92Zm30.66 19.2h-13.62v6.66H448v15.42h6.9v-22.08Zm0 19.26h-6.24c-2.64 2.22-5.58 4.38-8.1 6l3.42 7.14c3-2.58 5.52-4.86 7.92-7.2 3.6 4.62 8.46 6.36 15.66 6.66 7.32.36 20.1.24 27.6-.12.3-2.1 1.44-5.4 2.22-7.02-8.34.66-22.56.84-29.76.48-6.18-.24-10.44-1.98-12.72-5.94Zm-13.44-37.08c3.42 2.94 7.44 7.08 9.06 10.02l5.94-4.56c-1.86-2.82-6.06-6.84-9.48-9.48l-5.52 4.02Zm14.4 10.02v4.98h40.38v-4.98h-40.38Zm11.46 10.86h17.22v3.06h-17.22v-3.06Zm-6.66-4.02v11.1h31.02v-11.1h-31.02Zm12.9 7.62c-3.66 4.5-10.62 8.22-17.4 10.44 1.32 1.26 3.3 3.9 4.14 5.28 7.14-2.88 14.76-7.74 19.26-13.62l-6-2.1Zm16.62.96c-1.86 1.92-5.16 4.74-7.62 6.3l3.78 2.88c2.58-1.38 5.82-3.54 8.94-5.7l-5.1-3.48Zm-11.88 1.5-5.16 1.5c3.96 6.3 10.8 10.86 19.26 12.84.84-1.68 2.58-4.14 3.96-5.4-7.92-1.26-14.7-4.44-18.06-8.94Zm4.98-26.94h3.84v4.14h-3.84v-4.14Zm-9.24 0h3.78v4.14h-3.78v-4.14Zm-9.12 0h3.72v4.14h-3.72v-4.14Zm-6.06-4.02v12.24h34.62v-12.24h-34.62Zm13.08 29.76v16.14h6.84v-16.14h-6.84Zm37.92-31.62c-1.26 4.8-3.72 11.16-5.88 15.24l6.24 1.62c2.28-3.84 4.98-9.72 7.14-15.24l-7.5-1.62Zm-9.06 12.3.54 6.84c6.84-.42 16.08-.96 24.9-1.62l.06-6.24c-9.3.42-19.02.84-25.5 1.02Zm3.54 9.66v34.62H511v-28.68h12.42v-5.94h-19.08Zm15.66 0v27.24c0 .78-.24.96-.96.96-.78.06-3.18.06-5.28-.06.9 1.74 1.92 4.5 2.28 6.42 3.66 0 6.36-.12 8.46-1.2 2.04-1.08 2.64-2.88 2.64-5.94v-27.42H520Zm-12.6 9.06v5.34h16.62v-5.34H507.4Zm0 8.82v5.34h16.62v-5.34H507.4Zm24.42-39.3v18.12c0 6.66 1.74 8.7 8.82 8.7h8.28c5.58 0 7.5-2.16 8.28-9.96-1.98-.42-4.92-1.5-6.42-2.64-.24 5.28-.6 6.18-2.58 6.18h-6.54c-2.28 0-2.64-.3-2.64-2.4v-18h-7.2Zm18 3.54c-3.96 2.28-10.14 4.98-15.72 6.72.78 1.38 1.74 3.54 2.04 4.98 5.94-1.62 12.9-3.9 18.24-6.48l-4.56-5.22Zm-18 24.48v18.96c0 6.66 1.8 8.7 8.88 8.7h8.52c5.76 0 7.68-2.4 8.46-10.86-1.98-.42-4.86-1.56-6.36-2.64-.3 6.12-.66 7.2-2.76 7.2h-6.84c-2.34 0-2.76-.24-2.76-2.46v-18.9h-7.14Zm18.48 2.52c-4.08 2.64-10.5 5.58-16.32 7.44.72 1.38 1.74 3.66 2.1 5.04 6.18-1.74 13.44-4.26 18.9-7.2l-4.68-5.28Zm-32.28-24.48c2.88 4.5 5.76 10.5 6.78 14.34l6.54-2.64c-1.14-3.96-4.26-9.66-7.2-13.98l-6.12 2.28Zm64.68-5.58v29.64h6.84v-29.64h-6.84Zm-6.9 10.14v6.48h20.04v-6.48H575.8Zm.9 16.38V431h6.24v-26.7h-6.24Zm3.84 0v6.12h8.52v10.2h-8.52v6.12h14.82V404.3h-14.82Zm19.8-27.18c-1.2 9.66-3.54 19.14-7.68 25.14 1.2 1.44 3.24 4.68 3.9 6.12 5.28-7.26 8.46-18.72 10.2-30.18l-6.42-1.08Zm1.14 11.04-1.8 6.06h17.46v-6.06h-15.66Zm6.96 2.52c-1.14 18.24-4.86 30.78-16.5 37.68 1.32 1.08 3.54 3.66 4.32 4.86 12.36-8.28 16.74-21.84 18.36-42.18l-6.18-.36Zm-6.24 1.62-5.04 2.28c1.44 13.14 4.56 30.18 16.02 38.58.9-1.74 2.94-4.38 4.2-5.64-10.92-6.96-13.92-22.86-15.18-35.22Zm-30.66-15.12c-2.58 8.76-7.02 17.52-11.88 23.16 1.14 1.92 2.88 6.06 3.48 7.8 6.12-7.2 11.64-18.54 15.06-29.04l-6.66-1.92Zm-4.74 16.44v39.72h6.6v-46.02l-.18-.12-6.42 6.42Zm54.36-12.3v6.3h19.38v-6.3h-19.38Zm.54 17.28v6.36h18v-6.36h-18Zm18.12-4.14v5.7h37.2v-5.7h-37.2Zm-19.5 24.06 1.5 6.78c5.76-1.56 13.14-3.54 19.98-5.46l-.84-6.42c-7.5 1.98-15.36 3.96-20.64 5.1Zm29.46-11.04h17.28v3.84h-17.28v-3.84Zm-6.3-5.1v14.1h30.24v-14.1h-30.24Zm21.42-18.6h3.84v3.9h-3.84v-3.9Zm-8.4 0h3.78v3.9h-3.78v-3.9Zm-8.22 0h3.66v3.9h-3.66v-3.9Zm-5.76-4.8v13.5h32.22v-13.5h-32.22Zm18.06 34.74-5.16 1.5c3.36 8.16 9.36 14.94 17.28 18.24.96-1.74 3-4.32 4.5-5.64-7.62-2.34-13.68-7.8-16.62-14.1Zm10.68 2.58c-1.62 1.56-4.44 3.9-6.42 5.16l4.08 3.24c2.1-1.14 4.86-2.94 7.26-4.74l-4.92-3.66Zm-43.44-32.22v36l6.48-1.08v-34.92h-6.48Zm29.4 28.68c-4.56 5.16-13.5 10.2-21.42 12.66 1.38 1.26 3.24 3.6 4.14 5.1 8.1-3.12 17.1-9.06 22.32-15.48l-5.04-2.28Zm-5.94 8.46v12.18h6.78v-16.74l-6.78 4.56Zm62.64-22.92v35.1h7.26v-35.1h-7.26Zm-15.78 7.5v6.54h38.58v-6.54h-38.58Zm24.42 2.88-5.4 1.98c3.72 7.98 9.9 16.08 16.2 20.58 1.2-1.8 3.48-4.38 5.1-5.76-6.24-3.6-12.6-10.26-15.9-16.8Zm-9.6-.54c-3.48 6.84-10.14 13.68-16.98 17.22 1.56 1.38 3.84 3.96 4.98 5.7 7.08-4.5 13.74-12.48 17.64-20.94l-5.64-1.98ZM708.94 386h17.64v8.04h-17.64V386Zm-6.84-6.3v20.7h31.68v-20.7H702.1Zm-7.86-2.52c-3.18 8.58-8.58 17.1-14.16 22.5 1.2 1.74 3.18 5.7 3.78 7.38 6.66-6.78 13.08-17.52 17.1-27.72l-6.72-2.16Zm-5.76 16.62v39.42h6.84v-46.2l-.06-.06-6.78 6.84Zm77.4 18.78h6.18l1.56-20.52.3-8.94h-9.9l.3 8.94 1.56 20.52ZM769 428.6c3 0 5.28-2.22 5.28-5.34 0-3.12-2.28-5.28-5.28-5.28-3.06 0-5.34 2.16-5.34 5.28s2.22 5.34 5.34 5.34Z" fill="#424242"/></svg>