<svg width="1440" height="810" fill="none" xmlns="http://www.w3.org/2000/svg"><path d="M675.258 430.774c1.188 1.89 2.268 4.428 2.646 6.048l3.24-1.134c-.324-1.62-1.512-4.05-2.754-5.886l-3.132.972Zm-9.018-4.104c1.944 1.458 4.266 3.618 5.292 5.184l2.16-2.862c-1.08-1.458-3.402-3.456-5.346-4.806l-2.106 2.484Zm5.994-5.94c-.756 1.512-2.214 3.834-3.348 5.346l2.808 1.242c1.242-1.296 2.808-3.24 4.32-5.13l-3.78-1.458Zm3.672 3.942c-1.836 2.592-5.13 6.426-7.722 8.748l2.484 1.242c2.592-2.106 5.94-5.562 8.586-8.478l-3.348-1.512Zm5.67 12.042v15.12h4.374v-15.12h-4.374Zm-15.768-3.726.378 3.51c3.672-.27 7.938-.648 12.42-1.08l-.054-3.294c-4.86.378-9.396.648-12.744.864Zm23.112-2.538c1.296 2.106 2.538 4.86 2.916 6.696l3.402-1.134c-.432-1.836-1.728-4.536-3.078-6.48l-3.24.918Zm-9.828-4.05c2.106 1.62 4.59 4.05 5.67 5.67l2.43-2.7c-1.134-1.566-3.672-3.834-5.778-5.346l-2.322 2.376Zm6.264-5.724c-.864 1.674-2.538 4.212-3.78 5.778l2.862 1.296c1.404-1.404 3.132-3.51 4.806-5.562l-3.888-1.512Zm3.834 4.05c-1.944 2.7-5.454 6.642-8.208 8.964l2.538 1.35c2.808-2.214 6.318-5.724 9.126-8.748l-3.456-1.566Zm-9.018 8.262.756 3.51c3.51-.324 7.614-.594 11.772-1.026l-.054-3.24c-4.752.324-9.126.594-12.474.756Zm-12.744 4.59v8.262h9.828v-3.564h-5.832v-4.698h-3.996Zm21.924 0v4.698h-4.32v3.564h8.316v-8.262h-3.996Zm-14.688-.864v5.076c0 2.862-.756 5.616-6.372 7.29.918.81 2.268 2.484 2.808 3.51 6.858-2.376 7.884-6.426 7.884-10.638v-5.238h-4.32Zm-13.716-25.596v3.888h13.554v-3.888h-13.554Zm24.84 0v3.888h13.716v-3.888h-13.716Zm11.502-6.912v41.202c0 .702-.216.972-.918.972-.702 0-2.862 0-4.86-.108.81 1.674 1.62 4.59 1.836 6.318 3.564 0 6.048-.108 7.884-1.188 1.836-1.08 2.322-2.862 2.322-5.94v-41.256h-6.264Zm-35.748 0v4.374h11.016v8.91h-11.016v4.374h17.118v-17.658h-17.118Zm38.988 0h-18.36v17.658h18.36v-4.374h-12.204v-8.91h12.204v-4.374Zm-42.822 0v48.654h6.156v-48.654h-6.156Zm51.84 6.21v5.994h23.544v-5.994h-23.544Zm8.748 11.772v5.886h8.856v-5.886h-8.856Zm-.27-19.98v10.152h6.426v-10.152h-6.426Zm27.216 7.236c2.106 6.102 6.426 13.446 11.88 17.442.864-2.16 2.052-4.806 3.24-6.588-5.13-3.078-9.558-10.8-12.15-18.36h-6.372c-1.836 6.642-6.102 15.066-11.34 18.846 1.026 1.566 2.376 4.266 2.97 6.156 5.4-3.996 9.72-11.556 11.772-17.496Zm-30.456 4.752c-.108 14.472-.216 26.73-6.372 34.182 1.62 1.134 3.672 3.294 4.644 4.86 7.236-8.694 7.83-22.788 8.046-39.042h-6.318Zm10.314 7.992v1.188c-.216 16.2-.54 21.708-1.35 22.95-.432.648-.864.81-1.566.81-.864 0-2.322 0-4.104-.162.918 1.62 1.566 4.104 1.674 5.832 2.268.108 4.428.054 5.778-.162 1.566-.324 2.646-.81 3.672-2.376 1.404-1.944 1.674-8.316 1.944-25.488.054-.756.054-2.592.054-2.592H725.1Zm13.878 4.536c3.402 2.376 7.452 5.94 9.234 8.478l4.59-4.59c-1.944-2.484-6.156-5.724-9.558-7.938l-4.266 4.05Zm-4.644 14.796c6.372 2.916 14.31 7.776 17.982 11.394l4.266-5.724c-3.888-3.564-12.096-8.046-18.306-10.692l-3.942 5.022Zm29.592-36.126v5.67h49.356v-5.67h-49.356Zm14.526-3.24v16.632h19.332v-16.632h-5.886v11.934h-7.776v-11.934h-5.67Zm-6.858 14.202v22.41h5.724v-22.41h-5.724Zm-6.912 3.618v5.454h9.936v-5.454h-9.936Zm-1.242 12.366 1.188 5.562a381.55 381.55 0 0 0 10.098-3.51l-.756-4.914c-3.996 1.08-7.722 2.214-10.53 2.862Zm35.532-15.93v15.066c0 5.076.972 6.696 5.616 6.696h3.618c3.456 0 4.86-1.782 5.4-7.776-1.512-.378-3.834-1.242-4.914-2.16-.162 4.158-.378 4.86-1.188 4.86h-1.89c-.702 0-.81-.162-.81-1.674V416.41h-5.832Zm10.422 2.214c-1.998 1.728-5.184 3.78-8.046 5.184.648 1.134 1.458 3.024 1.782 4.212 3.132-1.242 6.966-2.97 10.206-4.86l-3.942-4.536Zm-24.03 7.29h5.346v6.48h-5.346v-6.48Zm-5.238-4.644v15.822h16.092V421.27h-16.092Zm-.756 20.25c.648 3.51 1.08 8.046 1.08 10.854l6.372-.972c-.054-2.7-.702-7.182-1.458-10.584l-5.994.702Zm10.746.108c1.296 3.456 2.538 7.992 2.916 10.746l6.48-1.296c-.486-2.808-1.89-7.182-3.294-10.476l-6.102 1.026Zm10.854-.324c2.538 3.618 5.562 8.586 6.75 11.61l6.426-2.754c-1.404-3.078-4.644-7.83-7.182-11.232l-5.994 2.376Zm-31.428-1.89c-1.404 4.05-4.05 8.316-6.696 10.638l6.102 2.646c2.916-2.916 5.454-7.398 6.858-11.718l-6.264-1.566Zm49.248-32.67v5.616h47.466v-5.616H818.79Zm31.428 24.948v.864c-4.32 9.18-16.686 13.446-30.672 14.85 1.026 1.404 2.214 3.888 2.7 5.508 15.228-2.106 28.512-7.182 34.344-19.386l-4.05-2.052-1.08.216h-1.242Zm-12.15-3.78c-3.294 3.78-9.126 7.776-16.902 10.692 1.35.864 3.24 2.862 4.158 4.212 8.262-3.618 14.418-8.1 19.224-13.446l-6.48-1.458Zm-1.134 3.78-4.698 4.698h20.034v-4.698h-15.336Zm2.268-29.592v25.812h6.21V402.1h-6.21Zm.378 13.554c-4.428 6.966-13.338 12.798-23.004 15.39 1.242 1.188 2.916 3.456 3.726 4.914 10.098-3.294 18.846-9.99 24.03-18.522l-4.752-1.782Zm5.562.054-4.806 1.944c5.4 8.37 14.418 15.336 24.192 18.792.864-1.512 2.646-3.834 3.942-5.022-9.612-2.808-18.738-8.856-23.328-15.714Zm-17.874-3.564c-1.566 4.428-4.914 8.208-9.234 10.53 1.242.81 3.348 2.646 4.266 3.672 4.482-2.916 8.37-7.506 10.422-13.122l-5.454-1.08Zm-1.296 7.128c2.052 1.35 4.806 3.294 6.102 4.536l3.402-4.104c-1.404-1.188-4.212-2.97-6.264-4.104l-3.24 3.672Zm28.026-7.074c-1.242 3.402-3.672 6.588-6.642 8.64 1.242.864 3.294 2.7 4.266 3.726 3.186-2.592 6.102-6.696 7.722-11.016l-5.346-1.35Zm-1.242 6.858c3.51 2.106 8.154 5.346 10.422 7.344l3.402-4.104c-2.376-1.944-7.128-4.914-10.53-6.858l-3.294 3.618Zm-21.33 22.626c8.856 3.078 21.06 8.1 26.946 11.34l5.67-4.482c-6.75-3.348-19.062-7.992-27.378-10.692l-5.238 3.834Zm40.068-28.782v5.994h17.496V412.9h-17.496Zm7.29-10.746c-1.674 10.746-4.644 25.002-6.966 33.534l5.292 2.808c2.538-9.72 5.67-24.192 7.776-35.694l-6.102-.648Zm-4.104 32.67c5.13 3.348 11.34 8.478 14.094 12.204l3.834-5.184c-2.862-3.672-9.288-8.424-14.418-11.61l-3.51 4.59Zm12.042-21.924v1.188c-1.026 17.064-5.886 28.998-15.12 33.804 1.296 1.242 3.024 3.564 3.888 5.13 10.8-6.588 16.038-18.522 17.334-39.636l-3.888-.648-1.134.162h-1.08Zm5.832-7.884v5.832h17.658v-5.832h-17.658Zm18.09 14.904-.81 5.832h7.776v-5.832h-6.966Zm4.806 0v1.134c-.54 16.794-1.296 23.382-2.592 24.84-.594.648-1.134.756-2.052.756-1.134 0-3.618 0-6.21-.216 1.026 1.674 1.782 4.266 1.89 6.048 2.808.162 5.508.162 7.236-.108 1.89-.27 3.186-.81 4.536-2.538 1.836-2.214 2.484-9.18 3.186-27.27.054-.756.108-2.646.108-2.646h-6.102Zm-18.09-12.906c-.108 15.93.054 31.968-7.722 41.634 1.62.972 3.672 2.862 4.698 4.32 8.64-10.962 9.18-28.512 9.396-45.954h-6.372Zm11.232-1.998c-.27 7.29-1.08 16.686-1.998 22.572l5.886.432c.81-5.94 1.62-15.444 2.052-23.004h-5.94Zm22.626 5.886v5.67h10.692v25.002h-10.692v5.724h16.578v-36.396h-16.578Zm-3.78 0v40.392h5.886v-40.392h-5.886Zm3.51 14.418v5.616h13.824v-5.616h-13.824Zm4.158-23.22c-.27 2.97-1.026 7.128-1.782 9.936l5.184 1.134c1.08-2.538 2.43-6.372 3.672-10.044l-7.074-1.026Zm19.818 8.424v5.886h15.768v-5.886h-15.768Zm13.554 0v1.242c-.594 22.518-1.296 31.806-3.024 33.642-.702.756-1.296.972-2.376.972-1.35 0-4.59-.054-8.1-.324 1.188 1.728 2.052 4.482 2.16 6.264 3.132.162 6.426.216 8.478-.108 2.214-.324 3.726-.918 5.238-3.024 2.214-2.862 2.862-11.448 3.564-35.748.054-.81.054-2.916.054-2.916h-5.994Zm-13.392-8.37c-1.728 7.182-4.806 14.526-8.424 19.062 1.512.864 4.158 2.7 5.346 3.78 3.672-5.184 7.182-13.392 9.288-21.384l-6.21-1.458Zm-2.646 23.922c2.592 3.996 5.994 9.288 7.452 12.582l5.508-3.348c-1.674-3.186-5.238-8.37-7.884-12.096l-5.076 2.862Zm35.471-.567h4.061c1.3 0 2.373-.22 3.216-.659.844-.457 1.468-1.09 1.873-1.899.421-.826.632-1.784.632-2.874 0-.984-.193-1.854-.58-2.61a3.927 3.927 0 0 0-1.714-1.793c-.773-.44-1.749-.659-2.926-.659-.932 0-1.793.184-2.584.553-.791.37-1.424.888-1.899 1.556-.474.668-.712 1.477-.712 2.426h-7.62c0-2.11.563-3.946 1.688-5.511 1.142-1.564 2.672-2.786 4.588-3.665s4.025-1.318 6.328-1.318c2.601 0 4.878.422 6.829 1.265 1.949.826 3.469 2.048 4.559 3.665 1.09 1.618 1.64 3.621 1.64 6.012 0 1.213-.28 2.391-.85 3.533-.56 1.125-1.37 2.145-2.42 3.059-1.04.896-2.305 1.617-3.799 2.162-1.494.527-3.173.791-5.036.791h-5.274v-4.034Zm0 5.774v-3.929h5.274c2.091 0 3.928.238 5.51.712 1.585.475 2.905 1.161 3.985 2.057 1.07.879 1.88 1.925 2.42 3.138.55 1.195.82 2.522.82 3.981 0 1.793-.34 3.393-1.03 4.799a9.964 9.964 0 0 1-2.9 3.533c-1.23.967-2.671 1.705-4.323 2.215-1.652.492-3.454.738-5.405.738-1.617 0-3.208-.219-4.773-.659a14.2 14.2 0 0 1-4.218-2.03 10.437 10.437 0 0 1-3.006-3.428c-.739-1.389-1.108-3.032-1.108-4.931h7.62c0 .985.246 1.864.739 2.637.492.774 1.169 1.38 2.03 1.82.879.439 1.854.659 2.927.659 1.213 0 2.25-.22 3.111-.659.879-.457 1.547-1.09 2.004-1.899.474-.826.712-1.784.712-2.874 0-1.406-.255-2.531-.765-3.375-.51-.861-1.239-1.494-2.188-1.898-.95-.405-2.075-.607-3.375-.607h-4.061Zm38.899-26.375v47.898h5.89v-42.282h20.41v41.85h6.15v-47.466h-32.45Zm7.29 12.258v4.698h17.77v-4.698h-17.77Zm-4.27 26.838v5.67h26.25v-5.67h-26.25Zm10.48-32.346v17.334h5.02v-17.334h-5.02Zm-.16 19.386h5.51v5.616h-5.51v-5.616Zm-4.65-4.482v14.58h15.07v-14.58h-15.07Zm-15.39-24.246c-2.43 7.722-6.58 15.498-11.12 20.466 1.03 1.674 2.65 5.454 3.13 7.02 5.62-6.372 10.8-16.362 13.93-25.704l-5.94-1.782Zm-4.42 14.796v35.802h6.15v-41.85l-.05-.054-6.1 6.102Zm70.41-14.202v41.796c0 1.08-.43 1.458-1.62 1.458-1.13.054-5.18.108-8.75-.108 1.03 1.782 2.27 4.86 2.6 6.75 5.29.054 9.01-.162 11.5-1.242 2.48-1.026 3.4-2.808 3.4-6.804v-41.85h-7.13Zm13.02 14.202c4.26 7.938 8.37 18.144 9.5 24.678l7.07-2.808c-1.35-6.75-5.83-16.632-10.26-24.246l-6.31 2.376Zm-27.17-1.836c-1.13 7.074-3.88 16.578-8.26 22.086 1.78.702 4.75 2.214 6.32 3.402 4.54-5.994 7.51-16.092 9.34-24.246l-7.4-1.242Zm76.36 26.028v6.048h14.8v-6.048h-14.8Zm-2.92-34.506v44.496h6.27V412.9h7.88v37.638h6.59v-43.74h-20.74Zm-16.84 5.076v10.314c0 7.938-.98 18.522-10.86 25.65 1.3.918 3.78 3.51 4.59 4.86 10.86-7.884 12.8-21.222 12.8-30.402v-10.422h-6.53Zm-4.43-2.862v5.994h18.52v-5.994h-18.52Zm-5.62 14.526v6.156h25.49v-6.156h-25.49Zm14.96 7.614-3.94 3.672c2.75 3.186 8.04 9.882 10.58 13.878l4.38-5.454c-1.68-1.998-8.81-10.152-11.02-12.096Zm-9.94-28.998c-1.08 6.21-3.13 12.42-6.04 16.308 1.4.864 4.05 2.7 5.18 3.726 3.08-4.536 5.67-11.664 7.07-18.792l-6.21-1.242Zm69.66 33.048v4.32h10.21v-4.32h-10.21Zm-3.29-27.702v4.86h17.28v-4.86h-17.28Zm-1.19 12.906v5.184h33.81v-5.184h-33.81Zm4.11 7.614v4.428h8.2v9.936h-8.2v4.482h13.44V428.02h-13.44Zm-1.95 0v20.898h4.86V428.02h-4.86Zm4.81-25.866v7.83h5.88v-7.83h-5.88Zm-4.16 11.286c.76 2.322 1.24 5.238 1.24 7.182l4.65-1.08c-.06-1.944-.71-4.86-1.57-7.02l-4.32.918Zm21.82-6.102c2.05 3.024 3.94 7.182 4.53 9.99l5.19-2.106c-.76-2.808-2.76-6.804-4.86-9.72l-4.86 1.836Zm-12.48 4.968c-.21 2.214-.75 5.4-1.19 7.506l4.38.864c.59-1.89 1.24-4.752 2.05-7.506l-5.24-.864Zm7.29-10.044c.11 31.968.7 50.166 9.72 50.76 2 .054 4.43-1.782 5.73-9.558-.92-.594-3.08-2.268-3.95-3.564-.21 3.78-.75 6.156-1.51 6.102-4.05-.432-4.86-17.982-4.43-43.74h-5.56Zm8.86 25.596c-3.13 9.828-9.4 17.28-16.2 21.384 1.13.918 2.81 2.592 3.56 3.618 7.13-4.428 13.83-12.258 17.5-22.356l-4.86-2.646Zm-42.77-9.126v4.86h13.66v-4.86h-13.66Zm.27-14.904v4.914h13.34v-4.914h-13.34Zm-.27 22.248v4.914h13.66v-4.914h-13.66Zm-2.16-14.958v5.13h17.06v-5.13h-17.06Zm4.91 22.464v5.076h6v6.156h-6v5.076h11.07v-16.308h-11.07Zm-2.91 0v18.576h4.97v-18.576h-4.97Zm74.63.54h5.56l1.4-18.468.27-8.046h-8.91l.27 8.046 1.41 18.468Zm2.8 14.418c2.7 0 4.76-1.998 4.76-4.806s-2.06-4.752-4.76-4.752c-2.75 0-4.8 1.944-4.8 4.752s2 4.806 4.8 4.806Z" fill="#424242"/></svg>