<svg width="1440" height="810" fill="none" xmlns="http://www.w3.org/2000/svg"><path d="M162.34 186.972v5.46h47.528v-5.46H162.34Zm13.988-3.12v16.016h18.616v-16.016h-5.668v11.492h-7.488v-11.492h-5.46Zm-6.604 13.676v21.58h5.512v-21.58h-5.512Zm-6.656 3.484v5.252h9.568v-5.252h-9.568Zm-1.196 11.908 1.144 5.356c3.12-1.04 6.448-2.184 9.724-3.38l-.728-4.732c-3.848 1.04-7.436 2.132-10.14 2.756Zm34.216-15.34v14.508c0 4.888.936 6.448 5.408 6.448h3.484c3.328 0 4.68-1.716 5.2-7.488-1.456-.364-3.692-1.196-4.732-2.08-.156 4.004-.364 4.68-1.144 4.68h-1.82c-.676 0-.78-.156-.78-1.612V197.58h-5.616Zm10.036 2.132c-1.924 1.664-4.992 3.64-7.748 4.992.624 1.092 1.404 2.912 1.716 4.056 3.016-1.196 6.708-2.86 9.828-4.68l-3.796-4.368Zm-23.14 7.02h5.148v6.24h-5.148v-6.24Zm-5.044-4.472v15.236h15.496V202.26H177.94Zm-.728 19.5c.624 3.38 1.04 7.748 1.04 10.452l6.136-.936c-.052-2.6-.676-6.916-1.404-10.192l-5.772.676Zm10.348.104c1.248 3.328 2.444 7.696 2.808 10.348l6.24-1.248c-.468-2.704-1.82-6.916-3.172-10.088l-5.876.988Zm10.452-.312c2.444 3.484 5.356 8.268 6.5 11.18l6.188-2.652c-1.352-2.964-4.472-7.54-6.916-10.816l-5.772 2.288Zm-30.264-1.82c-1.352 3.9-3.9 8.008-6.448 10.244l5.876 2.548c2.808-2.808 5.252-7.124 6.604-11.284l-6.032-1.508Zm47.424-31.46v5.408h45.708v-5.408h-45.708Zm30.264 24.024v.832c-4.16 8.84-16.068 12.948-29.536 14.3.988 1.352 2.132 3.744 2.6 5.304 14.664-2.028 27.456-6.916 33.072-18.668l-3.9-1.976-1.04.208h-1.196Zm-11.7-3.64c-3.172 3.64-8.788 7.488-16.276 10.296 1.3.832 3.12 2.756 4.004 4.056 7.956-3.484 13.884-7.8 18.512-12.948l-6.24-1.404Zm-1.092 3.64-4.524 4.524h19.292v-4.524h-14.768Zm2.184-28.496v24.856h5.98V183.8h-5.98Zm.364 13.052c-4.264 6.708-12.844 12.324-22.152 14.82 1.196 1.144 2.808 3.328 3.588 4.732 9.724-3.172 18.148-9.62 23.14-17.836l-4.576-1.716Zm5.356.052-4.628 1.872c5.2 8.06 13.884 14.768 23.296 18.096.832-1.456 2.548-3.692 3.796-4.836-9.256-2.704-18.044-8.528-22.464-15.132Zm-17.212-3.432c-1.508 4.264-4.732 7.904-8.892 10.14 1.196.78 3.224 2.548 4.108 3.536 4.316-2.808 8.06-7.228 10.036-12.636l-5.252-1.04Zm-1.248 6.864c1.976 1.3 4.628 3.172 5.876 4.368l3.276-3.952c-1.352-1.144-4.056-2.86-6.032-3.952l-3.12 3.536Zm26.988-6.812c-1.196 3.276-3.536 6.344-6.396 8.32 1.196.832 3.172 2.6 4.108 3.588 3.068-2.496 5.876-6.448 7.436-10.608l-5.148-1.3Zm-1.196 6.604c3.38 2.028 7.852 5.148 10.036 7.072l3.276-3.952c-2.288-1.872-6.864-4.732-10.14-6.604l-3.172 3.484Zm-20.54 21.788c8.528 2.964 20.28 7.8 25.948 10.92l5.46-4.316c-6.5-3.224-18.356-7.696-26.364-10.296l-5.044 3.692Zm38.584-27.716v5.772h16.848V194.2h-16.848Zm7.02-10.348c-1.612 10.348-4.472 24.076-6.708 32.292l5.096 2.704c2.444-9.36 5.46-23.296 7.488-34.372l-5.876-.624Zm-3.952 31.46c4.94 3.224 10.92 8.164 13.572 11.752l3.692-4.992c-2.756-3.536-8.944-8.112-13.884-11.18l-3.38 4.42Zm11.596-21.112v1.144c-.988 16.432-5.668 27.924-14.56 32.552 1.248 1.196 2.912 3.432 3.744 4.94 10.4-6.344 15.444-17.836 16.692-38.168l-3.744-.624-1.092.156h-1.04Zm5.616-7.592v5.616h17.004v-5.616h-17.004Zm17.42 14.352-.78 5.616h7.488v-5.616h-6.708Zm4.628 0v1.092c-.52 16.172-1.248 22.516-2.496 23.92-.572.624-1.092.728-1.976.728-1.092 0-3.484 0-5.98-.208.988 1.612 1.716 4.108 1.82 5.824 2.704.156 5.304.156 6.968-.104 1.82-.26 3.068-.78 4.368-2.444 1.768-2.132 2.392-8.84 3.068-26.26.052-.728.104-2.548.104-2.548h-5.876Zm-17.42-12.428c-.104 15.34.052 30.784-7.436 40.092 1.56.936 3.536 2.756 4.524 4.16 8.32-10.556 8.84-27.456 9.048-44.252h-6.136Zm10.816-1.924c-.26 7.02-1.04 16.068-1.924 21.736l5.668.416c.78-5.72 1.56-14.872 1.976-22.152h-5.72Zm18.044 9.308v9.568h5.876V200.7h32.604v5.512h6.188v-10.296h-44.668Zm38.012-12.168c-8.632 1.768-23.764 2.756-36.608 3.016.52 1.144 1.092 3.224 1.196 4.524 13.156-.208 28.756-1.144 39.52-3.38l-4.108-4.16Zm-31.72 7.696c1.352 1.82 2.756 4.368 3.224 6.032l5.252-2.184c-.572-1.768-2.08-4.16-3.588-5.876l-4.888 2.028Zm11.232-1.04c1.352 1.976 2.6 4.732 2.964 6.448l5.304-1.924c-.468-1.82-1.872-4.42-3.276-6.344l-4.992 1.82Zm13.052 14.56c2.964 2.392 6.448 5.928 7.956 8.32l4.472-3.328c-1.612-2.444-5.252-5.772-8.268-7.956l-4.16 2.964Zm-13.364-3.016c2.704 1.144 5.876 3.068 7.488 4.472l3.12-3.484c-1.664-1.404-4.992-3.12-7.592-4.16l-3.016 3.172Zm16.796-13.364c-.884 2.288-2.652 5.46-4.056 7.592l4.68 1.768c1.612-1.82 3.588-4.628 5.512-7.384l-6.136-1.976Zm-2.86 26v.884c-4.888 7.852-17.784 11.18-32.344 12.22 1.144 1.196 2.704 3.692 3.276 5.148 14.872-1.664 28.756-5.772 35.204-15.912l-3.9-2.496-.988.156h-1.248Zm-16.9 2.964-4.836 1.872c7.02 8.216 18.72 12.064 33.228 13.312.78-1.612 2.288-4.212 3.588-5.512-14.144-.728-26.104-3.64-31.98-9.672Zm2.704-7.124c-3.536 4.42-10.244 8.008-17.004 10.088 1.196.936 3.276 3.016 4.212 4.108 6.604-2.6 13.832-6.916 18.148-12.324l-5.356-1.872Zm-4.16-7.436v3.64c0 4.316 1.352 5.564 7.072 5.564h6.916c3.9 0 5.356-1.04 5.876-5.096-1.456-.26-3.64-.936-4.732-1.664-.208 2.132-.52 2.444-1.82 2.444h-5.46c-1.768 0-2.132-.104-2.132-1.3v-3.588h-5.72Zm-4.784-.052c-1.248 2.86-3.588 5.72-6.552 7.384l4.264 3.484c3.38-2.184 5.564-5.512 6.968-8.84l-4.68-2.028Zm7.592 11.648-4.264 4.264h21.216v-4.264h-16.952Zm56.212-28.132v5.772h21.112v-5.772h-21.112Zm-1.768 18.096v5.876h28.704v-5.876h-28.704Zm10.972-6.084v27.196c0 .728-.26.936-1.092.988-.884.052-3.588 0-6.24-.104.832 1.664 1.872 4.368 2.184 6.084 3.848.052 6.708-.156 8.788-1.092 2.028-.988 2.652-2.652 2.652-5.772v-27.3h-6.292Zm9.672-12.012v1.352c-1.56 3.12-5.148 8.268-8.216 11.232.988.832 2.704 2.548 3.536 3.64 4.056-3.432 8.476-8.944 11.544-13.468l-4.056-3.068-1.3.312h-1.508Zm-40.456 7.748v5.772h16.796V194.2h-16.796Zm6.968-10.348c-1.612 10.348-4.42 24.076-6.656 32.292l5.096 2.704c2.444-9.36 5.46-23.296 7.436-34.372l-5.876-.624Zm-3.952 31.408c5.46 3.588 12.064 9.048 14.976 13l3.744-5.044c-3.016-3.9-9.88-8.944-15.288-12.324l-3.432 4.368Zm11.648-21.06v1.144c-1.04 16.432-5.668 27.924-14.508 32.552 1.248 1.196 2.912 3.432 3.744 4.94 10.296-6.396 15.34-17.888 16.536-38.168l-3.692-.624-1.092.156h-.988Zm37.96 5.408v5.512h46.8v-5.512h-46.8Zm4.524-10.14v5.408h29.744v-5.408h-29.744Zm9.152 28.288v4.68h23.244v-4.68h-23.244Zm0 8.164v5.252h23.244v-5.252h-23.244Zm3.12-42.068v18.824h6.136v-18.824h-6.136Zm22.88 1.508c-9.1 13.052-24.388 22.984-41.288 28.392 1.144 1.248 3.016 3.848 3.744 5.2 16.848-6.188 32.708-16.64 42.9-30.836l-5.356-2.756Zm-29.484 23.92v23.452h6.24v-18.356h17.94v18.148h6.5V209.28h-30.68Zm54.184-13.728v27.196c0 7.228 1.976 9.308 8.996 9.308h9.204c6.448 0 8.268-3.016 9.1-12.48-1.82-.364-4.628-1.56-6.084-2.652-.416 7.436-.884 8.892-3.536 8.892H496.7c-2.704 0-3.12-.364-3.12-3.016v-27.248h-6.656Zm.624-7.228c4.108 2.808 9.464 6.916 12.428 9.464l4.108-5.148c-2.964-2.288-8.268-6.188-12.48-8.84l-4.056 4.524Zm-8.944 9.62c-.936 6.136-2.86 12.74-5.512 17.264l6.084 2.236c2.6-4.472 4.264-11.856 5.408-17.992l-5.98-1.508Zm30.628 6.136c3.12 4.94 6.344 11.648 7.54 16.016l6.032-3.068c-1.404-4.368-4.628-10.712-7.904-15.6l-5.668 2.652Zm2.496-17.212c-6.968 14.664-20.852 30.264-38.48 38.324 1.3 1.248 3.12 3.536 4.056 4.992 18.616-9.152 32.344-24.752 40.716-40.768l-6.292-2.548Zm25.844-2.132c-2.756 3.9-8.008 7.852-12.324 10.192 1.612 1.196 3.536 3.12 4.576 4.524 4.784-3.016 10.036-7.436 13.676-12.22l-5.928-2.496Zm1.196 14.612c-2.86 4.056-8.372 8.112-12.844 10.504 1.612 1.352 3.484 3.328 4.524 4.836 4.888-3.172 10.348-7.8 14.04-12.896l-5.72-2.444Zm1.144 14.508c-3.068 5.356-8.944 10.088-14.664 12.74 1.664 1.404 3.484 3.536 4.472 5.096 6.344-3.64 12.22-8.996 16.068-15.6l-5.876-2.236Zm4.42-27.768v5.2h29.588v-5.2h-29.588Zm8.008 20.54h13.676v3.328H552.34v-3.328Zm0 7.592h13.676v3.38H552.34v-3.38Zm0-15.08h13.676v3.276H552.34v-3.276Zm-5.824-4.576v27.56h25.636v-27.56h-25.636Zm9.256-5.72c-.26 2.548-.936 6.084-1.56 8.58l5.564 1.04a111.41 111.41 0 0 0 3.224-8.788l-7.228-.832Zm-3.484 33.384c-2.548 2.132-7.8 4.784-12.116 6.136 1.248 1.196 2.964 3.016 3.796 4.316 4.576-1.508 9.984-4.264 13.364-6.916l-5.044-3.536Zm7.956 3.64c3.38 1.976 7.904 4.94 10.036 6.864l4.94-3.64c-2.444-1.976-7.072-4.784-10.348-6.552l-4.628 3.328Zm16.952-9.412 2.132 6.344c4.264-1.3 9.568-2.912 14.56-4.576l-.728-5.512c-5.876 1.456-11.96 2.964-15.964 3.744Zm13.364-32.24v48.412h6.084v-48.412h-6.084Zm-10.14 5.668v28.028h5.98v-28.028h-5.98Zm24.18 3.276v5.876h22.048v-5.876H604.6Zm.052-9.36c-1.664 8.424-4.94 16.484-9.568 21.372 1.404 1.092 3.9 3.484 4.888 4.732 5.044-5.824 8.892-15.132 11.076-24.856l-6.396-1.248Zm13.104 12.48c-2.6 15.548-8.632 25.48-21.32 30.888 1.144 1.352 2.964 4.212 3.536 5.668 13.78-6.656 20.696-18.044 24.024-35.62l-6.24-.936Zm-10.712.884-5.668 1.092c3.38 16.12 9.204 28.34 21.528 34.424.884-1.664 2.86-4.16 4.264-5.408-11.388-4.94-17.368-16.276-20.124-30.108Zm23.764-10.192v5.096h46.488v-5.096h-46.488Zm10.92 9.568v5.252h36.036v-5.252h-36.036Zm-7.644 8.528v4.94H641v-4.94h-6.916Zm-4.524 8.06v5.044h11.18v-5.044h-11.18Zm18.304 10.088v3.9h13.52v-3.9h-13.52Zm-5.616-39.364v10.868h6.188v-10.868h-6.188Zm17.16 0v11.024h6.188v-11.024h-6.188Zm-6.344 22.204v5.876h4.108v-5.876h-4.108Zm-21.372-8.944v13.936h4.524v-13.936h-4.524Zm21.372 21.684v5.876h4.108v-5.876h-4.108Zm-4.628-8.632v3.64h8.424v3.068h-8.424v3.64h12.688v-10.348h-12.688Zm-2.548-6.396v26.26h4.316v-22.36h10.764v-3.9h-15.08Zm-6.916-7.228v15.6c0 5.72-.208 13.052-2.912 18.148 1.3.468 3.64 1.716 4.628 2.548 2.964-5.564 3.432-14.196 3.432-20.644V196.54h-5.148Zm22.152-3.016c.624 23.712 4.316 39.208 11.596 39.208 3.848 0 5.512-1.456 6.188-9.308-1.3-.468-2.964-1.612-4.056-2.704-.26 4.992-.78 6.552-1.664 6.604-2.704 0-6.552-12.012-6.5-33.8h-5.564Zm7.592.832c1.612 1.144 3.432 2.808 4.264 4.004l3.848-2.912c-.884-1.196-2.86-2.756-4.472-3.796l-3.64 2.704Zm1.924 9.308c-2.08 11.232-6.656 20.176-14.404 25.428 1.3.832 3.588 2.756 4.524 3.744 7.748-6.032 12.792-15.756 15.392-28.236l-5.512-.936Zm-38.584 11.388v4.264c0 2.964-.364 7.748-2.964 10.92.988.52 2.704 1.716 3.536 2.444 3.276-3.692 3.796-9.62 3.796-13.208v-4.42h-4.368Zm71.24-.416h5.356l1.352-17.784.26-7.748h-8.58l.26 7.748 1.352 17.784ZM706 228.52c2.6 0 4.576-1.924 4.576-4.628s-1.976-4.576-4.576-4.576c-2.652 0-4.628 1.872-4.628 4.576 0 2.704 1.924 4.628 4.628 4.628Z" fill="#424242"/></svg>