<svg width="1440" height="810" fill="none" xmlns="http://www.w3.org/2000/svg"><path d="M740.491 263.048v5.376h13.152v-5.376h-13.152Zm-2.592-30.672v39.552h5.568V237.8h7.008v33.456h5.856v-38.88h-18.432Zm-14.976 4.512v9.168c0 7.056-.864 16.464-9.648 22.8 1.152.816 3.36 3.12 4.08 4.32 9.648-7.008 11.376-18.864 11.376-27.024v-9.264h-5.808Zm-3.936-2.544v5.328h16.464v-5.328h-16.464Zm-4.992 12.912v5.472h22.656v-5.472h-22.656Zm13.296 6.768-3.504 3.264c2.448 2.832 7.152 8.784 9.408 12.336l3.888-4.848c-1.488-1.776-7.824-9.024-9.792-10.752Zm-8.832-25.776c-.96 5.52-2.784 11.04-5.376 14.496 1.248.768 3.6 2.4 4.608 3.312 2.736-4.032 5.04-10.368 6.288-16.704l-5.52-1.104Zm61.92 29.376v3.84h9.072v-3.84h-9.072ZM777.451 233v4.32h15.36V233h-15.36Zm-1.056 11.472v4.608h30.048v-4.608h-30.048Zm3.648 6.768v3.936h7.296v8.832h-7.296v3.984h11.952V251.24h-11.952Zm-1.728 0v18.576h4.32V251.24h-4.32Zm4.272-22.992v6.96h5.232v-6.96h-5.232Zm-3.696 10.032c.672 2.064 1.104 4.656 1.104 6.384l4.128-.96c-.048-1.728-.624-4.32-1.392-6.24l-3.84.816Zm19.392-5.424c1.824 2.688 3.504 6.384 4.032 8.88l4.608-1.872c-.672-2.496-2.448-6.048-4.32-8.64l-4.32 1.632Zm-11.088 4.416c-.192 1.968-.672 4.8-1.056 6.672l3.888.768c.528-1.68 1.104-4.224 1.824-6.672l-4.656-.768Zm6.48-8.928c.096 28.416.624 44.592 8.64 45.12 1.776.048 3.936-1.584 5.088-8.496-.816-.528-2.736-2.016-3.504-3.168-.192 3.36-.672 5.472-1.344 5.424-3.6-.384-4.32-15.984-3.936-38.88h-4.944Zm7.872 22.752c-2.784 8.736-8.352 15.36-14.4 19.008 1.008.816 2.496 2.304 3.168 3.216 6.336-3.936 12.288-10.896 15.552-19.872l-4.32-2.352Zm-38.016-8.112v4.32h12.144v-4.32h-12.144Zm.24-13.248v4.368h11.856v-4.368h-11.856Zm-.24 19.776v4.368h12.144v-4.368h-12.144Zm-1.92-13.296v4.56h15.168v-4.56h-15.168Zm4.368 19.968v4.512h5.328v5.472h-5.328v4.512h9.84v-14.496h-9.84Zm-2.592 0v16.512h4.416v-16.512h-4.416Zm63.629-21.379V269h-6.75v-26.414l-8.11 2.578v-5.32l14.133-5.039h.727Zm32.765 9.475c2.496 0 4.56-1.92 4.56-4.512 0-2.64-2.064-4.56-4.56-4.56-2.544 0-4.608 1.92-4.608 4.56 0 2.592 2.064 4.512 4.608 4.512Zm0 22.896c2.496 0 4.56-1.92 4.56-4.512 0-2.64-2.064-4.56-4.56-4.56-2.544 0-4.608 1.92-4.608 4.56 0 2.592 2.064 4.512 4.608 4.512Zm32.688-20.88v5.28h11.088v-5.28h-11.088Zm8.88 0v.864c-.096 9.312-.288 12.672-.864 13.44-.384.48-.816.576-1.488.576-.768 0-2.4 0-4.128-.192.864 1.44 1.488 3.696 1.584 5.376 2.256.048 4.32.048 5.616-.144 1.392-.24 2.352-.672 3.312-1.872 1.104-1.488 1.344-5.76 1.536-15.936 0-.672.048-2.112.048-2.112h-5.616Zm14.448-15.024c2.688 1.536 6.096 3.888 7.68 5.568l3.696-3.888c-1.728-1.584-5.28-3.792-7.92-5.184l-3.456 3.504Zm5.664 12.336c-3.312 11.136-9.744 19.824-18.96 24.768 1.2 1.152 3.312 3.552 4.176 4.752 9.504-5.856 16.56-15.6 20.592-28.128l-5.808-1.392Zm-28.656-8.16v5.664h37.008v-5.664h-37.008Zm-3.84 0v14.064c0 6.288-.336 14.688-4.032 20.448 1.344.672 3.936 2.784 4.896 3.936 4.368-6.48 5.184-17.136 5.184-24.336v-14.112h-6.048Zm19.488-7.152c.144 21.888 4.032 44.688 14.496 44.688 4.512 0 6.432-2.16 7.344-11.088-1.536-.576-3.6-1.92-4.896-3.264-.288 6.048-.864 8.496-1.968 8.496-4.848 0-9.264-19.248-8.928-38.832h-6.048Zm41.952 19.296v5.184h19.008v-5.184h-19.008Zm5.136-18v5.04h12.144v-5.04h-12.144Zm8.064 0v2.736h1.056c1.44 7.296 4.896 14.592 10.224 19.008.912-1.44 2.88-3.84 4.176-4.896-4.944-3.408-8.112-9.984-9.312-16.848h-6.144Zm3.6 18v1.008c-.288 12.768-.624 17.328-1.44 18.384-.432.528-.816.672-1.536.672-.768 0-2.352 0-4.08-.192.864 1.536 1.488 3.984 1.584 5.664 2.208.096 4.272.048 5.568-.192 1.488-.24 2.496-.72 3.504-2.112 1.296-1.776 1.68-7.104 2.064-20.88.048-.72.048-2.352.048-2.352h-5.712Zm-11.52 2.592c-.48 8.016-1.776 14.688-9.408 18.72 1.2 1.008 2.736 3.072 3.408 4.368 8.688-5.184 10.992-13.152 11.664-23.088h-5.664Zm-3.696-15.984c-1.248 4.512-4.128 10.224-7.632 13.584 1.104.912 2.88 2.64 3.744 3.792 4.08-3.984 7.392-10.368 9.408-15.984l-5.52-1.392Zm-8.832-5.76c-2.448 6.864-6.624 13.68-10.992 18.048 1.008 1.392 2.544 4.56 3.072 5.952 5.232-5.472 10.224-14.112 13.344-22.32l-5.424-1.68Zm-4.656 13.248v31.584h5.52v-37.008l-.048-.048-5.472 5.472Zm65.619-9.264v5.184h16.17v-5.184h-16.17Zm-6.483 18.144v5.184h22.273v-5.184h-22.273Zm20.353-18.144v.72c-.38 6.864-.86 9.696-1.63 10.464-.48.384-.96.432-1.73.432-.96 0-3.12-.048-5.28-.24.91 1.44 1.58 3.696 1.73 5.28 2.54.096 4.89.048 6.24-.096 1.63-.144 2.83-.576 3.89-1.728 1.29-1.44 1.92-4.944 2.4-12.72.09-.72.14-2.112.14-2.112h-5.76Zm-15.26-4.224c-.96 8.016-3.509 14.688-8.405 18.528 1.392.816 3.936 2.688 4.944 3.6 5.041-4.656 8.061-12.096 9.361-21.36l-5.9-.768Zm15.16 22.368v.816c-3.12 9.648-12.19 14.88-23.853 16.704 1.056 1.296 2.352 3.696 2.88 5.232 12.913-2.736 22.853-8.64 26.973-21.408l-3.84-1.536-1 .192h-1.16Zm-12.33 4.656-5.14 1.776c4.71 8.16 12.34 13.728 22.61 16.272.86-1.584 2.5-3.984 3.79-5.232-9.74-1.872-17.52-6.48-21.26-12.816Zm-21.555-22.56c3.072 1.392 6.96 3.696 8.784 5.472l3.36-4.704c-1.92-1.728-5.952-3.792-9.024-4.992l-3.12 4.224Zm-2.88 13.008c3.12 1.344 7.104 3.6 8.928 5.28l3.264-4.752c-2.016-1.632-6.096-3.696-9.168-4.848l-3.024 4.32Zm1.68 23.28 4.944 3.744c2.736-4.608 5.664-10.128 8.064-15.168l-4.32-3.744c-2.784 5.568-6.24 11.52-8.688 15.168Zm47.565-34.896v5.376h42.82v-5.376h-42.82Zm12.96 17.28v4.8h20.88v-4.8h-20.88Zm-4.27-8.112v30.048h5.71v-25.008h18.58v-5.04h-24.29Zm23.14 0v23.76c0 .672-.29.912-1.06.912-.81 0-3.65.048-6.14-.096.77 1.488 1.53 3.936 1.77 5.52 3.89 0 6.63-.048 8.55-.912 1.97-.912 2.49-2.496 2.49-5.328v-23.856h-5.61Zm-16.95-15.024c-2.4 9.36-7.77 19.68-16.32 25.296 1.16 1.104 2.98 3.168 3.8 4.464 9.36-6.528 15.12-17.568 18.48-28.416l-5.96-1.344Zm-1.92 31.056v4.8h20.88v-4.8h-20.88Zm42-30c-1.53 6.624-4.46 13.2-8.25 17.136 1.53.624 4.32 2.064 5.57 2.928 3.6-4.464 6.81-11.52 8.68-18.912l-6-1.152Zm.87 7.104-1.68 5.664h34.46v-5.664h-32.78Zm-8.31 15.264v5.712h43.88v-5.712h-43.88Zm19.44-23.376v45.072h6.15v-45.072h-6.15Zm28.23 9.552v5.328h15.55V237.8h-15.55Zm6.48-9.552c-1.49 9.552-4.13 22.224-6.19 29.808l4.7 2.496c2.26-8.64 5.04-21.504 6.91-31.728l-5.42-.576Zm-3.65 29.04c4.56 2.976 10.08 7.536 12.53 10.848l3.41-4.608c-2.55-3.264-8.26-7.488-12.82-10.32l-3.12 4.08Zm10.7-19.488v1.056c-.91 15.168-5.23 25.776-13.44 30.048 1.16 1.104 2.69 3.168 3.46 4.56 9.6-5.856 14.26-16.464 15.41-35.232l-3.46-.576-1.01.144h-.96Zm5.19-7.008v5.184h15.69v-5.184h-15.69Zm16.08 13.248-.72 5.184h6.91v-5.184h-6.19Zm4.27 0v1.008c-.48 14.928-1.15 20.784-2.3 22.08-.53.576-1.01.672-1.83.672-1.01 0-3.21 0-5.52-.192.91 1.488 1.59 3.792 1.68 5.376 2.5.144 4.9.144 6.43-.096 1.68-.24 2.84-.72 4.04-2.256 1.63-1.968 2.2-8.16 2.83-24.24.05-.672.09-2.352.09-2.352h-5.42Zm-16.08-11.472c-.1 14.16.05 28.416-6.86 37.008 1.44.864 3.26 2.544 4.17 3.84 7.68-9.744 8.16-25.344 8.35-40.848h-5.66Zm9.98-1.776c-.24 6.48-.96 14.832-1.77 20.064l5.23.384c.72-5.28 1.44-13.728 1.82-20.448h-5.28Zm34.76 25.872h4.94l1.25-16.416.24-7.152h-7.92l.24 7.152 1.25 16.416Zm2.49 12.816c2.4 0 4.23-1.776 4.23-4.272 0-2.496-1.83-4.224-4.23-4.224-2.45 0-4.27 1.728-4.27 4.224 0 2.496 1.78 4.272 4.27 4.272Z" fill="#424242"/></svg>