<svg width="1440" height="810" fill="none" xmlns="http://www.w3.org/2000/svg"><path d="M371.628 415.552v5.824h14.248v-5.824h-14.248Zm-2.808-33.228v42.848h6.032V388.2h7.592v36.244h6.344v-42.12H368.82Zm-16.224 4.888v9.932c0 7.644-.936 17.836-10.452 24.7 1.248.884 3.64 3.38 4.42 4.68 10.452-7.592 12.324-20.436 12.324-29.276v-10.036h-6.292Zm-4.264-2.756v5.772h17.836v-5.772h-17.836Zm-5.408 13.988v5.928h24.544v-5.928h-24.544Zm14.404 7.332-3.796 3.536c2.652 3.068 7.748 9.516 10.192 13.364l4.212-5.252c-1.612-1.924-8.476-9.776-10.608-11.648Zm-9.568-27.924c-1.04 5.98-3.016 11.96-5.824 15.704 1.352.832 3.9 2.6 4.992 3.588 2.964-4.368 5.46-11.232 6.812-18.096l-5.98-1.196Zm67.08 31.824v4.16h9.828v-4.16h-9.828ZM411.668 383v4.68h16.64V383h-16.64Zm-1.144 12.428v4.992h32.552v-4.992h-32.552Zm3.952 7.332v4.264h7.904v9.568h-7.904v4.316h12.948V402.76h-12.948Zm-1.872 0v20.124h4.68V402.76h-4.68Zm4.628-24.908v7.54h5.668v-7.54h-5.668Zm-4.004 10.868c.728 2.236 1.196 5.044 1.196 6.916l4.472-1.04c-.052-1.872-.676-4.68-1.508-6.76l-4.16.884Zm21.008-5.876c1.976 2.912 3.796 6.916 4.368 9.62l4.992-2.028c-.728-2.704-2.652-6.552-4.68-9.36l-4.68 1.768Zm-12.012 4.784c-.208 2.132-.728 5.2-1.144 7.228l4.212.832c.572-1.82 1.196-4.576 1.976-7.228l-5.044-.832Zm7.02-9.672c.104 30.784.676 48.308 9.36 48.88 1.924.052 4.264-1.716 5.512-9.204-.884-.572-2.964-2.184-3.796-3.432-.208 3.64-.728 5.928-1.456 5.876-3.9-.416-4.68-17.316-4.264-42.12h-5.356Zm8.528 24.648c-3.016 9.464-9.048 16.64-15.6 20.592 1.092.884 2.704 2.496 3.432 3.484 6.864-4.264 13.312-11.804 16.848-21.528l-4.68-2.548Zm-41.184-8.788v4.68h13.156v-4.68h-13.156Zm.26-14.352v4.732h12.844v-4.732h-12.844Zm-.26 21.424v4.732h13.156v-4.732h-13.156Zm-2.08-14.404v4.94h16.432v-4.94h-16.432Zm4.732 21.632v4.888h5.772v5.928h-5.772v4.888h10.66v-15.704h-10.66Zm-2.808 0v17.888h4.784v-17.888h-4.784Zm58.597-7.774h3.91c1.253 0 2.286-.212 3.098-.635.813-.44 1.414-1.049 1.803-1.828.406-.796.609-1.718.609-2.768 0-.948-.186-1.785-.558-2.513a3.788 3.788 0 0 0-1.651-1.727c-.745-.423-1.684-.635-2.818-.635a5.8 5.8 0 0 0-2.488.534c-.762.355-1.372.854-1.829 1.498-.457.643-.685 1.421-.685 2.336h-7.338c0-2.032.542-3.801 1.625-5.307 1.1-1.507 2.573-2.683 4.418-3.529 1.845-.847 3.876-1.27 6.094-1.27 2.505 0 4.697.406 6.576 1.219 1.879.795 3.343 1.972 4.393 3.529 1.049 1.557 1.574 3.487 1.574 5.789a7.619 7.619 0 0 1-.813 3.403c-.541 1.083-1.32 2.065-2.336 2.945-.998.863-2.217 1.557-3.656 2.082-1.439.508-3.055.762-4.85.762h-5.078v-3.885Zm0 5.56v-3.783h5.078c2.015 0 3.784.229 5.307.686 1.524.457 2.801 1.117 3.834 1.98a8.24 8.24 0 0 1 2.336 3.022c.525 1.151.787 2.429.787 3.834 0 1.726-.33 3.267-.99 4.621a9.673 9.673 0 0 1-2.793 3.402c-1.185.931-2.573 1.642-4.164 2.133-1.591.474-3.326.711-5.205.711-1.558 0-3.089-.212-4.596-.635a13.664 13.664 0 0 1-4.062-1.955 10.05 10.05 0 0 1-2.895-3.301c-.711-1.337-1.066-2.92-1.066-4.748h7.338c0 .948.236 1.794.71 2.539.474.745 1.126 1.329 1.956 1.752.846.423 1.785.635 2.818.635 1.168 0 2.167-.212 2.996-.635.846-.44 1.49-1.049 1.93-1.828.457-.796.685-1.718.685-2.768 0-1.354-.245-2.437-.736-3.25-.491-.829-1.193-1.438-2.108-1.828-.914-.389-1.997-.584-3.25-.584h-3.91Zm45.83-10.682c2.704 0 4.94-2.08 4.94-4.888 0-2.86-2.236-4.94-4.94-4.94-2.756 0-4.992 2.08-4.992 4.94 0 2.808 2.236 4.888 4.992 4.888Zm0 24.804c2.704 0 4.94-2.08 4.94-4.888 0-2.86-2.236-4.94-4.94-4.94-2.756 0-4.992 2.08-4.992 4.94 0 2.808 2.236 4.888 4.992 4.888Zm28.34-39.052v5.46h47.528v-5.46h-47.528Zm13.988-3.12v16.016h18.616v-16.016h-5.668v11.492h-7.488v-11.492h-5.46Zm-6.604 13.676v21.58h5.512v-21.58h-5.512Zm-6.656 3.484v5.252h9.568v-5.252h-9.568Zm-1.196 11.908 1.144 5.356c3.12-1.04 6.448-2.184 9.724-3.38l-.728-4.732c-3.848 1.04-7.436 2.132-10.14 2.756Zm34.216-15.34v14.508c0 4.888.936 6.448 5.408 6.448h3.484c3.328 0 4.68-1.716 5.2-7.488-1.456-.364-3.692-1.196-4.732-2.08-.156 4.004-.364 4.68-1.144 4.68h-1.82c-.676 0-.78-.156-.78-1.612V391.58h-5.616Zm10.036 2.132c-1.924 1.664-4.992 3.64-7.748 4.992.624 1.092 1.404 2.912 1.716 4.056 3.016-1.196 6.708-2.86 9.828-4.68l-3.796-4.368Zm-23.14 7.02h5.148v6.24h-5.148v-6.24Zm-5.044-4.472v15.236h15.496V396.26h-15.496Zm-.728 19.5c.624 3.38 1.04 7.748 1.04 10.452l6.136-.936c-.052-2.6-.676-6.916-1.404-10.192l-5.772.676Zm10.348.104c1.248 3.328 2.444 7.696 2.808 10.348l6.24-1.248c-.468-2.704-1.82-6.916-3.172-10.088l-5.876.988Zm10.452-.312c2.444 3.484 5.356 8.268 6.5 11.18l6.188-2.652c-1.352-2.964-4.472-7.54-6.916-10.816l-5.772 2.288Zm-30.264-1.82c-1.352 3.9-3.9 8.008-6.448 10.244l5.876 2.548c2.808-2.808 5.252-7.124 6.604-11.284l-6.032-1.508Zm47.424-31.46v5.408h45.708v-5.408h-45.708Zm30.264 24.024v.832c-4.16 8.84-16.068 12.948-29.536 14.3.988 1.352 2.132 3.744 2.6 5.304 14.664-2.028 27.456-6.916 33.072-18.668l-3.9-1.976-1.04.208h-1.196Zm-11.7-3.64c-3.172 3.64-8.788 7.488-16.276 10.296 1.3.832 3.12 2.756 4.004 4.056 7.956-3.484 13.884-7.8 18.512-12.948l-6.24-1.404Zm-1.092 3.64-4.524 4.524h19.292v-4.524h-14.768Zm2.184-28.496v24.856h5.98V377.8h-5.98Zm.364 13.052c-4.264 6.708-12.844 12.324-22.152 14.82 1.196 1.144 2.808 3.328 3.588 4.732 9.724-3.172 18.148-9.62 23.14-17.836l-4.576-1.716Zm5.356.052-4.628 1.872c5.2 8.06 13.884 14.768 23.296 18.096.832-1.456 2.548-3.692 3.796-4.836-9.256-2.704-18.044-8.528-22.464-15.132Zm-17.212-3.432c-1.508 4.264-4.732 7.904-8.892 10.14 1.196.78 3.224 2.548 4.108 3.536 4.316-2.808 8.06-7.228 10.036-12.636l-5.252-1.04Zm-1.248 6.864c1.976 1.3 4.628 3.172 5.876 4.368l3.276-3.952c-1.352-1.144-4.056-2.86-6.032-3.952l-3.12 3.536Zm26.988-6.812c-1.196 3.276-3.536 6.344-6.396 8.32 1.196.832 3.172 2.6 4.108 3.588 3.068-2.496 5.876-6.448 7.436-10.608l-5.148-1.3Zm-1.196 6.604c3.38 2.028 7.852 5.148 10.036 7.072l3.276-3.952c-2.288-1.872-6.864-4.732-10.14-6.604l-3.172 3.484Zm-20.54 21.788c8.528 2.964 20.28 7.8 25.948 10.92l5.46-4.316c-6.5-3.224-18.356-7.696-26.364-10.296l-5.044 3.692Zm38.584-27.716v5.772h16.848V388.2h-16.848Zm7.02-10.348c-1.612 10.348-4.472 24.076-6.708 32.292l5.096 2.704c2.444-9.36 5.46-23.296 7.488-34.372l-5.876-.624Zm-3.952 31.46c4.94 3.224 10.92 8.164 13.572 11.752l3.692-4.992c-2.756-3.536-8.944-8.112-13.884-11.18l-3.38 4.42Zm11.596-21.112v1.144c-.988 16.432-5.668 27.924-14.56 32.552 1.248 1.196 2.912 3.432 3.744 4.94 10.4-6.344 15.444-17.836 16.692-38.168l-3.744-.624-1.092.156h-1.04Zm5.616-7.592v5.616h17.004v-5.616h-17.004Zm17.42 14.352-.78 5.616h7.488v-5.616h-6.708Zm4.628 0v1.092c-.52 16.172-1.248 22.516-2.496 23.92-.572.624-1.092.728-1.976.728-1.092 0-3.484 0-5.98-.208.988 1.612 1.716 4.108 1.82 5.824 2.704.156 5.304.156 6.968-.104 1.82-.26 3.068-.78 4.368-2.444 1.768-2.132 2.392-8.84 3.068-26.26.052-.728.104-2.548.104-2.548h-5.876Zm-17.42-12.428c-.104 15.34.052 30.784-7.436 40.092 1.56.936 3.536 2.756 4.524 4.16 8.32-10.556 8.84-27.456 9.048-44.252h-6.136Zm10.816-1.924c-.26 7.02-1.04 16.068-1.924 21.736l5.668.416c.78-5.72 1.56-14.872 1.976-22.152h-5.72Zm24.544 24.7v5.356h35.256v-5.356h-35.256Zm-7.02-18.98v5.616h34.424v-5.616h-34.424Zm15.34 9.568v5.356h23.608v-5.356h-23.608Zm24.544 9.412v.884c-.676 9.464-1.56 13.416-2.6 14.456-.52.468-1.04.572-1.924.572-1.04.052-3.224 0-5.512-.26.988 1.56 1.716 4.004 1.768 5.72 2.704.052 5.2.052 6.656-.104 1.716-.208 2.964-.676 4.212-2.028 1.664-1.768 2.6-6.292 3.432-16.848.104-.78.208-2.392.208-2.392h-6.24Zm-11.076 7.176c1.3 2.184 2.652 5.2 3.12 7.072l4.524-1.664c-.52-1.872-1.924-4.784-3.328-6.916l-4.316 1.508Zm-22.984-32.448c1.82 2.132 3.9 5.148 4.732 7.072l5.98-2.444c-1.04-1.976-3.276-4.836-5.096-6.812l-5.616 2.184Zm7.28 33.852c.832 3.432 1.352 7.904 1.196 10.764l5.356-.728c0-2.912-.52-7.28-1.508-10.66l-5.044.624Zm7.852-.416c1.144 2.964 2.236 6.864 2.548 9.412l5.044-1.3c-.416-2.496-1.56-6.292-2.808-9.204l-4.784 1.092Zm-14.768-1.3c-.884 4.056-2.704 8.268-5.304 10.868l4.784 3.432c3.068-3.224 4.68-8.112 5.72-12.584l-5.2-1.716Zm15.652-34.372c-3.484 13.156-11.024 26.312-24.284 32.968 1.04 1.352 2.6 3.848 3.328 5.408 14.768-7.956 22.724-21.944 27.352-36.868l-6.396-1.508Zm11.388 8.528c-.572 3.484-1.508 7.8-2.288 10.66l5.408.832c.884-3.016 1.872-7.592 2.6-11.492h-5.72Zm3.38 9.568c-.52 3.432-1.404 7.644-2.236 10.556l5.46.728c.832-2.964 1.768-7.488 2.496-11.284h-5.72Zm14.092-14.352v5.46h16.796v-5.46h-16.796Zm.468 14.976v5.512h15.6v-5.512h-15.6Zm15.704-3.588v4.94h32.24v-4.94h-32.24Zm-16.9 20.852 1.3 5.876c4.992-1.352 11.388-3.068 17.316-4.732l-.728-5.564c-6.5 1.716-13.312 3.432-17.888 4.42Zm25.532-9.568h14.976v3.328h-14.976v-3.328Zm-5.46-4.42v12.22h26.208v-12.22h-26.208Zm18.564-16.12h3.328v3.38h-3.328v-3.38Zm-7.28 0h3.276v3.38h-3.276v-3.38Zm-7.124 0h3.172v3.38h-3.172v-3.38Zm-4.992-4.16v11.7h27.924v-11.7h-27.924Zm15.652 30.108-4.472 1.3c2.912 7.072 8.112 12.948 14.976 15.808.832-1.508 2.6-3.744 3.9-4.888-6.604-2.028-11.856-6.76-14.404-12.22Zm9.256 2.236c-1.404 1.352-3.848 3.38-5.564 4.472l3.536 2.808c1.82-.988 4.212-2.548 6.292-4.108l-4.264-3.172Zm-37.648-27.924v31.2l5.616-.936v-30.264h-5.616Zm25.48 24.856c-3.952 4.472-11.7 8.84-18.564 10.972 1.196 1.092 2.808 3.12 3.588 4.42 7.02-2.704 14.82-7.852 19.344-13.416l-4.368-1.976Zm-5.148 7.332v10.556h5.876v-14.508l-5.876 3.952Zm54.288-19.864v30.42h6.292v-30.42h-6.292Zm-13.676 6.5v5.668h33.436v-5.668h-33.436Zm21.164 2.496-4.68 1.716c3.224 6.916 8.58 13.936 14.04 17.836 1.04-1.56 3.016-3.796 4.42-4.992-5.408-3.12-10.92-8.892-13.78-14.56Zm-8.32-.468c-3.016 5.928-8.788 11.856-14.716 14.924 1.352 1.196 3.328 3.432 4.316 4.94 6.136-3.9 11.908-10.816 15.288-18.148l-4.888-1.716Zm-3.484-19.188h15.288v6.968h-15.288V385.6Zm-5.928-5.46v17.94h27.456v-17.94h-27.456Zm-6.812-2.184c-2.756 7.436-7.436 14.82-12.272 19.5 1.04 1.508 2.756 4.94 3.276 6.396 5.772-5.876 11.336-15.184 14.82-24.024l-5.824-1.872Zm-4.992 14.404v34.164h5.928v-40.04l-.052-.052-5.876 5.928Zm45.916 27.924v4.888h47.632v-4.888h-47.632Zm.312-33.592v4.42h47.06v-4.42h-47.06Zm.416 12.584v4.472h46.28v-4.472h-46.28Zm5.512 10.868v12.532h5.772v-7.852h3.952v7.852h5.72v-7.852h4.056v7.852h5.668v-7.852h4.004v7.852h6.136v-12.532h-35.308Zm13.988-32.344v22.62h6.188V377.8h-6.188Zm-14.404 2.704v4.212h30.16v8.372h-30.472v4.212h36.608v-16.796h-36.296Zm-.624 23.192c-.988 2.756-2.964 5.512-5.564 7.02l4.16 3.744c3.224-2.132 5.044-5.46 6.188-8.84l-4.784-1.924Zm9.152 1.04c.52 1.716.936 4.004.988 5.46l5.564-.988c-.156-1.456-.676-3.692-1.3-5.304l-5.252.832Zm10.816.208c.988 1.716 1.976 4.056 2.288 5.564l5.408-1.508c-.416-1.508-1.456-3.744-2.548-5.356l-5.148 1.3Zm11.336.208c2.496 2.496 5.46 6.084 6.812 8.372l4.888-2.288c-1.456-2.236-4.368-5.512-6.968-7.904l-4.732 1.82Zm15.34-6.812v6.812h48.152v-6.812h-48.152Zm70.2.468v5.616h20.592v-5.616h-20.592Zm5.564-19.5v5.46h13.156v-5.46h-13.156Zm8.736 0v2.964h1.144c1.56 7.904 5.304 15.808 11.076 20.592.988-1.56 3.12-4.16 4.524-5.304-5.356-3.692-8.788-10.816-10.088-18.252h-6.656Zm3.9 19.5v1.092c-.312 13.832-.676 18.772-1.56 19.916-.468.572-.884.728-1.664.728-.832 0-2.548 0-4.42-.208.936 1.664 1.612 4.316 1.716 6.136 2.392.104 4.628.052 6.032-.208 1.612-.26 2.704-.78 3.796-2.288 1.404-1.924 1.82-7.696 2.236-22.62.052-.78.052-2.548.052-2.548h-6.188Zm-12.48 2.808c-.52 8.684-1.924 15.912-10.192 20.28 1.3 1.092 2.964 3.328 3.692 4.732 9.412-5.616 11.908-14.248 12.636-25.012h-6.136Zm-4.004-17.316c-1.352 4.888-4.472 11.076-8.268 14.716 1.196.988 3.12 2.86 4.056 4.108 4.42-4.316 8.008-11.232 10.192-17.316l-5.98-1.508Zm-9.568-6.24c-2.652 7.436-7.176 14.82-11.908 19.552 1.092 1.508 2.756 4.94 3.328 6.448 5.668-5.928 11.076-15.288 14.456-24.18l-5.876-1.82Zm-5.044 14.352v34.216h5.98v-40.092l-.052-.052-5.928 5.928Zm60.161.312v24.856c0 6.552 1.88 8.58 8.53 8.58h8.48c6.24 0 7.95-3.068 8.68-12.844-1.77-.416-4.42-1.56-5.82-2.704-.42 8.164-.83 9.88-3.38 9.88h-7.13c-2.44 0-2.86-.364-2.86-2.912v-24.856h-6.5Zm.21-9.88c6.14 2.392 13.42 6.448 17.37 9.776l4.16-5.512c-4.16-3.016-11.34-6.916-17.47-9.1l-4.06 4.836Zm-9.57 13.572c-.67 6.968-2.181 13.78-5.249 18.252l5.829 3.328c3.43-5.096 4.78-13.104 5.56-20.332l-6.14-1.248Zm29.96.832c4.16 5.72 7.8 13.728 8.84 19.084l6.34-3.12c-1.25-5.46-4.99-13.104-9.46-18.824l-5.72 2.86Zm19.86-8.58v6.396h39.83v-6.396h-39.83Zm37.28 0v1.248c-.88 19.188-1.92 27.404-3.74 29.172-.73.676-1.35.884-2.39.884-1.41 0-4.47-.052-7.8-.312 1.19 1.82 2.08 4.628 2.18 6.448 3.17.156 6.4.208 8.37-.104 2.29-.312 3.8-.884 5.31-2.86 2.34-2.756 3.38-10.66 4.42-31.46.1-.884.15-3.016.15-3.016h-6.5Zm-21.32-10.712v10.712c0 10.036-1.45 24.44-17.62 33.228 1.56 1.092 3.9 3.536 4.88 5.044 17.68-9.984 19.35-26.468 19.35-38.272v-10.712h-6.61Z" fill="#424242"/></svg>