<svg width="1440" height="810" fill="none" xmlns="http://www.w3.org/2000/svg"><path fill="#C3DBD8" d="M427 445h196v34H427zM716 313h262v30H716z"/><path d="M432.016 450.584v4.56h43.968v-4.56h-43.968Zm1.344-27.264v4.368h40.896v-4.368H433.36Zm26.256 24.48v11.808c0 .576-.24.768-1.008.816-.768 0-3.552 0-5.856-.096.72 1.392 1.44 3.504 1.632 4.992 3.696 0 6.384-.048 8.352-.768 1.92-.768 2.448-2.16 2.448-4.752v-12h-5.568Zm-8.544-27.552v25.872h5.664v-25.872h-5.664Zm-11.376 36.528c2.64 1.824 5.808 4.56 7.248 6.432l4.224-3.648c-1.536-1.872-4.896-4.416-7.536-6.096l-3.936 3.312Zm2.88-18.816h23.04v1.824h-23.04v-1.824Zm0-5.088h23.04v1.824h-23.04v-1.824Zm-5.424-3.456v13.872h34.128v-13.872h-34.128Zm23.616 14.64c3.504 1.488 7.728 4.128 9.984 6.048l3.456-2.928c-2.304-1.776-6.528-4.272-10.08-5.712l-3.36 2.592Zm-26.688 1.008.192 4.128c9.216-.096 22.944-.336 35.808-.72l.24-3.552c-13.248.144-27.408.192-36.24.144Zm49.632-22.56v14.064c0 7.584-.384 18.336-4.8 25.68 1.392.528 3.888 1.872 4.944 2.784 4.704-7.872 5.472-20.208 5.472-28.464v-14.064h-5.616Zm3.888 0v3.696h28.56v1.968H487.6v3.696h34.176v-9.36H487.6Zm15.648 9.936v6.864h5.328v-6.864h-5.328Zm-3.024 17.616v11.904h4.848v-11.904h-4.848Zm-8.88-16.992v2.352h10.08v-2.352h-10.08Zm4.128 15.072v3.216h23.616v-3.216h-23.616Zm-4.176-11.424v2.352h10.128v-2.352h-10.128Zm19.152-3.648v2.352h10.512v-2.352h-10.512Zm-.048 3.648v2.352h10.608v-2.352H510.4Zm1.776 6h4.128v1.824h-4.128v-1.824Zm-8.448 0h4.08v1.824h-4.08v-1.824Zm-8.256 0h3.936v1.824h-3.936v-1.824Zm-4.56-2.304v6.432h30.144v-6.432h-30.144Zm26.256 7.728v.768c-.288 8.256-.72 11.184-1.248 12-.336.432-.624.48-1.152.48-.576 0-1.488 0-2.688-.144.624 1.104 1.056 2.832 1.152 4.08 1.68.048 3.312 0 4.32-.144 1.056-.144 2.016-.528 2.832-1.536 1.056-1.296 1.536-4.752 1.872-13.68.048-.624.096-1.824.096-1.824h-5.184Zm-20.496 6.768h11.952v1.584h-11.952v-1.584Zm-4.128-2.256v6.096h20.448v-6.096h-20.448Zm3.36-7.344c-1.68 2.592-4.752 5.472-9.12 7.632 1.152.624 2.784 2.208 3.6 3.264 4.752-2.784 8.064-6.144 10.608-9.936l-5.088-.96Zm-6.288 15.264.336 3.696a978.347 978.347 0 0 0 21.216-.96l.096-3.264c-7.968.24-16.176.432-21.648.528Zm17.952-1.248c1.344 1.584 2.784 3.84 3.312 5.28l3.648-1.488c-.576-1.536-2.112-3.648-3.552-5.184l-3.408 1.392Zm48.048-39.072v33.888h5.424v-33.888h-5.424Zm-14.208 19.296 2.16 5.088 24.816-10.752-2.112-4.896-24.864 10.56Zm4.752-14.64v31.056c0 6.672 1.824 8.4 8.4 8.4h10.272c5.616 0 7.344-2.256 8.064-9.072-1.536-.288-3.792-1.2-5.04-2.064-.384 4.944-.864 6-3.504 6h-9.312c-2.976 0-3.408-.384-3.408-3.216v-31.104h-5.472Zm19.008 4.704c0 10.608 0 15.84-.192 16.8-.144.864-.432 1.008-1.008 1.008-.432 0-1.536 0-2.352-.048.624 1.2 1.056 3.36 1.248 4.8 1.536 0 3.6 0 4.992-.672 1.488-.624 2.304-1.776 2.496-3.984.192-1.968.288-7.776.288-16.944l.24-.96-4.032-1.44-1.008.72-1.008.72h.336Zm-37.536 1.776v5.424h15.84v-5.424h-15.84Zm5.568-10.464v31.824h5.376V420.92H533.2Zm-6.24 31.872 2.304 5.76c4.464-2.016 9.984-4.608 15.072-7.2l-1.296-5.088c-5.856 2.496-12.096 5.088-16.08 6.528ZM592.816 431h9.888v1.92h-9.888V431Zm-4.56-2.88v7.68h19.296v-7.68h-19.296Zm2.736 16.8h13.584v9.216h-13.584v-9.216Zm-4.368-3.12v15.504h22.608V441.8h-22.608Zm9.408 6.912h3.408v1.632h-3.408v-1.632Zm-3.072-2.4v6.432h9.792v-6.432h-9.792Zm-8.592-9.072v3.12h27.312v-3.12h-27.312Zm10.944-3.312v4.704h4.848v-4.704h-4.848Zm-17.904-12.048v43.44h5.376v-38.736h30.336v38.736h5.616v-43.44h-41.328Zm3.408 37.008v4.752h35.136v-4.752h-35.136Zm44.352-19.584v10.464h5.328v-5.808h31.056v5.808h5.616v-10.464h-42Zm13.824-18.432v16.608h14.256v-16.608h-5.232v12.384h-4.032v-12.384h-4.992Zm-14.4 4.608v4.464h42.96v-4.464h-42.96Zm31.344-4.704v11.568c0 4.272.864 5.616 4.8 5.616h2.928c2.88 0 4.128-1.344 4.608-5.856-1.392-.288-3.36-1.056-4.368-1.776-.096 2.832-.24 3.36-.864 3.36h-1.296c-.576 0-.672-.144-.672-1.344v-11.568h-5.136Zm-24.816 0v6.48c0 2.736-.768 6.24-6.192 8.112 1.104.864 2.544 2.544 3.216 3.648 6.528-2.784 8.16-7.488 8.16-11.76v-6.48h-5.184Zm11.808 22.416v22.128h5.664v-22.128h-5.664Zm-13.056 4.368v14.928h5.568V452.12h23.664v-4.56h-29.232Zm27.024 0v9.648c0 .528-.192.672-.912.672-.624 0-3.216 0-5.328-.096.72 1.392 1.536 3.504 1.776 4.992 3.408 0 5.904-.048 7.776-.816 1.824-.768 2.352-2.208 2.352-4.656v-9.744h-5.664Zm34.752-27.168c-1.632 6.672-4.56 13.296-8.208 17.424 1.296.864 3.6 2.736 4.608 3.744 3.84-4.752 7.248-12.288 9.264-19.872l-5.664-1.296Zm-1.344 21.36c-1.104 5.328-3.168 10.8-5.856 14.16 1.344.72 3.792 2.208 4.896 3.12 2.688-3.888 5.184-10.032 6.528-16.128l-5.568-1.152Zm2.4-12.912-2.16 5.328h21.84v-5.328h-19.68Zm5.52 2.352v27.648c0 .624-.24.768-.864.768-.672 0-2.688.048-4.704-.048.816 1.584 1.68 4.128 1.968 5.808 3.072 0 5.424-.24 7.104-1.152 1.728-.96 2.208-2.544 2.208-5.328v-27.696h-5.712ZM705.616 443c2.352 4.944 4.368 11.568 4.896 15.888l5.52-1.92c-.672-4.368-2.736-10.752-5.232-15.696L705.616 443Zm5.232-14.16v.768c-.336 3.36-.864 7.632-1.296 10.224l4.944.864c.624-2.88 1.488-7.344 2.064-11.28l-4.032-.72-.912.144h-.768Zm-29.472-8.4c-2.448 6.864-6.624 13.68-10.992 18.048 1.008 1.392 2.544 4.56 3.072 5.952 5.232-5.472 10.224-14.112 13.344-22.32l-5.424-1.68Zm-4.656 13.248v31.584h5.52v-37.008l-.048-.048-5.472 5.472Zm43.248-10.416v5.136h24.48v-5.136h-24.48Zm1.44 22.848v5.136h21.552v-5.136h-21.552Zm7.968-4.656v18.96l5.712-.864v-18.096h-5.712Zm-9.936 16.992.864 5.76a2732.83 2732.83 0 0 0 24.384-3.168l-.144-5.376c-8.976 1.056-18.72 2.208-25.104 2.784Zm.432-22.8.336 5.328c5.76-.24 13.776-.576 21.408-1.008l.144-4.944c-8.016.288-16.368.528-21.888.624Zm14.736-4.176c2.64 3.408 5.568 8.064 6.672 11.04l4.56-2.592c-1.2-3.024-4.272-7.44-6.96-10.704l-4.272 2.256Zm-7.824-5.088c-.768 3.552-2.352 8.496-3.744 11.664l4.848 1.296c1.584-2.976 3.456-7.584 5.136-11.664l-6.24-1.296Zm19.44-.288v27.168h5.52v-27.168h-5.52Zm10.944-4.512v36.816c0 .864-.288 1.104-1.152 1.152-.96 0-3.888.048-6.768-.096.816 1.632 1.632 4.224 1.872 5.856 4.08 0 7.2-.192 9.12-1.104 1.92-.912 2.544-2.496 2.544-5.76v-36.864h-5.616Zm24.528 8.016v5.04h12.288v-5.04h-12.288Zm18.432 25.056v5.088h8.304v-5.088h-8.304Zm-1.824-29.04v37.872h4.56v-32.784h3.504v32.4h4.8v-37.488h-12.864Zm-6.144 3.984v1.152c-.48 19.92-.96 26.64-1.92 28.08-.432.72-.768.864-1.392.864-.72 0-1.824 0-3.12-.144.768 1.44 1.248 3.6 1.296 5.088 1.728.096 3.312.048 4.464-.192 1.344-.288 2.208-.768 3.12-2.256 1.44-2.064 1.872-9.36 2.4-30.24.048-.672.048-2.352.048-2.352h-4.896Zm-7.536-9.168c-.048 19.632.288 33.312-6.864 41.424 1.2.768 2.928 2.496 3.696 3.744 7.968-9.072 7.968-24.336 8.064-45.168h-4.896Zm-12.96 3.024v4.56h4.416v21.312h-4.416v4.56h8.832v-30.432h-8.832Zm-2.736 0v34.56h4.368v-34.56h-4.368Zm77.856-2.88v44.688h5.568v-44.688h-5.568Zm-15.168 7.104v5.232h10.128v-5.232h-10.128Zm17.952 0v5.232h10.464v-5.232h-10.464Zm.336 9.888v5.136h9.36v-5.136h-9.36Zm-.288 9.888v5.184h10.944v-5.184h-10.944Zm-17.664-9.888v5.136h9.024v-5.136h-9.024Zm-2.496 12.432 2.208 5.232c4.224-1.584 9.408-3.552 14.352-5.568l-.768-4.32c-5.76 1.776-11.904 3.648-15.792 4.656Zm9.168-29.328v21.84c0 6.96-.96 14.784-8.496 19.248 1.248.816 3.312 2.688 4.176 3.744 8.4-5.04 9.792-14.064 9.792-22.944V420.68h-5.472Zm-18.672 3.984v5.232h5.472v16.512h-5.472v5.184h10.608v-26.928h-10.608Zm-2.976 0v31.104h5.088v-31.104h-5.088Zm55.536 5.28v3.552h15.36v-3.552h-15.36Zm3.168 5.232v2.784h8.832v-2.784h-8.832Zm0 4.608v2.832h8.832v-2.832h-8.832Zm-3.648 10.224v3.216h8.784v-3.216h-8.784Zm.048 5.088v3.12h8.688v-3.12h-8.688Zm16.128-24.144v3.888h19.104v-3.888h-19.104Zm-.72 16.944v3.792h20.832v-3.792h-20.832Zm7.584-19.104v10.176h4.8v-10.176h-4.8Zm-20.88 3.12v14.304h4.032v-14.304h-4.032Zm.48 19.536v10.224h3.552v-10.224h-3.552Zm7.104-19.584v33.456h4.272v-33.456h-4.272Zm19.776 8.064h1.968v3.168h-1.968v-3.168Zm-4.896 0h1.92v3.168h-1.92v-3.168Zm-4.752 0h1.776v3.168h-1.776v-3.168Zm-3.456-3.216v9.6h18.576v-9.6h-18.576Zm-16.56 8.112.288 3.936c3.744-.24 8.304-.528 12.912-.912l.048-3.6c-4.944.24-9.792.48-13.248.576Zm-1.152 15.84.384 3.552a699.14 699.14 0 0 0 9.84-1.008l-.096-3.312c-3.84.288-7.392.576-10.128.768Zm22.032-5.952v5.712c0 3.552.72 4.608 4.032 4.608h2.832c2.4 0 3.456-1.056 3.84-5.232-1.104-.24-2.736-.816-3.504-1.44-.096 2.784-.24 3.072-.912 3.072h-1.584c-.576 0-.672-.096-.672-1.008v-5.712h-4.032Zm-4.56-.048c-.288 2.736-.96 5.664-2.112 7.536l3.504 1.632c1.344-1.968 1.92-5.184 2.208-8.112l-3.6-1.056Zm13.536.864c1.584 2.592 2.976 6 3.312 8.208l3.84-1.44c-.384-2.256-1.872-5.568-3.504-8.112l-3.648 1.344Zm-8.256-2.688c2.064 1.056 4.56 2.688 5.712 3.936l2.784-2.832c-1.248-1.2-3.84-2.736-5.904-3.648l-2.592 2.544Zm-8.976-32.592v6.096h6v-6.096h-6Zm-14.544 3.216v4.416h37.92v-4.416h-37.92Zm-3.6 0v14.88c0 7.056-.24 17.088-3.408 23.952 1.152.528 3.456 2.16 4.368 3.12 3.6-7.488 4.176-19.344 4.176-27.12v-14.832h-5.136Zm68.688 9.456H948.4v2.64h-13.344v-2.64Zm0-6.432H948.4v2.592h-13.344v-2.592Zm-5.184-4.08v17.28h23.952v-17.28h-23.952Zm3.6 16.032c-1.68 4.176-5.088 8.688-10.656 11.952 1.152.768 2.88 2.736 3.6 4.032 6.384-4.128 10.176-9.408 12.624-15.072l-5.568-.912Zm1.392 3.936-3.264 4.704h20.304v-4.704h-17.04Zm15.072 0v.912c-.336 11.856-.768 16.08-1.536 17.088-.432.528-.816.672-1.44.672-.768 0-2.208-.048-3.792-.24.624 1.248 1.2 3.168 1.248 4.464 2.16.048 4.08.048 5.328-.144 1.344-.192 2.4-.624 3.312-1.824 1.248-1.632 1.776-6.24 2.208-18.816.048-.672.048-2.112.048-2.112h-5.376Zm-20.304 5.52v8.976c0 4.464 1.056 5.856 5.952 5.856h5.904c3.456 0 4.8-1.152 5.424-5.568-1.392-.288-3.408-1.056-4.368-1.824-.144 2.496-.384 2.88-1.584 2.88h-4.704c-1.584 0-1.824-.192-1.824-1.44v-8.88h-4.8Zm12 .576c-2.208 1.488-6.096 3.072-9.6 4.08.576.96 1.296 2.544 1.536 3.456 3.936-.96 8.496-2.4 11.952-4.224l-3.888-3.312Zm-25.344-23.424v5.184h5.568v16.944h-5.568v5.28h10.416v-27.408h-10.416Zm-3.216 0v31.392h4.992v-31.392h-4.992Zm47.088-1.92v5.04h43.87v-5.04h-43.87Zm12.912-2.88v14.784h17.184v-14.784h-5.232v10.608h-6.912v-10.608h-5.04Zm-6.096 12.624v19.92h5.088v-19.92h-5.088Zm-6.144 3.216v4.848h8.832v-4.848h-8.832Zm-1.104 10.992 1.056 4.944c2.88-.96 5.952-2.016 8.976-3.12l-.672-4.368c-3.552.96-6.864 1.968-9.36 2.544Zm31.584-14.16v13.392c0 4.512.864 5.952 4.992 5.952h3.216c3.07 0 4.32-1.584 4.8-6.912-1.34-.336-3.41-1.104-4.368-1.92-.144 3.696-.336 4.32-1.056 4.32h-1.68c-.624 0-.72-.144-.72-1.488V432.92h-5.184Zm9.268 1.968c-1.78 1.536-4.612 3.36-7.156 4.608.576 1.008 1.296 2.688 1.584 3.744 2.784-1.104 6.192-2.64 9.072-4.32l-3.5-4.032Zm-21.364 6.48h4.752v5.76h-4.752v-5.76Zm-4.656-4.128v14.064h14.304V437.24H974.56Zm-.672 18c.576 3.12.96 7.152.96 9.648l5.664-.864c-.048-2.4-.624-6.384-1.296-9.408l-5.328.624Zm9.552.096c1.152 3.072 2.256 7.104 2.592 9.552l5.76-1.152c-.432-2.496-1.68-6.384-2.928-9.312l-5.424.912Zm9.648-.288c2.256 3.216 4.944 7.632 6 10.32l5.712-2.448c-1.25-2.736-4.13-6.96-6.384-9.984l-5.328 2.112Zm-27.936-1.68c-1.248 3.6-3.6 7.392-5.952 9.456l5.424 2.352c2.592-2.592 4.848-6.576 6.096-10.416l-5.568-1.392Zm43.778-29.04v4.992h42.19v-4.992h-42.19Zm27.93 22.176v.768c-3.84 8.16-14.83 11.952-27.26 13.2.91 1.248 1.97 3.456 2.4 4.896 13.54-1.872 25.34-6.384 30.53-17.232l-3.6-1.824-.96.192h-1.11Zm-10.8-3.36c-2.92 3.36-8.11 6.912-15.02 9.504 1.2.768 2.88 2.544 3.7 3.744 7.34-3.216 12.81-7.2 17.08-11.952l-5.76-1.296Zm-1 3.36-4.18 4.176h17.81v-4.176h-13.63Zm2.01-26.304v22.944h5.52V420.2h-5.52Zm.34 12.048c-3.94 6.192-11.86 11.376-20.45 13.68 1.1 1.056 2.59 3.072 3.31 4.368 8.98-2.928 16.75-8.88 21.36-16.464l-4.22-1.584Zm4.94.048-4.27 1.728c4.8 7.44 12.82 13.632 21.5 16.704.77-1.344 2.36-3.408 3.51-4.464-8.55-2.496-16.66-7.872-20.74-13.968Zm-15.89-3.168c-1.39 3.936-4.36 7.296-8.2 9.36 1.1.72 2.97 2.352 3.79 3.264 3.98-2.592 7.44-6.672 9.26-11.664l-4.85-.96Zm-1.15 6.336c1.83 1.2 4.27 2.928 5.43 4.032l3.02-3.648c-1.25-1.056-3.74-2.64-5.57-3.648l-2.88 3.264Zm24.91-6.288c-1.1 3.024-3.26 5.856-5.9 7.68 1.1.768 2.93 2.4 3.79 3.312 2.83-2.304 5.43-5.952 6.87-9.792l-4.76-1.2Zm-1.1 6.096c3.12 1.872 7.25 4.752 9.26 6.528l3.03-3.648c-2.11-1.728-6.34-4.368-9.36-6.096l-2.93 3.216Zm-18.96 20.112c7.87 2.736 18.72 7.2 23.95 10.08l5.04-3.984c-6-2.976-16.94-7.104-24.33-9.504l-4.66 3.408Zm35.62-25.584v5.328h15.55V429.8h-15.55Zm6.48-9.552c-1.49 9.552-4.13 22.224-6.2 29.808l4.71 2.496c2.25-8.64 5.04-21.504 6.91-31.728l-5.42-.576Zm-3.65 29.04c4.56 2.976 10.08 7.536 12.53 10.848l3.4-4.608c-2.54-3.264-8.25-7.488-12.81-10.32l-3.12 4.08Zm10.7-19.488v1.056c-.91 15.168-5.23 25.776-13.44 30.048 1.15 1.104 2.69 3.168 3.46 4.56 9.6-5.856 14.25-16.464 15.41-35.232l-3.46-.576-1.01.144h-.96Zm5.19-7.008v5.184h15.69v-5.184h-15.69Zm16.08 13.248-.72 5.184h6.91v-5.184h-6.19Zm4.27 0v1.008c-.48 14.928-1.15 20.784-2.31 22.08-.52.576-1 .672-1.82.672-1.01 0-3.22 0-5.52-.192.91 1.488 1.58 3.792 1.68 5.376 2.5.144 4.9.144 6.43-.096 1.68-.24 2.83-.72 4.03-2.256 1.64-1.968 2.21-8.16 2.84-24.24.04-.672.09-2.352.09-2.352h-5.42Zm-16.08-11.472c-.1 14.16.05 28.416-6.87 37.008 1.44.864 3.27 2.544 4.18 3.84 7.68-9.744 8.16-25.344 8.35-40.848h-5.66Zm9.98-1.776c-.24 6.48-.96 14.832-1.77 20.064l5.23.384c.72-5.28 1.44-13.728 1.82-20.448h-5.28ZM405.109 309.141v1.617c0 2.594-.351 4.922-1.054 6.984-.703 2.063-1.696 3.82-2.977 5.274a12.893 12.893 0 0 1-4.594 3.304c-1.765.766-3.726 1.149-5.882 1.149-2.141 0-4.102-.383-5.883-1.149a13.18 13.18 0 0 1-4.594-3.304c-1.297-1.454-2.305-3.211-3.023-5.274-.704-2.062-1.055-4.39-1.055-6.984v-1.617c0-2.61.351-4.938 1.055-6.985.703-2.062 1.695-3.82 2.976-5.273a13.044 13.044 0 0 1 4.594-3.328c1.781-.766 3.742-1.149 5.883-1.149 2.156 0 4.117.383 5.883 1.149a12.768 12.768 0 0 1 4.593 3.328c1.297 1.453 2.297 3.211 3 5.273.719 2.047 1.078 4.375 1.078 6.985Zm-7.101 1.617v-1.664c0-1.813-.164-3.406-.492-4.782-.328-1.374-.813-2.531-1.454-3.468-.64-.938-1.421-1.641-2.343-2.11-.922-.484-1.977-.726-3.164-.726-1.188 0-2.243.242-3.164.726-.907.469-1.68 1.172-2.321 2.11-.625.937-1.101 2.094-1.429 3.468-.329 1.376-.493 2.969-.493 4.782v1.664c0 1.797.164 3.39.493 4.781.328 1.375.812 2.539 1.453 3.492.64.938 1.422 1.649 2.344 2.133.921.484 1.976.727 3.164.727 1.187 0 2.242-.243 3.164-.727.922-.484 1.695-1.195 2.32-2.133.625-.953 1.102-2.117 1.43-3.492.328-1.391.492-2.984.492-4.781Zm25.43 10.523v-11.297c0-.812-.133-1.507-.399-2.086a2.971 2.971 0 0 0-1.242-1.382c-.547-.328-1.258-.493-2.133-.493-.75 0-1.398.133-1.945.399-.547.25-.969.617-1.266 1.101-.297.469-.445 1.024-.445 1.665h-6.75c0-1.079.25-2.102.75-3.071.5-.969 1.226-1.82 2.18-2.555.953-.75 2.085-1.335 3.398-1.757 1.328-.422 2.812-.633 4.453-.633 1.969 0 3.719.328 5.25.984 1.531.656 2.734 1.641 3.609 2.953.891 1.313 1.336 2.953 1.336 4.922v10.852c0 1.39.086 2.531.258 3.422.172.875.422 1.64.75 2.297V327h-6.82c-.328-.688-.578-1.547-.75-2.578a21.286 21.286 0 0 1-.234-3.141Zm.89-9.726.047 3.82h-3.773c-.891 0-1.664.102-2.321.305-.656.203-1.195.492-1.617.867a3.345 3.345 0 0 0-.937 1.265 4.373 4.373 0 0 0-.282 1.594c0 .578.133 1.102.399 1.571.265.453.648.812 1.148 1.078.5.25 1.086.375 1.758.375 1.016 0 1.898-.203 2.648-.61.75-.406 1.329-.906 1.735-1.5.422-.593.64-1.156.656-1.687l1.781 2.859c-.25.641-.593 1.305-1.031 1.992a9.321 9.321 0 0 1-1.617 1.946c-.656.593-1.445 1.086-2.367 1.476-.922.375-2.016.563-3.282.563-1.609 0-3.07-.321-4.382-.961-1.297-.656-2.329-1.555-3.094-2.696-.75-1.156-1.125-2.468-1.125-3.937 0-1.328.25-2.508.75-3.539a6.912 6.912 0 0 1 2.203-2.602c.984-.718 2.211-1.257 3.68-1.617 1.468-.375 3.172-.562 5.109-.562h3.914Zm23.531-9.914v4.781h-14.765v-4.781h14.765Zm-11.109-6.258h6.75v23.976c0 .735.094 1.297.281 1.688.203.391.5.664.891.82.39.141.883.211 1.476.211.422 0 .797-.016 1.125-.047.344-.047.633-.093.868-.14l.023 4.968a12.69 12.69 0 0 1-1.875.446c-.672.109-1.414.164-2.227.164-1.484 0-2.781-.242-3.89-.727-1.094-.5-1.938-1.297-2.531-2.39-.594-1.094-.891-2.532-.891-4.313v-24.656ZM458.828 291v36h-6.773v-36h6.773Zm13.102 33.141 6.726-22.5h7.242l-10.195 29.179a15.733 15.733 0 0 1-.891 2.063 8.363 8.363 0 0 1-1.476 2.086c-.609.672-1.383 1.219-2.32 1.64-.922.422-2.055.633-3.399.633-.64 0-1.164-.039-1.57-.117a27.103 27.103 0 0 1-1.453-.328v-4.945h.539c.187.015.367.023.539.023.89 0 1.617-.102 2.18-.305.562-.203 1.015-.515 1.359-.937.344-.406.617-.938.82-1.594l1.899-4.898Zm-2.813-22.5 5.508 18.375.961 7.148-4.594.492-9.117-26.015h7.242Zm38.068-11.121v5.232h23.136v-5.232h-23.136Zm-2.88 9.312v5.328h28.128v-5.328h-28.128Zm1.056 9.648v5.328h26.592v-5.328h-26.592Zm10.368-23.28v16.56h5.712V286.2h-5.712Zm5.712 18.384v20.208c0 .672-.24.816-1.008.816-.816.048-3.456.048-5.808-.048.768 1.584 1.536 4.032 1.728 5.712 3.648 0 6.384-.144 8.304-1.008s2.496-2.448 2.496-5.376v-20.304h-5.712Zm-14.4 12.816c2.064 2.304 4.512 5.472 5.52 7.584l4.56-2.976c-1.152-2.112-3.696-5.136-5.808-7.248l-4.272 2.64Zm-19.824-5.568 1.392 5.52c5.088-1.488 11.664-3.456 17.712-5.376l-.768-5.04c-6.624 1.872-13.632 3.84-18.336 4.896Zm8.64-25.584v45.072h5.28v-45.072h-5.28Zm-6.336 2.496c-.432 5.664-1.248 11.664-2.784 15.552 1.152.576 3.216 1.872 4.08 2.592 1.728-4.32 2.88-10.992 3.504-17.328l-4.8-.816Zm1.296 6.576-1.056 5.472h15.36v-5.472h-14.304Zm70.608-3.216v27.168h5.616v-27.168h-5.616Zm11.328-4.896v37.104c0 .912-.384 1.2-1.296 1.2-1.008.048-4.08.048-7.248-.096.816 1.632 1.728 4.32 2.016 5.952 4.416 0 7.584-.192 9.6-1.104 1.968-.96 2.64-2.544 2.64-5.904v-37.152h-5.712Zm-28.32 21.984v5.04h11.04v-5.04h-11.04Zm8.496 0v.864c-.384 10.704-.816 14.784-1.632 15.744-.432.48-.912.576-1.632.576-.864 0-2.736 0-4.752-.192.864 1.344 1.44 3.456 1.536 4.992 2.304.048 4.512.048 5.808-.144 1.536-.24 2.64-.624 3.6-1.872 1.344-1.632 1.824-6.24 2.304-17.856.048-.672.096-2.112.096-2.112h-5.328Zm-9.744-15.648h9.072v6.576h-9.072v-6.576Zm-5.184-5.04v16.752h19.776v-16.752h-19.776Zm4.848 15.168c-.336 8.448-1.008 17.952-7.776 23.52 1.392.912 3.024 2.736 3.888 4.176 7.776-6.624 9.024-17.52 9.552-27.696h-5.664Zm49.968-8.112v3.888h11.136v-3.888h-11.136Zm-.144 30.048v4.128h14.256v-4.128h-14.256Zm-2.496-18.672v3.408h15.36v-3.408h-15.36Zm-2.304-5.76v6.96c0 5.472-.528 13.2-4.8 18.72 1.008.624 3.072 2.496 3.84 3.504 4.896-6.192 5.856-15.792 5.856-22.128v-7.056h-4.896Zm2.784 0v3.984h12v7.056h-12.144v3.984h17.28v-15.024h-17.136Zm-.048 16.896v13.2h4.848V322.2h8.112v8.88h4.992v-13.008h-17.952Zm20.064-25.968v27.168h5.424v-27.168h-5.424Zm10.512-4.896v37.2c0 .816-.336 1.104-1.2 1.104-.912.048-3.744.048-6.624-.096.816 1.632 1.68 4.272 1.872 5.856 4.224.048 7.152-.144 9.024-1.104 1.872-.912 2.496-2.496 2.496-5.76v-37.2h-5.568Zm-26.208-.336c-2.304 3.888-6.384 8.4-12.144 11.712 1.104.864 2.784 2.832 3.504 4.128 6.528-4.224 10.752-9.168 13.632-13.056v-1.632h-1.776v-1.152h-3.216Zm1.248 0v4.032h1.008c3.12 2.304 7.248 6.432 9.264 8.832l3.696-4.224c-2.352-2.496-6.72-6.096-10.08-8.64h-3.888Zm48.72 8.736v4.416h31.392v-4.416h-31.392Zm2.784 12.912v4.128h25.392v-4.128h-25.392Zm-2.112 6.336v4.56h29.664v-4.56h-29.664Zm11.472-28.224v36.672h5.616v-36.672h-5.616Zm-8.832 2.688v4.368h18.816v8.352h-19.056v4.368h24.72V289.32h-24.48Zm-16.752-.432v5.04h10.128v-5.04h-10.128Zm8.16 0v.624c-1.68 4.224-5.136 12.144-8.064 18.048l5.232 1.344c2.784-6 6.144-13.488 8.304-19.152l-3.888-1.056-.864.192h-.72Zm-3.264 13.584-.192 5.04h7.2v-5.04h-7.008Zm4.704 0v1.056c-.912 12.192-4.08 19.968-10.032 24.096 1.248.72 3.456 2.784 4.32 3.888 6.24-4.704 9.936-13.92 11.136-28.416l-3.36-.72-.96.096h-1.104Zm-4.416 7.776-4.512 1.584c4.992 15.504 14.448 18.336 28.368 18.336h14.16c.336-1.68 1.344-4.32 2.208-5.616-3.504.144-13.296.144-16.224.144-11.328-.048-20.112-2.016-24-14.448ZM728.822 288.152v30.672h5.664v-25.488h10.224v-5.184h-15.888Zm48.358 22.989v1.617c0 2.594-.352 4.922-1.055 6.984-.703 2.063-1.695 3.82-2.977 5.274a12.898 12.898 0 0 1-4.593 3.304c-1.766.766-3.727 1.149-5.883 1.149-2.141 0-4.102-.383-5.883-1.149a13.18 13.18 0 0 1-4.594-3.304c-1.297-1.454-2.304-3.211-3.023-5.274-.703-2.062-1.055-4.39-1.055-6.984v-1.617c0-2.61.352-4.938 1.055-6.985.703-2.062 1.695-3.82 2.976-5.273a13.053 13.053 0 0 1 4.594-3.328c1.781-.766 3.742-1.149 5.883-1.149 2.156 0 4.117.383 5.883 1.149a12.78 12.78 0 0 1 4.594 3.328c1.296 1.453 2.296 3.211 3 5.273.718 2.047 1.078 4.375 1.078 6.985Zm-7.102 1.617v-1.664c0-1.813-.164-3.406-.492-4.782-.328-1.374-.813-2.531-1.453-3.468-.641-.938-1.422-1.641-2.344-2.11-.922-.484-1.977-.726-3.164-.726s-2.242.242-3.164.726c-.906.469-1.68 1.172-2.32 2.11-.625.937-1.102 2.094-1.43 3.468-.328 1.376-.492 2.969-.492 4.782v1.664c0 1.797.164 3.39.492 4.781.328 1.375.812 2.539 1.453 3.492.641.938 1.422 1.649 2.344 2.133.922.484 1.976.727 3.164.727 1.187 0 2.242-.243 3.164-.727.922-.484 1.695-1.195 2.32-2.133.625-.953 1.102-2.117 1.43-3.492.328-1.391.492-2.984.492-4.781Zm25.43 10.523v-11.297c0-.812-.133-1.507-.399-2.086a2.96 2.96 0 0 0-1.242-1.382c-.547-.328-1.258-.493-2.133-.493-.75 0-1.398.133-1.945.399-.547.25-.969.617-1.266 1.101-.296.469-.445 1.024-.445 1.665h-6.75c0-1.079.25-2.102.75-3.071.5-.969 1.227-1.82 2.18-2.555.953-.75 2.086-1.335 3.398-1.757 1.328-.422 2.813-.633 4.453-.633 1.969 0 3.719.328 5.25.984 1.532.656 2.735 1.641 3.61 2.953.89 1.313 1.336 2.953 1.336 4.922v10.852c0 1.39.086 2.531.257 3.422.172.875.422 1.64.75 2.297V329h-6.82c-.328-.688-.578-1.547-.75-2.578a21.286 21.286 0 0 1-.234-3.141Zm.89-9.726.047 3.82h-3.773c-.891 0-1.664.102-2.32.305-.657.203-1.196.492-1.618.867a3.345 3.345 0 0 0-.937 1.265 4.373 4.373 0 0 0-.281 1.594c0 .578.132 1.102.398 1.571.266.453.648.812 1.148 1.078.5.25 1.086.375 1.758.375 1.016 0 1.899-.203 2.649-.61.75-.406 1.328-.906 1.734-1.5.422-.593.641-1.156.656-1.687l1.782 2.859c-.25.641-.594 1.305-1.032 1.992a9.29 9.29 0 0 1-1.617 1.946c-.656.593-1.445 1.086-2.367 1.476-.922.375-2.016.563-3.281.563-1.61 0-3.071-.321-4.383-.961-1.297-.656-2.328-1.555-3.094-2.696-.75-1.156-1.125-2.468-1.125-3.937 0-1.328.25-2.508.75-3.539.5-1.031 1.235-1.898 2.203-2.602.985-.718 2.211-1.257 3.68-1.617 1.469-.375 3.172-.562 5.109-.562h3.914Zm23.532-9.914v4.781h-14.766v-4.781h14.766Zm-11.11-6.258h6.75v23.976c0 .735.094 1.297.282 1.688.203.391.5.664.89.82.391.141.883.211 1.477.211.422 0 .797-.016 1.125-.047.344-.047.633-.093.867-.14l.023 4.968a12.69 12.69 0 0 1-1.875.446c-.671.109-1.414.164-2.226.164-1.485 0-2.781-.242-3.891-.727-1.094-.5-1.937-1.297-2.531-2.39-.594-1.094-.891-2.532-.891-4.313v-24.656ZM832.211 329h-6.773v-26.508c0-2.156.437-3.976 1.312-5.461.891-1.484 2.156-2.609 3.797-3.375 1.656-.765 3.656-1.148 6-1.148 1.328 0 2.617.133 3.867.398 1.25.25 2.539.578 3.867.985l-.984 5.414a42.846 42.846 0 0 0-2.766-.75c-.984-.235-2.172-.352-3.562-.352-1.563 0-2.75.367-3.563 1.102-.797.718-1.195 1.781-1.195 3.187V329Zm5.039-25.359v4.781h-15.586v-4.781h15.586Zm10.172 0V329h-6.774v-25.359h6.774Zm12.258 5.414V329h-6.75v-25.359h6.328l.422 5.414Zm-.985 6.375h-1.828c0-1.875.242-3.563.727-5.063.484-1.515 1.164-2.805 2.039-3.867a8.768 8.768 0 0 1 3.117-2.461c1.219-.578 2.578-.867 4.078-.867 1.188 0 2.274.172 3.258.516.984.343 1.828.89 2.531 1.64.719.75 1.266 1.742 1.641 2.977.39 1.234.586 2.742.586 4.523V329h-6.797v-16.195c0-1.125-.156-2-.469-2.625-.312-.625-.773-1.063-1.383-1.313-.593-.265-1.328-.398-2.203-.398-.906 0-1.695.179-2.367.539a4.704 4.704 0 0 0-1.641 1.5c-.422.625-.742 1.359-.961 2.203a10.84 10.84 0 0 0-.328 2.719Zm36.258 8.039V293h6.797v36h-6.117l-.68-5.531Zm-16.031-6.844v-.492c0-1.938.219-3.695.656-5.274.438-1.593 1.078-2.961 1.922-4.101a8.758 8.758 0 0 1 3.117-2.649c1.235-.625 2.641-.937 4.219-.937 1.484 0 2.781.312 3.891.937 1.125.625 2.078 1.516 2.859 2.672.797 1.141 1.437 2.492 1.922 4.055.484 1.547.836 3.242 1.054 5.086V317a27.068 27.068 0 0 1-1.054 4.922c-.485 1.516-1.125 2.844-1.922 3.984-.781 1.125-1.734 2-2.859 2.625s-2.438.938-3.938.938c-1.578 0-2.984-.321-4.219-.961a8.95 8.95 0 0 1-3.093-2.696c-.829-1.156-1.461-2.515-1.899-4.078-.437-1.562-.656-3.265-.656-5.109Zm6.75-.492v.492c0 1.047.078 2.023.234 2.93.172.906.446 1.711.821 2.414.39.687.89 1.226 1.5 1.617.625.375 1.382.562 2.273.562 1.156 0 2.109-.257 2.859-.773.75-.531 1.321-1.258 1.711-2.18.407-.922.641-1.984.703-3.187v-3.07c-.046-.985-.187-1.868-.421-2.649-.219-.797-.547-1.477-.985-2.039-.422-.562-.953-1-1.594-1.312-.625-.313-1.367-.469-2.226-.469-.875 0-1.625.203-2.25.609a4.477 4.477 0 0 0-1.524 1.617c-.375.688-.656 1.5-.843 2.438a16.374 16.374 0 0 0-.258 3Zm33.023 13.336c-1.968 0-3.734-.313-5.297-.938-1.562-.64-2.89-1.523-3.984-2.648a11.771 11.771 0 0 1-2.484-3.914 13.182 13.182 0 0 1-.868-4.781v-.938c0-1.922.274-3.68.821-5.273.547-1.594 1.328-2.977 2.344-4.149a10.289 10.289 0 0 1 3.75-2.695c1.468-.641 3.125-.961 4.968-.961 1.797 0 3.391.297 4.782.89 1.39.594 2.554 1.438 3.492 2.532.953 1.094 1.672 2.406 2.156 3.937.484 1.516.727 3.203.727 5.063v2.812h-20.157v-4.5h13.524v-.515c0-.938-.172-1.774-.516-2.508a3.976 3.976 0 0 0-1.5-1.781c-.672-.438-1.531-.657-2.578-.657-.891 0-1.656.196-2.297.586-.64.391-1.164.938-1.57 1.641-.391.703-.688 1.531-.891 2.484a15.849 15.849 0 0 0-.281 3.094v.938c0 1.015.141 1.953.422 2.812.297.859.711 1.602 1.242 2.227a5.671 5.671 0 0 0 1.969 1.453c.781.343 1.664.515 2.648.515 1.219 0 2.352-.234 3.399-.703 1.062-.484 1.976-1.211 2.742-2.18l3.281 3.563c-.531.766-1.258 1.5-2.18 2.203-.906.703-2 1.281-3.281 1.734-1.281.438-2.742.657-4.383.657Zm21-20.297V329h-6.75v-25.359h6.352l.398 5.531Zm7.641-5.695-.117 6.257a16.677 16.677 0 0 0-1.196-.117c-.453-.047-.867-.07-1.242-.07-.953 0-1.781.125-2.484.375a4.426 4.426 0 0 0-1.735 1.055 4.608 4.608 0 0 0-1.031 1.711c-.219.671-.343 1.437-.375 2.296l-1.359-.422c0-1.64.164-3.148.492-4.523.328-1.391.805-2.601 1.43-3.633.64-1.031 1.422-1.828 2.343-2.39.922-.563 1.977-.844 3.165-.844.375 0 .757.031 1.148.094.391.046.711.117.961.211Zm17.794 29.939v-30.672h-5.664v25.488h-10.224v5.184h15.888Z" fill="#424242"/></svg>