<svg width="1440" height="810" fill="none" xmlns="http://www.w3.org/2000/svg"><path fill="#E5D2E0" d="M99 164h435v34H99z"/><path d="M128.372 136.06v48.464h5.564V136.06h-5.564Zm-6.604 17.108v5.824h17.16v-5.824h-17.16Zm6.552 3.12c-1.3 5.148-4.368 12.376-7.384 16.224.936 1.768 2.34 4.576 2.86 6.5 3.38-4.992 6.396-14.092 8.008-21.008l-3.484-1.716Zm5.72 3.12-2.86 2.392c1.612 2.652 4.628 8.476 5.772 11.544l3.952-4.784c-.988-1.56-5.512-7.748-6.864-9.152Zm-12.324-19.292c1.248 3.692 2.236 8.632 2.392 11.804l4.316-1.04c-.26-3.224-1.248-8.06-2.652-11.804l-4.056 1.04Zm14.456-1.3c-.52 3.64-1.664 8.736-2.652 11.96l3.692 1.04c1.196-3.016 2.652-7.904 3.9-11.96l-4.94-1.04Zm5.564.832v4.472h27.092v-4.472h-27.092Zm1.248 6.5v4.212h24.752v-4.212h-24.752Zm-2.704 6.448v4.524h29.9v-4.524h-29.9Zm11.544-16.692v19.24h5.928v-19.24h-5.928Zm-8.84 23.348v25.48h5.824v-21.06h13.936v-4.42h-19.76Zm18.356 0v19.76c0 .572-.208.78-.884.78-.624 0-2.808 0-4.732-.104.676 1.404 1.352 3.484 1.612 4.992 3.328 0 5.772-.052 7.54-.832 1.82-.832 2.288-2.184 2.288-4.784v-19.812h-5.824Zm-15.08 6.916v4.056h17.108v-4.056H146.26Zm0 6.552v4.056h17.108v-4.056H146.26Zm38.844-16.588h-11.232v5.772h5.408v13.364h5.824v-19.136Zm0 16.744h-5.2c-2.184 1.924-4.68 3.9-6.76 5.356l2.964 5.98c2.444-2.34 4.524-4.316 6.5-6.396 3.12 4.056 7.384 5.616 13.728 5.876 6.5.26 18.044.156 24.7-.156.26-1.716 1.196-4.472 1.872-5.824-7.384.572-20.176.728-26.624.468-5.356-.26-9.152-1.768-11.18-5.304Zm-11.544-32.708c2.652 2.652 5.772 6.448 6.968 8.944l5.304-3.484c-1.404-2.548-4.628-6.084-7.384-8.58l-4.888 3.12Zm14.716 16.952v4.524h31.876v-4.524h-31.876Zm-1.56 8.008v4.628h35.048v-4.628h-35.048Zm8.476-10.764v13h5.876v-13h-5.876Zm11.908 0v13h5.928v-13H207.1Zm-17.42-10.816v3.952h12.844v-10.036h-15.132v3.9h9.88v2.184h-7.592Zm-1.56 0v5.096c0 4.16 1.3 5.356 5.928 5.356h5.46c3.172 0 4.576-.988 5.096-4.524-1.404-.26-3.38-.936-4.316-1.612-.208 1.716-.416 2.028-1.456 2.028h-4.004c-1.352 0-1.56-.208-1.56-1.3v-5.044h-5.148Zm18.668 0v3.952h12.948v-10.036h-15.444v3.9h10.14v2.184h-7.644Zm-1.56 0v5.044c0 4.212 1.3 5.408 5.98 5.408h5.616c3.224 0 4.628-.988 5.148-4.576-1.404-.312-3.38-.936-4.316-1.612-.208 1.768-.416 2.08-1.508 2.08h-4.16c-1.352 0-1.612-.208-1.612-1.3v-5.044h-5.148Zm.988 28.392c3.432 1.768 7.124 4.108 9.048 5.772l6.448-2.34c-2.6-1.768-7.176-4.264-10.92-5.98l-4.576 2.548Zm-9.1-2.548c-2.236 1.768-6.084 3.432-9.724 4.524 1.3.832 3.536 2.704 4.524 3.744 3.588-1.456 7.956-3.848 10.66-6.344l-5.46-1.924Zm52.676-27.612c4.42 6.188 13.156 13.416 21.164 17.836 1.144-1.924 2.548-4.004 4.108-5.616-8.268-3.536-16.744-10.348-22.308-18.356h-6.5c-3.848 6.448-12.272 14.456-21.216 18.98 1.352 1.3 3.12 3.588 3.952 5.044 8.528-4.732 16.484-11.752 20.8-17.888Zm-17.68 24.388v5.408h35.568v-5.408h-35.568Zm2.652-11.492v5.46h30.524v-5.46h-30.524Zm-6.812 23.192v5.564h44.408v-5.564h-44.408Zm18.564-20.748v23.868h6.604V157.12h-6.604Zm31.46-17.316v5.772H295.5v-5.772h-17.524Zm16.952 4.784v5.72h31.616v-5.72h-31.616Zm-16.536 9.724v5.772h16.536v-5.772h-16.536Zm-1.404 18.148 1.612 5.876a602.651 602.651 0 0 0 17.68-5.72l-.832-5.252c-6.708 1.924-13.832 3.952-18.46 5.096Zm30.264-36.66v41.808c0 .832-.312 1.092-1.092 1.092-.832 0-3.276.052-5.824-.052.884 1.612 1.924 4.316 2.132 5.98 3.9 0 6.552-.208 8.372-1.248 1.82-1.04 2.444-2.704 2.444-5.772V135.8h-6.032Zm-15.756 37.856 3.172 5.564c3.64-2.288 8.06-5.252 11.96-8.06l-1.872-5.148c-4.836 2.912-9.932 5.98-13.26 7.644Zm3.9-18.876c1.976 2.912 4.056 6.864 4.836 9.36l5.096-2.392c-.832-2.548-3.12-6.344-5.096-9.1l-4.836 2.132Zm25.532-2.704c-1.456 2.964-4.004 6.916-5.98 9.36l4.42 2.496c2.08-2.288 4.68-5.772 7.02-8.996l-5.46-2.86Zm-5.72-12.792c2.392 1.664 5.356 4.108 6.76 5.824l3.588-3.588c-1.456-1.664-4.524-4.004-6.968-5.46l-3.38 3.224Zm-31.408 2.912v31.2l6.032-.936v-30.264H283.8Zm29.276 8.736-5.148.936c2.288 13.26 5.98 21.528 15.652 28.86.728-1.664 2.392-3.64 3.848-4.784-8.788-5.98-12.324-13.052-14.352-25.012Zm43.362 15.256v5.738h-26.635l-.356-4.444 15.412-24.451h5.815l-6.297 10.537-7.668 12.62h19.729Zm-4.19-23.157V180h-7.312v-36.969h7.312Zm8.523 6.809v6.448h46.28v-6.448h-46.28Zm26.676 2.6-6.292 1.456c3.952 14.3 10.452 25.064 22.36 30.628 1.04-1.82 3.12-4.524 4.68-5.928-11.024-4.368-17.628-14.248-20.748-26.156Zm-7.176-16.588c-.156 14.092.78 33.852-20.54 43.368 1.82 1.352 3.744 3.588 4.732 5.304 22.308-10.764 22.412-32.812 22.672-48.672h-6.864Zm46.384 8.008h18.304v7.02h-18.304v-7.02Zm-6.032-5.928v18.876h30.732v-18.876h-30.732Zm-7.124 23.244v23.504h5.876v-17.576h7.748v17.264h6.24v-23.192h-19.864Zm24.284 0v23.504h5.98v-17.576h8.32v17.316h6.292v-23.244h-20.592ZM416.099 176.1v5.98h13.624v-5.98h-13.624Zm24.544 0v5.98h14.56v-5.98h-14.56Zm42.276-6.916v5.252h28.964v-5.252h-28.964Zm16.276-6.552v22.1h5.876v-22.1h-5.876Zm-4.68-26.884c-.468 2.08-1.508 4.888-2.444 6.968l4.992 1.3a114.93 114.93 0 0 0 4.368-7.072l-6.916-1.196Zm.416 7.748v8.632c0 4.68-1.3 10.712-10.608 14.404 1.144.78 3.068 2.444 3.952 3.432 10.244-4.212 11.908-11.596 11.908-17.68v-8.788h-5.252Zm-26 6.032v5.304h14.82v-5.304h-14.82Zm6.084-13.624V152.7h5.408v-16.796h-5.408Zm-5.772 24.908v5.252h6.76v18.668h5.512v-23.92h-12.272Zm-2.912-23.608v19.448c0 7.28-.416 18.772-3.328 26.312 1.508.416 4.004 1.248 5.2 1.872 2.912-8.112 3.484-20.02 3.484-28.184v-19.448h-5.356Zm23.868 16.068h14.664v3.588h-14.664v-3.588Zm0-7.904h14.664v3.536h-14.664v-3.536Zm-5.512-4.68v20.8h25.896v-20.8h-25.896Z" fill="#424242"/></svg>