<svg width="1440" height="810" fill="none" xmlns="http://www.w3.org/2000/svg"><path d="M567.06 375.24c-2.04 8.34-5.7 16.62-10.26 21.78 1.62 1.08 4.5 3.42 5.76 4.68 4.8-5.94 9.06-15.36 11.58-24.84l-7.08-1.62Zm-1.68 26.7c-1.38 6.66-3.96 13.5-7.32 17.7 1.68.9 4.74 2.76 6.12 3.9 3.36-4.86 6.48-12.54 8.16-20.16l-6.96-1.44Zm3-16.14-2.7 6.66h27.3v-6.66h-24.6Zm6.9 2.94v34.56c0 .78-.3.96-1.08.96-.84 0-3.36.06-5.88-.06 1.02 1.98 2.1 5.16 2.46 7.26 3.84 0 6.78-.3 8.88-1.44 2.16-1.2 2.76-3.18 2.76-6.66v-34.62h-7.14Zm9.24 14.76c2.94 6.18 5.46 14.46 6.12 19.86l6.9-2.4c-.84-5.46-3.42-13.44-6.54-19.62l-6.48 2.16Zm6.54-17.7v.96c-.42 4.2-1.08 9.54-1.62 12.78l6.18 1.08c.78-3.6 1.86-9.18 2.58-14.1l-5.04-.9-1.14.18h-.96Zm-36.84-10.5c-3.06 8.58-8.28 17.1-13.74 22.56 1.26 1.74 3.18 5.7 3.84 7.44 6.54-6.84 12.78-17.64 16.68-27.9l-6.78-2.1Zm-5.82 16.56v39.48h6.9v-46.26l-.06-.06-6.84 6.84Zm62.28-8.4h7.62v7.8h-7.62v-7.8Zm-6.18-6.06v19.92h20.28V377.4H604.5Zm7.98 17.46v26.76h6.3v-26.76h-6.3Zm-8.28 6.72v21.84h5.76v-21.84h-5.76Zm-2.82 20.52 1.74 6.72c6.66-1.98 15.48-4.68 23.7-7.26l-.9-5.94c-8.94 2.46-18.48 5.1-24.54 6.48Zm14.04-18.48v6.24h10.44v-6.24h-10.44Zm12.96-26.16v49.08l6.96-1.5v-47.58h-6.96Zm3.72 0v6.3h15.96v15.72H632.1v6.3h22.98v-28.32H632.1Zm.12 10.86v6.24h18.42v-6.24h-18.42Zm-7.92 35.52 1.62 6.72c5.28-1.2 12.06-2.76 18.36-4.32l-.66-6.24c-7.02 1.44-14.34 3-19.32 3.84Zm19.92-21.66-6.42.9c2.4 13.44 6.6 23.34 16.44 28.26.96-1.92 3.06-4.74 4.62-6.12-8.64-3.66-12.78-12.36-14.64-23.04Zm8.76 4.26c-2.46 2.46-6.72 5.82-9.66 7.68l3.9 4.2c3.12-1.74 7.2-4.38 10.8-6.96l-5.04-4.92Zm35.28-13.38v7.26h24.96v-7.26h-24.96Zm-25.68 28.14v7.26h54.84v-7.26h-54.84Zm21.6-45.42v49.44h7.74v-49.44h-7.74Zm62.34 19.8v27.3c0 1.02-.48 1.38-1.8 1.38-1.38 0-6.3 0-10.56-.18 1.14 1.98 2.52 5.22 2.94 7.32 5.76 0 10.08-.12 13.02-1.2 3-1.08 4.02-3.06 4.02-7.14v-27.48h-7.62ZM726 379.26v7.08h41.94v-7.08H726Zm39.24 0V381c-3 4.56-10.08 11.76-16.32 15.72 1.44 1.14 3.78 3.54 4.92 5.1 7.38-4.62 15.3-12.24 20.7-18.84l-5.64-4.2-1.74.48h-1.92Zm22.08 1.08V387h7.32v21.18h-7.32v6.66h13.8v-34.5h-13.8Zm-3.6 0v39.42h6.36v-39.42h-6.36Zm24.72 6.72v5.58H834v-5.58h-25.56Zm0 9.12v5.58H834v-5.58h-25.56Zm-4.02 9.18v6h27.78v-6h-27.78Zm0-27.9v31.14h6.78v-24.96h24.48v-6.18h-31.26Zm13.2 3.36v27.3h6.6v-27.3h-6.6Zm13.2 24.54v1.08c-.48 12.54-1.08 17.16-1.98 18.24-.48.66-1.02.78-1.8.78-.9 0-2.58-.06-4.5-.24.9 1.68 1.56 4.26 1.68 6.12 2.52.06 4.86 0 6.24-.18 1.62-.3 2.82-.72 3.96-2.16 1.5-1.98 2.22-7.5 2.82-21.06.06-.78.12-2.58.12-2.58h-6.54Zm-28.32 8.04c-.66 4.92-2.04 10.2-4.32 13.56l5.16 2.58c2.52-3.6 3.72-9.48 4.44-14.64l-5.28-1.5Zm6.6 1.2c.84 3.96 1.32 9.06 1.08 12.36l4.98-.84c.12-3.3-.36-8.34-1.32-12.24l-4.74.72Zm6.66-.42c1.32 3.36 2.46 7.74 2.7 10.68l4.62-1.44c-.36-2.82-1.56-7.2-3-10.5l-4.32 1.26Zm6.54-.84c1.44 2.58 2.76 6.06 3.24 8.4l4.14-1.5c-.6-2.28-1.98-5.7-3.48-8.28l-3.9 1.38Zm43.08-2.76h7.8c-.96-8.28 12.18-9.36 12.18-18.12 0-7.98-6.36-12.06-15.06-12.06-6.42 0-11.7 2.94-15.54 7.38l4.92 4.5c2.94-3.06 5.94-4.74 9.6-4.74 4.74 0 7.62 2.04 7.62 5.7 0 5.82-12.78 7.92-11.52 17.34Zm3.96 16.02c3 0 5.28-2.22 5.28-5.34 0-3.12-2.28-5.28-5.28-5.28-3.06 0-5.34 2.16-5.34 5.28s2.22 5.34 5.34 5.34Z" fill="#424242"/></svg>