<svg width="1440" height="810" fill="none" xmlns="http://www.w3.org/2000/svg"><path d="M246.628 287.552v5.824h14.248v-5.824h-14.248Zm-2.808-33.228v42.848h6.032V260.2h7.592v36.244h6.344v-42.12H243.82Zm-16.224 4.888v9.932c0 7.644-.936 17.836-10.452 24.7 1.248.884 3.64 3.38 4.42 4.68 10.452-7.592 12.324-20.436 12.324-29.276v-10.036h-6.292Zm-4.264-2.756v5.772h17.836v-5.772h-17.836Zm-5.408 13.988v5.928h24.544v-5.928h-24.544Zm14.404 7.332-3.796 3.536c2.652 3.068 7.748 9.516 10.192 13.364l4.212-5.252c-1.612-1.924-8.476-9.776-10.608-11.648Zm-9.568-27.924c-1.04 5.98-3.016 11.96-5.824 15.704 1.352.832 3.9 2.6 4.992 3.588 2.964-4.368 5.46-11.232 6.812-18.096l-5.98-1.196Zm67.08 31.824v4.16h9.828v-4.16h-9.828ZM286.668 255v4.68h16.64V255h-16.64Zm-1.144 12.428v4.992h32.552v-4.992h-32.552Zm3.952 7.332v4.264h7.904v9.568h-7.904v4.316h12.948V274.76h-12.948Zm-1.872 0v20.124h4.68V274.76h-4.68Zm4.628-24.908v7.54h5.668v-7.54h-5.668Zm-4.004 10.868c.728 2.236 1.196 5.044 1.196 6.916l4.472-1.04c-.052-1.872-.676-4.68-1.508-6.76l-4.16.884Zm21.008-5.876c1.976 2.912 3.796 6.916 4.368 9.62l4.992-2.028c-.728-2.704-2.652-6.552-4.68-9.36l-4.68 1.768Zm-12.012 4.784c-.208 2.132-.728 5.2-1.144 7.228l4.212.832c.572-1.82 1.196-4.576 1.976-7.228l-5.044-.832Zm7.02-9.672c.104 30.784.676 48.308 9.36 48.88 1.924.052 4.264-1.716 5.512-9.204-.884-.572-2.964-2.184-3.796-3.432-.208 3.64-.728 5.928-1.456 5.876-3.9-.416-4.68-17.316-4.264-42.12h-5.356Zm8.528 24.648c-3.016 9.464-9.048 16.64-15.6 20.592 1.092.884 2.704 2.496 3.432 3.484 6.864-4.264 13.312-11.804 16.848-21.528l-4.68-2.548Zm-41.184-8.788v4.68h13.156v-4.68h-13.156Zm.26-14.352v4.732h12.844v-4.732h-12.844Zm-.26 21.424v4.732h13.156v-4.732h-13.156Zm-2.08-14.404v4.94h16.432v-4.94h-16.432Zm4.732 21.632v4.888h5.772v5.928h-5.772v4.888h10.66v-15.704h-10.66Zm-2.808 0v17.888h4.784v-17.888h-4.784Zm76.396 8.171V294h-25.289v-4.875l11.959-12.822c1.202-1.338 2.15-2.514 2.844-3.53.694-1.032 1.193-1.955 1.498-2.767.321-.83.482-1.617.482-2.361 0-1.118-.186-2.074-.558-2.87-.373-.812-.923-1.438-1.651-1.879-.711-.44-1.591-.66-2.64-.66-1.118 0-2.082.271-2.895.813-.795.541-1.405 1.295-1.828 2.26-.406.964-.609 2.056-.609 3.275h-7.338c0-2.201.524-4.215 1.574-6.043 1.049-1.845 2.531-3.309 4.443-4.393 1.913-1.1 4.181-1.65 6.805-1.65 2.59 0 4.773.423 6.551 1.27 1.794.829 3.148 2.031 4.062 3.605.931 1.557 1.397 3.419 1.397 5.586 0 1.219-.195 2.412-.584 3.58a16.193 16.193 0 0 1-1.676 3.453 27.78 27.78 0 0 1-2.59 3.453 78.28 78.28 0 0 1-3.377 3.631l-6.424 7.211h15.844Zm28.031-21.067c2.704 0 4.94-2.08 4.94-4.888 0-2.86-2.236-4.94-4.94-4.94-2.756 0-4.992 2.08-4.992 4.94 0 2.808 2.236 4.888 4.992 4.888Zm0 24.804c2.704 0 4.94-2.08 4.94-4.888 0-2.86-2.236-4.94-4.94-4.94-2.756 0-4.992 2.08-4.992 4.94 0 2.808 2.236 4.888 4.992 4.888Zm48.672-10.972v13.364h6.136v-13.364h-6.136Zm-10.868-20.644v4.16h28.288v-4.16h-28.288Zm4.836 10.244h18.512v2.704h-18.512v-2.704Zm-5.72-4.056v10.816h30.316v-10.816h-30.316Zm-3.536 12.74v19.292h5.876V283.86h25.376v14.664h6.136v-19.188h-37.388Zm3.172 7.02v3.9h30.784v-3.9h-30.784Zm0 6.604v4.472h30.732v-4.472h-30.732Zm12.064-43.108v7.02h6.448v-7.02h-6.448Zm-18.876 2.964v11.44h5.928v-6.188h32.5v6.188h6.188v-11.44h-44.616Zm64.22 7.436v5.148h20.176v-5.148h-20.176Zm-7.54 8.216v5.46h29.068v-5.46h-29.068Zm4.056 23.192v5.356h26.78v-5.356h-26.78Zm-3.328-11.856v18.98h6.136V285.16h21.58v13.624h6.448v-18.98h-34.164Zm16.64-24.96c4.888 5.044 14.04 10.296 21.476 13.052.988-1.768 2.392-3.9 3.744-5.356-8.112-2.288-16.536-6.76-22.464-12.792h-6.084c-4.264 4.94-12.74 10.4-21.372 13.312 1.144 1.248 2.704 3.588 3.38 4.992 8.32-3.172 16.744-8.372 21.32-13.208Zm9.672 13.624v.676c-1.352 2.704-4.004 7.28-6.292 10.868l6.032 2.08c2.444-3.692 5.096-8.008 7.176-12.168l-4.836-1.716-1.092.26h-.988Zm39.26-.936v25.428h4.212v-25.428h-4.212Zm6.084 0v25.064h4.212v-25.064h-4.212Zm-9.62 10.14v3.796h6.032v-3.796h-6.032Zm-.208-6.032v3.9h6.084v-3.9h-6.084Zm-.052 12.012v3.848h6.032v-3.848h-6.032Zm11.284-12.012v3.9h5.98v-3.9h-5.98Zm-.052 6.032v3.796h5.876v-3.796h-5.876Zm.208 5.98v3.848h5.98v-3.848h-5.98Zm-13.312-19.136v5.096h33.28v-5.096h-33.28Zm4.68-14.612c-.624 4.94-2.028 9.516-4.784 12.48 1.144.52 3.276 1.56 4.212 2.236 2.652-3.328 4.368-8.372 5.148-14.092l-4.576-.624Zm8.372.052c-.676 5.044-2.288 9.516-5.356 12.428 1.144.572 3.068 1.768 3.952 2.496 3.016-3.328 4.992-8.424 5.928-14.3l-4.524-.624Zm6.604 0c.156 30.056 1.144 48.464 9.204 48.776 1.716.052 3.952-1.508 5.304-7.748-.884-.728-2.86-2.548-3.692-4.004-.208 2.964-.676 4.888-1.3 4.836-3.12-.26-4.264-17.836-3.952-41.86h-5.564Zm-15.496 8.424c1.456.78 3.224 1.924 4.056 2.808l2.34-3.484c-.884-.832-2.652-1.872-4.16-2.496l-2.236 3.172Zm8.268-.156c1.924 1.768 4.264 4.316 5.356 6.032l2.496-3.588c-1.04-1.56-3.432-3.9-5.408-5.616l-2.444 3.172Zm12.168-4.42c1.664 2.704 3.432 6.396 4.108 8.788l4.732-2.132c-.78-2.34-2.6-5.876-4.42-8.476l-4.42 1.82Zm-24.96 37.076.884 4.94c5.356-.572 12.272-1.404 18.98-2.236l-.156-4.524c-7.228.728-14.664 1.456-19.708 1.82Zm-8.788-40.976c-.936 3.588-2.704 8.528-4.316 11.648l4.056 1.56c1.664-2.912 3.692-7.54 5.512-11.544l-5.252-1.664Zm5.408 6.292c-2.34 5.564-6.552 13.156-9.932 17.836l3.432 1.82c3.588-4.472 8.008-11.7 11.336-17.576l-4.836-2.08Zm-11.908 5.616c2.496 2.6 5.408 6.292 6.552 8.84l2.808-5.044c-1.144-2.34-4.212-5.72-6.812-8.216l-2.548 4.42Zm10.14 6.552c1.768 3.64 3.38 8.372 3.796 11.336l4.42-1.82c-.468-3.016-2.236-7.54-4.108-11.076l-4.108 1.56Zm-10.452 4.316.52 5.408c4.472-.364 10.036-.832 15.496-1.404l.052-4.836c-6.032.364-11.96.676-16.068.832Zm12.012 8.892c.936 2.86 1.924 6.552 2.288 9.048l4.264-1.456c-.416-2.392-1.404-6.084-2.392-8.84l-4.16 1.248Zm-10.088-1.144c-.26 4.368-.78 9.048-2.08 12.116 1.144.468 3.276 1.404 4.212 2.028 1.3-3.328 2.184-8.476 2.548-13.364l-4.68-.78Zm4.94-4.992v23.244h5.096v-23.244h-5.096Zm37.128-2.652c-2.236 8.996-7.176 17.212-14.248 22.152 1.196.832 3.016 2.808 3.796 3.9 7.696-5.668 12.636-14.456 15.392-24.804l-4.94-1.248Zm37.232-12.688h-2.444l-3.328 3.484v35.1h5.772v-33.072h19.5v-5.512h-19.5Zm-2.652 10.14v5.408h20.592v-5.408h-20.592Zm-.052 10.14v5.408h20.852v-5.408h-20.852Zm-1.092 10.4v5.512h24.024v-5.512h-24.024Zm9.516-27.56v29.432h5.564v-29.432h-5.564Zm-8.06-13.468c-1.768 5.876-5.564 13.52-9.828 18.148 1.144 1.04 2.964 3.068 3.952 4.316 4.888-5.408 9.1-13.624 11.804-20.8l-5.928-1.664Zm11.7.78c-.884 3.38-2.704 8.008-4.264 11.024l5.096 1.456c1.716-2.808 3.796-7.02 5.668-11.076l-6.5-1.404Zm-30.368-.624c-1.196 3.588-3.432 8.632-5.252 11.752l4.16 1.716c1.976-2.912 4.368-7.54 6.5-11.596l-5.408-1.872Zm5.876 6.136c-2.756 5.564-7.488 13.156-11.388 17.836l3.588 2.028c4.004-4.472 9.048-11.7 12.844-17.524l-5.044-2.34Zm-13.936 5.98c2.6 2.652 5.668 6.344 6.812 8.892l3.38-4.784c-1.248-2.444-4.42-5.824-7.124-8.268l-3.068 4.16Zm12.168 6.5c1.924 3.588 3.744 8.372 4.316 11.388l4.68-2.132c-.624-2.964-2.6-7.54-4.68-11.076l-4.316 1.82Zm-12.324 4.16.676 5.356c4.836-.364 11.18-.832 17.264-1.3l-.052-5.096c-6.5.416-13.208.78-17.888 1.04Zm13.884 8.892c1.248 3.12 2.288 7.28 2.548 9.984l4.68-1.56c-.312-2.652-1.404-6.708-2.756-9.776l-4.472 1.352Zm-11.648-1.144c-.416 4.368-1.196 9.048-2.652 12.116 1.196.52 3.484 1.508 4.524 2.184 1.508-3.328 2.6-8.476 3.12-13.468l-4.992-.832Zm5.72-4.992v23.244h5.356v-23.244h-5.356ZM401.744 365.532v5.512h17.94v-5.512h-17.94Zm8.216 8.424v16.432c0 .572-.156.78-.884.832-.78 0-3.224 0-5.356-.104.78 1.56 1.664 3.952 1.924 5.668 3.484 0 6.084-.052 8.008-.936 1.976-.884 2.496-2.444 2.496-5.304v-16.588h-6.188Zm-10.504 4.472.572 5.98c6.968-.572 16.796-1.352 25.896-2.184v-5.668c-9.464.728-19.656 1.456-26.468 1.872Zm18.564-12.896v1.196c-1.508 2.236-4.628 5.876-7.28 7.956.832.728 2.392 2.34 3.068 3.328 3.796-2.496 7.904-6.344 11.024-9.516l-3.848-3.276-1.352.312h-1.612Zm4.108-17.524c-5.72 1.508-14.664 2.6-22.568 3.12.676 1.404 1.404 3.64 1.612 5.096 8.06-.364 17.628-1.3 24.648-3.068l-3.692-5.148Zm5.772.936v38.116c0 7.124 1.612 9.308 7.228 9.308h6.136c5.408 0 6.916-3.692 7.436-13.26-1.664-.468-4.316-1.716-5.824-2.912-.26 8.112-.52 10.244-2.184 10.244h-4.472c-1.612 0-1.82-.468-1.82-3.328v-38.168h-6.5Zm-27.872 9.048c.988 2.288 1.976 5.408 2.236 7.436l4.94-1.404c-.416-2.028-1.404-4.992-2.496-7.28l-4.68 1.248Zm8.788-1.352c.624 2.392 1.144 5.512 1.144 7.488l5.252-.884c-.104-1.976-.676-4.992-1.404-7.28l-4.992.676Zm12.064-1.508c-1.04 2.912-2.964 6.864-4.576 9.308l4.68 1.924c1.716-2.288 3.796-5.824 5.616-9.1l-5.72-2.132Zm62.608 2.756v18.356h5.356v-18.356h-5.356Zm-1.144-10.036v7.54h6.292v-7.54h-6.292Zm-7.02 19.552v4.42h25.116v-4.42h-25.116Zm4.992 22.828v4.732h15.028v-4.732h-15.028Zm-6.344-37.44v4.992h26.052v-4.992h-26.052Zm-2.808 0v17.264c0 7.176-.364 16.64-4.784 23.14 1.196.624 3.484 2.444 4.42 3.432 4.94-7.176 5.72-18.616 5.72-26.572v-17.264h-5.356Zm6.812 7.956v4.316h14.612v9.1h-14.82v4.316h20.02v-17.732h-19.812Zm-.156 20.124v15.756h5.564v-11.024h8.996v10.868h5.772v-15.6H477.82ZM458.216 347.8v48.828h5.564V347.8h-5.564Zm-6.448 17.784v5.772h17.992v-5.772h-17.992Zm6.5 2.444c-1.248 5.616-4.108 12.584-7.228 16.484.936 1.664 2.34 4.316 2.86 6.136 3.796-4.732 6.708-13.832 8.216-21.268l-3.848-1.352Zm4.836 3.796-2.964 2.912c1.82 2.34 5.408 7.696 6.916 10.556l3.536-5.044c-1.04-1.352-6.084-7.124-7.488-8.424Zm-11.648-19.604c1.092 3.796 1.872 8.684 1.872 11.908l4.42-1.04c-.104-3.172-.936-8.06-2.132-11.856l-4.16.988Zm14.82-1.508c-.52 3.588-1.716 8.684-2.808 11.856l3.796 1.04c1.248-2.912 2.704-7.748 4.004-11.804l-4.992-1.092Zm39.052.624v6.396h45.344v-6.396h-45.344Zm25.116 17.42c5.772 4.42 13.468 10.816 16.9 14.924l5.304-4.784c-3.796-4.16-11.804-10.14-17.368-14.196l-4.836 4.056Zm-2.08-15.08c-4.316 9.256-13.52 19.344-24.648 24.596 1.3 1.404 3.276 4.004 4.264 5.668 11.96-6.24 21.424-16.848 27.352-27.82l-6.968-2.444Zm-3.796 12.584v30.316h6.864v-37.128l-6.864 6.812Zm59.54-7.488v5.824h20.28v-5.824h-20.28Zm-28.08-8.528v5.98h27.456v-5.98h-27.456Zm39.052-2.132v41.6c0 .832-.26 1.092-1.092 1.092-.78 0-3.172 0-5.564-.052.832 1.56 1.768 4.212 2.028 5.824 3.796 0 6.396-.26 8.216-1.196 1.716-.988 2.392-2.6 2.392-5.616v-41.652h-5.98Zm-10.816 22.308c1.872 3.744 3.536 8.632 3.9 11.7l5.408-1.924c-.468-3.172-2.288-7.852-4.264-11.492l-5.044 1.716Zm-27.04-9.412v35.412h5.044v-30.056h17.264v-5.356h-22.308Zm20.696 0v30.004c0 .468-.156.624-.572.624-.416 0-1.612 0-2.756-.052.624 1.352 1.248 3.484 1.456 4.888 2.288 0 3.952-.156 5.304-.936 1.352-.832 1.612-2.236 1.612-4.42v-30.108h-5.044Zm-12.948 3.068v28.08h4.004v-28.08h-4.004Zm6.396 0v28.08h4.004v-28.08h-4.004Zm-4.68-11.804c-.52 3.276-1.664 7.8-2.808 10.816l5.252.676c1.3-2.808 2.86-7.072 4.108-11.076l-6.552-.416Zm57.564 10.868v5.252h30.472v-5.252h-30.472Zm15.548 12.376v5.2h14.248v-5.2H639.8Zm-19.24 14.56v5.408h35.88v-5.408h-35.88Zm16.328-24.7v27.82h5.98v-27.82h-5.98Zm-10.972 8.32v19.24h5.668v-19.24h-5.668Zm-6.812-20.072v5.564h37.284v-5.564h-37.284Zm-3.38 0v15.548c0 7.332-.572 16.848-6.968 23.348 1.248.728 3.64 3.016 4.472 4.16 7.28-7.124 8.424-19.136 8.424-27.456v-15.6h-5.928Zm15.444-5.772v9.256h6.604v-9.256h-6.604Zm-23.452 12.272c1.56 3.172 3.068 7.332 3.536 9.932l4.784-2.548c-.468-2.6-2.132-6.604-3.848-9.62l-4.472 2.236Zm-.468 17.784 1.82 5.876c3.016-1.716 6.24-3.64 9.256-5.564l-1.456-4.888c-3.588 1.82-7.124 3.536-9.62 4.576Zm58.188-21.632v5.46h10.296v24.076h-10.296v5.512H681.4v-35.048h-15.964Zm-3.64 0v38.896h5.668v-38.896h-5.668Zm3.38 13.884v5.408h13.312v-5.408h-13.312Zm4.004-22.36c-.26 2.86-.988 6.864-1.716 9.568l4.992 1.092c1.04-2.444 2.34-6.136 3.536-9.672l-6.812-.988Zm19.084 8.112v5.668h15.184v-5.668h-15.184Zm13.052 0v1.196c-.572 21.684-1.248 30.628-2.912 32.396-.676.728-1.248.936-2.288.936-1.3 0-4.42-.052-7.8-.312 1.144 1.664 1.976 4.316 2.08 6.032 3.016.156 6.188.208 8.164-.104 2.132-.312 3.588-.884 5.044-2.912 2.132-2.756 2.756-11.024 3.432-34.424.052-.78.052-2.808.052-2.808h-5.772Zm-12.896-8.06c-1.664 6.916-4.628 13.988-8.112 18.356 1.456.832 4.004 2.6 5.148 3.64 3.536-4.992 6.916-12.896 8.944-20.592l-5.98-1.404Zm-2.548 23.036c2.496 3.848 5.772 8.944 7.176 12.116l5.304-3.224c-1.612-3.068-5.044-8.06-7.592-11.648l-4.888 2.756Zm56.316 4.992v17.316h5.564V375.88h-5.564Zm-2.756-13.728h11.648v3.692h-11.648v-3.692Zm-5.512-4.732v13.156h22.932V357.42H733.92Zm-2.652 15.444v23.764h5.772v-18.772h16.068v18.72h5.98v-23.712h-27.82Zm3.328 8.476v4.628h21.632v-4.628h-21.632Zm.052 8.216v4.992h21.632v-4.992h-21.632Zm-3.64-39.52v5.252h28.288v-5.252h-28.288Zm-18.46 7.436v5.616h15.548v-5.616h-15.548Zm6.24-9.568v12.22h6.084v-12.22h-6.084Zm6.656 21.736-3.484 2.964c1.768 1.872 5.304 5.772 6.916 8.008l3.64-4.992c-1.092-1.04-5.616-5.044-7.072-5.98Zm.364-12.168v1.144c-2.548 7.592-8.736 15.236-15.236 19.136.936 1.144 2.444 4.264 2.964 5.928 7.176-4.94 14.404-14.144 17.992-24.232l-3.432-2.184-1.04.208h-1.248Zm-7.02 17.784v21.424h6.084v-28.756l-6.084 7.332Zm48.724-23.192v5.512h41.496v-5.512h-41.496Zm-2.912 11.908v5.564h46.8v-5.564h-46.8Zm10.504 17.42v4.68h25.948v-4.68h-25.948Zm0 8.424v5.148h25.948v-5.148h-25.948Zm9.464-41.964v7.488h6.552v-7.488h-6.552Zm-12.584 24.804v24.024h6.24v-18.876h20.124v18.824h6.604v-23.972h-32.968Zm24.024-16.12c-.52 2.132-1.612 5.096-2.548 7.124l5.98 1.404c.988-1.768 2.236-4.368 3.536-7.02l-6.968-1.508Zm-21.892 1.456c1.144 2.132 2.184 5.148 2.444 7.124l6.5-1.508c-.364-1.872-1.456-4.732-2.808-6.812l-6.136 1.196Z" fill="#424242"/></svg>