<svg width="1440" height="810" fill="none" xmlns="http://www.w3.org/2000/svg"><g clip-path="url(#a)"><path d="M746.632 466.568v8.904c0 5.88 1.624 7.728 8.904 7.728h8.848c5.488 0 7.336-1.792 8.12-8.848-1.848-.392-4.648-1.344-5.936-2.352-.28 4.592-.672 5.264-2.744 5.264h-7.504c-2.632 0-3.08-.224-3.08-1.904v-8.792h-6.608Zm5.488-1.624c3.36 2.072 7.336 5.264 9.072 7.616l4.928-4.2c-1.904-2.352-6.048-5.32-9.352-7.224l-4.648 3.808Zm17.136 2.856c3.864 4.144 7.616 9.856 8.904 13.72l6.216-2.968c-1.456-4.088-5.432-9.52-9.352-13.44l-5.768 2.688Zm-30.464-1.96c-1.232 4.872-3.752 9.632-7.392 12.544l5.6 3.752c4.144-3.472 6.328-8.96 7.84-14.392l-6.048-1.904Zm5.376-28.392v5.824h38.08v-5.824h-38.08Zm11.48 8.68v5.264h23.408v-5.264h-23.408Zm.056 8.4v5.544h24.864v-5.544h-24.864Zm-3.08-15.064v23.744h6.776v-23.744h-6.776Zm-7.728-8.176c-2.464 7.56-7.224 14.504-12.992 18.704 1.624 1.12 4.48 3.64 5.712 4.984 5.88-5.04 11.2-13.048 14.336-21.896l-7.056-1.792Zm53.648 46.088.448 5.488c9.128-.168 22.736-.616 35.448-1.064l.224-5.04c-13.104.336-27.16.56-36.12.616Zm25.928-14.224c-4.872 4.928-12.88 11.2-19.208 15.008l4.256 2.856c6.328-3.584 14.392-9.464 20.552-14.784l-5.6-3.08Zm-10.696-3.248c-1.96 2.632-5.376 6.16-8.064 8.344l4.088 2.464c2.8-1.96 6.272-5.04 9.408-7.952l-5.432-2.856Zm-12.824 8.512c3.92 2.24 9.016 5.768 11.368 8.12l4.536-4.368c-2.632-2.352-7.84-5.6-11.704-7.672l-4.2 3.92Zm23.408 4.2c3.64 3.472 7.84 8.344 9.744 11.536l5.656-2.856c-2.072-3.304-6.496-7.952-10.136-11.2l-5.264 2.52Zm-24.472-28.056v4.592h17.472v-4.592h-17.472Zm19.04 0v4.592h19.488v-4.592h-19.488Zm-12.824-3.304v19.992h4.928v-19.992h-4.928Zm6.776 9.184v8.288h3.696v-8.288h-3.696Zm12.264-9.184v20.384h4.984v-20.384h-4.984Zm-24.416 9.128v2.128c0 2.24-.336 5.32-2.408 7.224 1.008.56 2.52 1.68 3.192 2.52 2.464-2.744 2.8-6.44 2.8-9.576v-2.296h-3.584Zm18.928 0v2.016c0 2.128-.336 5.096-2.52 6.888 1.008.56 2.576 1.736 3.248 2.576 2.576-2.632 2.968-6.272 2.968-9.24v-2.24h-3.696Zm12.32-.056v6.16c0 2.464.224 3.304.84 4.032.56.616 1.624.896 2.576.896h1.736c.56 0 1.288-.056 1.736-.336.616-.28 1.064-.672 1.344-1.288.336-.56.448-2.072.56-3.472-.952-.28-2.24-.952-2.968-1.512 0 1.176-.056 2.128-.168 2.576-.112.392-.168.616-.336.728-.056.056-.28.112-.448.112h-.504c-.224 0-.336-.112-.448-.224V450.328h-3.92Zm-19.712-18.872v7.224h7v-7.224h-7Zm-17.024 4.368v5.6h44.296v-5.6H795.24Zm-3.864 0v17.024c0 8.176-.28 19.656-4.088 27.552 1.344.672 4.088 2.744 5.152 3.864 4.368-8.68 5.096-22.456 5.096-31.416v-17.024h-6.16Zm90.496 1.232v38.36c0 1.176-.448 1.568-1.792 1.624-1.344 0-6.216.056-10.248-.224 1.064 1.848 2.408 5.152 2.8 7.168 5.768 0 9.856-.112 12.656-1.288 2.688-1.064 3.64-3.08 3.64-7.112v-38.528h-7.056Zm-32.032 11.2v26.096h6.552v-26.096h-6.552Zm2.8 0v6.384h14.448v9.016H852.64v6.384h21.112v-21.784H852.64Zm-7.952-13.048v6.776h50.736v-6.776h-50.736Zm72.912 5.88c3.416 4.256 7 10.136 8.456 14.056l6.552-3.528c-1.624-3.92-5.208-9.408-8.848-13.496l-6.16 2.968Zm-18.2 29.456 2.352 7.168c6.328-2.688 14.616-6.16 22.064-9.52l-1.568-6.608c-8.176 3.416-17.08 7-22.848 8.96Zm32.816-5.04c5.152 5.712 11.984 13.496 14.952 18.48l5.712-5.544c-3.192-4.872-10.36-12.32-15.456-17.64l-5.208 4.704Zm7.616-30.856c-2.072 23.128-7.84 36.792-25.704 43.512 1.624 1.456 4.424 4.48 5.376 5.992 18.368-8.288 25.144-23.464 27.776-48.832l-7.448-.672Zm-34.048.224 1.288 36.4 7-.28-1.232-36.4-7.056.28Zm77.448 11.368H998.8v3.08h-15.568v-3.08Zm0-7.504H998.8v3.024h-15.568v-3.024Zm-6.048-4.76v20.16h27.946v-20.16h-27.946Zm4.2 18.704c-1.96 4.872-5.936 10.136-12.432 13.944 1.344.896 3.36 3.192 4.2 4.704 7.448-4.816 11.872-10.976 14.728-17.584l-6.496-1.064Zm1.624 4.592-3.808 5.488h23.69v-5.488h-19.882Zm17.582 0v1.064c-.39 13.832-.894 18.76-1.79 19.936-.504.616-.952.784-1.68.784-.896 0-2.576-.056-4.424-.28.728 1.456 1.4 3.696 1.456 5.208 2.52.056 4.76.056 6.218-.168 1.57-.224 2.8-.728 3.86-2.128 1.46-1.904 2.07-7.28 2.58-21.952.05-.784.05-2.464.05-2.464h-6.27Zm-23.686 6.44v10.472c0 5.208 1.232 6.832 6.944 6.832h6.888c4.032 0 5.6-1.344 6.328-6.496-1.624-.336-3.976-1.232-5.096-2.128-.168 2.912-.448 3.36-1.848 3.36h-5.488c-1.848 0-2.128-.224-2.128-1.68v-10.36h-5.6Zm14 .672c-2.576 1.736-7.112 3.584-11.2 4.76.672 1.12 1.512 2.968 1.792 4.032 4.592-1.12 9.912-2.8 13.944-4.928l-4.536-3.864Zm-29.568-27.328v6.048h6.496v19.768h-6.496v6.16h12.152v-31.976h-12.152Zm-3.752 0v36.624h5.824v-36.624h-5.824Zm63.556-4.424c-1.79 7.728-5.2 15.4-9.63 19.992 1.79.728 5.04 2.408 6.5 3.416 4.2-5.208 7.95-13.44 10.13-22.064l-7-1.344Zm1.01 8.288-1.96 6.608h40.21v-6.608h-38.25Zm-9.69 17.808v6.664h51.19v-6.664h-51.19Zm22.68-27.272v52.584h7.17v-52.584h-7.17Zm32.93 11.144v6.216h18.15V442.6h-18.15Zm7.56-11.144c-1.73 11.144-4.81 25.928-7.22 34.776l5.49 2.912c2.63-10.08 5.88-25.088 8.06-37.016l-6.33-.672Zm-4.25 33.88c5.32 3.472 11.76 8.792 14.61 12.656l3.98-5.376c-2.97-3.808-9.63-8.736-14.95-12.04l-3.64 4.76Zm12.48-22.736v1.232c-1.06 17.696-6.1 30.072-15.68 35.056 1.35 1.288 3.14 3.696 4.04 5.32 11.2-6.832 16.63-19.208 17.97-41.104l-4.03-.672-1.18.168h-1.12Zm6.05-8.176v6.048h18.31v-6.048h-18.31Zm18.76 15.456-.84 6.048h8.07v-6.048h-7.23Zm4.99 0v1.176c-.56 17.416-1.35 24.248-2.69 25.76-.62.672-1.18.784-2.13.784-1.18 0-3.75 0-6.44-.224 1.06 1.736 1.85 4.424 1.96 6.272 2.91.168 5.71.168 7.5-.112 1.96-.28 3.31-.84 4.71-2.632 1.9-2.296 2.57-9.52 3.3-28.28.06-.784.11-2.744.11-2.744h-6.32Zm-18.76-13.384c-.12 16.52.05 33.152-8.01 43.176 1.68 1.008 3.81 2.968 4.87 4.48 8.96-11.368 9.52-29.568 9.74-47.656h-6.6Zm11.64-2.072c-.28 7.56-1.12 17.304-2.07 23.408l6.11.448c.84-6.16 1.68-16.016 2.12-23.856h-6.16Zm39.15 30.184h7.28c-.9-7.728 11.37-8.736 11.37-16.912 0-7.448-5.94-11.256-14.06-11.256-5.99 0-10.92 2.744-14.5 6.888l4.59 4.2c2.74-2.856 5.54-4.424 8.96-4.424 4.42 0 7.11 1.904 7.11 5.32 0 5.432-11.93 7.392-10.75 16.184Zm3.69 14.952c2.8 0 4.93-2.072 4.93-4.984s-2.13-4.928-4.93-4.928c-2.85 0-4.98 2.016-4.98 4.928s2.07 4.984 4.98 4.984Z" fill="#424242"/></g><defs><clipPath id="a"><path fill="#fff" d="M0 0h1440v810H0z"/></clipPath></defs></svg>