<svg width="1440" height="810" fill="none" xmlns="http://www.w3.org/2000/svg"><path d="M347.1 388.38h25.5v2.52h-25.5v-2.52Zm0-6.78h25.5v2.46h-25.5v-2.46Zm-6.9-4.62v18.54h39.6v-18.54h-39.6Zm-7.08 20.7v5.76h53.64v-5.76h-53.64Zm27.48 7.98v5.52h19.62v-5.52H360.6Zm-18.3.18v4.98h13.68v-4.98H342.3Zm0 7.5v4.98h13.68v-4.98H342.3Zm25.68-2.7-5.76 1.62c4.08 9.36 11.22 16.08 21.6 19.08.9-1.68 2.76-4.32 4.26-5.58-9.66-2.28-16.74-7.8-20.1-15.12Zm10.14-4.98v1.02c-2.64 9.24-10.38 16.14-19.68 19.08 1.32 1.32 3.12 3.9 3.9 5.58 10.68-4.02 19.14-11.7 22.68-24.24l-4.44-1.68-1.2.24h-1.26Zm-45.54 16.44.48 6.18c6.3-.54 14.7-1.32 22.74-2.1v-5.82c-8.4.72-17.22 1.38-23.22 1.74Zm19.68-22.56v31.86h6.9v-31.86h-6.9Zm-14.46.18v24.48h6.6v-24.48h-6.6Zm80.22-7.86v6.66h29.46v-6.66h-29.46Zm12.24 2.94v26.22h7.14V394.8h-7.14Zm-16.14-16.08v13.74c0 7.02-.66 16.08-6.84 22.62 1.68.9 4.32 3.42 5.22 4.98 7.5-7.68 8.64-19.56 8.64-27.42v-11.22c1.08-.24 1.56-.54 1.62-1.14l-8.64-1.56Zm25.26-3.54c-5.34 2.1-14.28 4.02-22.38 5.16.84 1.5 1.86 4.14 2.16 5.76 8.64-1.02 18.66-2.82 26.16-5.46l-5.94-5.46Zm-32.76 23.28h-14.04v6.66h7.02v15.42h7.02v-22.08Zm0 18.96h-6.6c-2.76 2.16-6 4.26-8.7 5.94l3.54 7.5c3.24-2.64 5.94-4.92 8.58-7.26 3.9 4.68 8.88 6.42 16.26 6.72 7.2.3 19.32.18 26.58-.18.3-2.16 1.5-5.64 2.28-7.32-8.1.66-21.72.84-28.74.54-6.24-.24-10.8-1.98-13.2-5.94Zm-13.92-36.66c3.54 2.7 7.86 6.72 9.66 9.54l5.76-4.74c-2.1-2.82-6.48-6.6-10.08-9.12l-5.34 4.32Zm87.06 1.14c5.1 7.14 15.18 15.48 24.42 20.58 1.32-2.22 2.94-4.62 4.74-6.48-9.54-4.08-19.32-11.94-25.74-21.18h-7.5c-4.44 7.44-14.16 16.68-24.48 21.9 1.56 1.5 3.6 4.14 4.56 5.82 9.84-5.46 19.02-13.56 24-20.64Zm-20.4 28.14v6.24h41.04v-6.24h-41.04Zm3.06-13.26v6.3h35.22v-6.3h-35.22Zm-7.86 26.76v6.42h51.24v-6.42h-51.24Zm21.42-23.94v27.54h7.62V399.6h-7.62Zm36.3-19.98v6.66h20.22v-6.66h-20.22Zm19.56 5.52v6.6h36.48v-6.6h-36.48Zm-19.08 11.22v6.66h19.08v-6.66h-19.08Zm-1.62 20.94 1.86 6.78c5.88-1.8 13.38-4.2 20.4-6.6l-.96-6.06c-7.74 2.22-15.96 4.56-21.3 5.88Zm34.92-42.3v48.24c0 .96-.36 1.26-1.26 1.26-.96 0-3.78.06-6.72-.06 1.02 1.86 2.22 4.98 2.46 6.9 4.5 0 7.56-.24 9.66-1.44 2.1-1.2 2.82-3.12 2.82-6.66V375h-6.96Zm-18.18 43.68 3.66 6.42c4.2-2.64 9.3-6.06 13.8-9.3l-2.16-5.94c-5.58 3.36-11.46 6.9-15.3 8.82Zm4.5-21.78c2.28 3.36 4.68 7.92 5.58 10.8l5.88-2.76c-.96-2.94-3.6-7.32-5.88-10.5l-5.58 2.46Zm29.46-3.12c-1.68 3.42-4.62 7.98-6.9 10.8l5.1 2.88c2.4-2.64 5.4-6.66 8.1-10.38l-6.3-3.3Zm-6.6-14.76c2.76 1.92 6.18 4.74 7.8 6.72l4.14-4.14c-1.68-1.92-5.22-4.62-8.04-6.3l-3.9 3.72ZM519 382.38v36l6.96-1.08v-34.92H519Zm33.78 10.08-5.94 1.08c2.64 15.3 6.9 24.84 18.06 33.3.84-1.92 2.76-4.2 4.44-5.52-10.14-6.9-14.22-15.06-16.56-28.86Zm50.94-17.34c-3.06 2.04-8.04 4.38-12.54 5.94.78 1.32 1.74 3.48 2.1 4.86 4.92-1.44 10.8-3.54 15.48-5.82l-5.04-4.98Zm-13.26 3.72v19.86c0 8.4-.36 19.62-4.56 27.9 1.5.72 3.96 2.82 4.86 4.2 5.1-9.42 5.82-23.1 5.82-32.04v-16.8c1.02-.18 1.38-.42 1.44-.96l-7.56-2.16Zm3.3 14.34v6.54h14.04v-6.54h-14.04Zm5.7 3.84v34.2h5.88v-34.2h-5.88Zm12.36-21.96c-.9 9.54-2.7 18.84-6.3 24.72 1.38.96 3.72 3 4.62 4.08 4.08-6.78 6.36-17.22 7.56-27.96l-5.88-.84Zm5.22 15.78h-3.12v11.22c0 4.92-1.08 17.1-9 24 1.08 1.2 2.7 3.9 3.36 5.34 5.7-4.98 8.22-13.98 8.76-18.6.48 4.38 2.76 13.86 8.1 18.6.9-1.56 2.64-4.14 3.72-5.52-7.62-6.78-8.76-18.9-8.76-23.76v-11.28h-3.06Zm-5.04-4.26v6.3h12.6v-6.3H612Zm10.98 0v.96c-.24 4.92-.84 11.1-1.62 15l4.56 1.5c1.2-4.32 2.16-10.98 2.7-16.74l-3.84-.96-.96.24h-.84ZM571.14 405l1.56 6.9c5.16-1.44 11.58-3.36 17.52-5.16l-.9-6.48c-6.66 1.86-13.5 3.66-18.18 4.74Zm1.02-18.54v6.6h17.22v-6.6h-17.22Zm6.18-11.4v48.9c0 .78-.3 1.02-1.02 1.02s-2.82 0-4.98-.06c.84 1.86 1.62 4.74 1.86 6.54 3.78 0 6.42-.24 8.16-1.32 1.86-1.14 2.4-2.94 2.4-6.18v-48.9h-6.42Zm55.8 5.94v6.3h24.6V381h-24.6Zm31.14 11.88v6.24h16.44v-6.24h-16.44Zm-32.82-.06v6.36h27.78v-6.36h-27.78Zm15.66 12.84v6.24h11.58v-6.24h-11.58Zm-5.04-30.42v21h6.78v-21h-6.78Zm1.5 21.66v26.7h6.6v-26.7h-6.6Zm17.4-19.56v6.36h15.84v16.92h6.96v-23.28h-22.8Zm.54 15.54v18.6c0 6.9 2.04 8.82 8.7 8.82h8.52c5.82 0 7.68-2.46 8.46-11.52-1.86-.42-4.86-1.56-6.3-2.7-.24 6.72-.6 7.8-2.76 7.8h-6.96c-2.34 0-2.76-.3-2.76-2.46v-18.54h-6.9Zm-22.38 15.66-5.16 1.5c4.14 16.86 11.94 19.86 27.78 19.86h23.28c.48-2.16 1.68-5.52 2.82-7.14-5.46.3-21.48.3-26.1.24-12.66 0-19.44-1.86-22.62-14.46Zm-5.58-5.88c-.12 10.38-.72 20.4-3.72 26.46 1.62.66 4.8 2.22 6.06 3.06 3.06-6.9 3.96-17.58 4.26-29.04l-6.6-.48Zm57.72-3.96v7.86h55.56v-7.86h-55.56Zm89.58-21.84v6.66h14.88v-6.66h-14.88Zm-5.4 23.58v6.6h23.88v-6.6h-23.88Zm2.58-23.58v6.78c0 3.9-.54 8.4-5.82 11.82 1.44.9 4.38 3.36 5.4 4.62 6.12-4.14 7.32-10.74 7.32-16.26v-6.96h-6.9Zm13.92 0v13.5c0 6 1.44 7.8 6.18 7.8h3.42c3.96 0 5.58-2.1 6.18-9.96-1.8-.36-4.62-1.5-5.88-2.52-.18 5.58-.36 6.42-1.08 6.42h-1.38c-.6 0-.66-.18-.66-1.8v-13.44h-6.78Zm-8.34 29.94-6.6 2.22c5.4 10.74 14.1 18.72 25.92 22.56 1.08-1.86 3.24-4.8 4.92-6.3-11.22-3-20.04-9.84-24.24-18.48Zm13.32-6.36v1.14c-3.06 11.88-12.54 20.28-24.42 23.64 1.38 1.5 3.24 4.38 4.02 6.24 13.32-4.68 23.52-13.8 27.66-29.46l-4.62-1.8-1.26.24h-1.38Zm-39.72-23.28v6.66h13.2v-6.66h-13.2Zm0 13.44v6.66h13.44v-6.66h-13.44Zm-.06 13.68v6.78h13.32v-6.78h-13.32Zm-2.76-27.12V399c0 8.82-.24 20.94-4.02 29.22 1.62.6 4.56 2.22 5.82 3.3 4.08-8.94 4.68-22.86 4.68-32.52v-21.84h-6.48Zm12.06 0v46.32c0 .78-.3 1.02-.96 1.02-.78.06-3 .06-5.16 0 .9 1.8 1.8 5.04 1.98 6.9 3.84 0 6.48-.12 8.34-1.32 1.98-1.2 2.46-3.24 2.46-6.48v-46.44h-6.66Zm45.24 1.5v6.3h54.84v-6.3H812.7Zm16.14-3.6v18.48h21.48v-18.48h-6.54v13.26h-8.64v-13.26h-6.3Zm-7.62 15.78v24.9h6.36v-24.9h-6.36Zm-7.68 4.02v6.06h11.04v-6.06h-11.04Zm-1.38 13.74 1.32 6.18c3.6-1.2 7.44-2.52 11.22-3.9l-.84-5.46c-4.44 1.2-8.58 2.46-11.7 3.18Zm39.48-17.7v16.74c0 5.64 1.08 7.44 6.24 7.44h4.02c3.84 0 5.4-1.98 6-8.64-1.68-.42-4.26-1.38-5.46-2.4-.18 4.62-.42 5.4-1.32 5.4h-2.1c-.78 0-.9-.18-.9-1.86V390.9h-6.48Zm11.58 2.46c-2.22 1.92-5.76 4.2-8.94 5.76.72 1.26 1.62 3.36 1.98 4.68 3.48-1.38 7.74-3.3 11.34-5.4l-4.38-5.04Zm-26.7 8.1h5.94v7.2h-5.94v-7.2Zm-5.82-5.16v17.58h17.88V396.3H830.7Zm-.84 22.5c.72 3.9 1.2 8.94 1.2 12.06l7.08-1.08c-.06-3-.78-7.98-1.62-11.76l-6.66.78Zm11.94.12c1.44 3.84 2.82 8.88 3.24 11.94l7.2-1.44c-.54-3.12-2.1-7.98-3.66-11.64l-6.78 1.14Zm12.06-.36c2.82 4.02 6.18 9.54 7.5 12.9l7.14-3.06c-1.56-3.42-5.16-8.7-7.98-12.48l-6.66 2.64Zm-34.92-2.1c-1.56 4.5-4.5 9.24-7.44 11.82l6.78 2.94c3.24-3.24 6.06-8.22 7.62-13.02l-6.96-1.74Zm54.72-36.3v6.24h52.74v-6.24h-52.74Zm34.92 27.72v.96c-4.8 10.2-18.54 14.94-34.08 16.5 1.14 1.56 2.46 4.32 3 6.12 16.92-2.34 31.68-7.98 38.16-21.54l-4.5-2.28-1.2.24h-1.38Zm-13.5-4.2c-3.66 4.2-10.14 8.64-18.78 11.88 1.5.96 3.6 3.18 4.62 4.68 9.18-4.02 16.02-9 21.36-14.94l-7.2-1.62Zm-1.26 4.2-5.22 5.22h22.26v-5.22h-17.04Zm2.52-32.88v28.68h6.9V375h-6.9Zm.42 15.06c-4.92 7.74-14.82 14.22-25.56 17.1 1.38 1.32 3.24 3.84 4.14 5.46 11.22-3.66 20.94-11.1 26.7-20.58l-5.28-1.98Zm6.18.06-5.34 2.16c6 9.3 16.02 17.04 26.88 20.88.96-1.68 2.94-4.26 4.38-5.58-10.68-3.12-20.82-9.84-25.92-17.46Zm-19.86-3.96c-1.74 4.92-5.46 9.12-10.26 11.7 1.38.9 3.72 2.94 4.74 4.08 4.98-3.24 9.3-8.34 11.58-14.58l-6.06-1.2Zm-1.44 7.92c2.28 1.5 5.34 3.66 6.78 5.04l3.78-4.56c-1.56-1.32-4.68-3.3-6.96-4.56l-3.6 4.08Zm31.14-7.86c-1.38 3.78-4.08 7.32-7.38 9.6 1.38.96 3.66 3 4.74 4.14 3.54-2.88 6.78-7.44 8.58-12.24l-5.94-1.5Zm-1.38 7.62c3.9 2.34 9.06 5.94 11.58 8.16l3.78-4.56c-2.64-2.16-7.92-5.46-11.7-7.62l-3.66 4.02Zm-23.7 25.14c9.84 3.42 23.4 9 29.94 12.6l6.3-4.98c-7.5-3.72-21.18-8.88-30.42-11.88l-5.82 4.26ZM932.22 387v6.66h19.44V387h-19.44Zm8.1-11.94c-1.86 11.94-5.16 27.78-7.74 37.26l5.88 3.12c2.82-10.8 6.3-26.88 8.64-39.66l-6.78-.72Zm-4.56 36.3c5.7 3.72 12.6 9.42 15.66 13.56l4.26-5.76c-3.18-4.08-10.32-9.36-16.02-12.9l-3.9 5.1ZM949.14 387v1.32c-1.14 18.96-6.54 32.22-16.8 37.56 1.44 1.38 3.36 3.96 4.32 5.7 12-7.32 17.82-20.58 19.26-44.04l-4.32-.72-1.26.18h-1.2Zm6.48-8.76v6.48h19.62v-6.48h-19.62Zm20.1 16.56-.9 6.48h8.64v-6.48h-7.74Zm5.34 0v1.26c-.6 18.66-1.44 25.98-2.88 27.6-.66.72-1.26.84-2.28.84-1.26 0-4.02 0-6.9-.24 1.14 1.86 1.98 4.74 2.1 6.72 3.12.18 6.12.18 8.04-.12 2.1-.3 3.54-.9 5.04-2.82 2.04-2.46 2.76-10.2 3.54-30.3.06-.84.12-2.94.12-2.94h-6.78Zm-20.1-14.34c-.12 17.7.06 35.52-8.58 46.26 1.8 1.08 4.08 3.18 5.22 4.8 9.6-12.18 10.2-31.68 10.44-51.06h-7.08Zm12.48-2.22c-.3 8.1-1.2 18.54-2.22 25.08l6.54.48c.9-6.6 1.8-17.16 2.28-25.56h-6.6Zm28.08-.78v6.72h35.88v-6.72h-35.88Zm-3.48 0v21c0 9.06-.54 21.12-6.66 29.22 1.62.78 4.68 2.7 5.88 3.9 6.66-8.82 7.62-23.1 7.62-33.12v-21h-6.84Zm36.42 0c.06 28.56-.6 54 8.88 54 3.78 0 5.16-3.36 5.82-10.68-1.26-1.26-2.88-3.66-4.08-5.64-.06 4.8-.48 8.52-.96 8.52-2.88 0-2.88-22.5-2.58-46.2h-7.08Zm-18.24 14.1v31.5h6.24v-31.5h-6.24Zm-3.78 10.44h13.98v6.6h-13.98V402Zm-5.52-5.46v17.52h25.32v-17.52h-25.32Zm22.02-11.46c-5.64 1.56-15.12 2.52-23.46 3 .72 1.44 1.56 3.84 1.74 5.34 8.7-.3 19.02-1.26 26.46-3.18l-4.74-5.16Zm-24.72 35.88.48 6.42c7.2-.54 17.16-1.32 26.64-2.16v-5.88c-9.9.66-20.28 1.32-27.12 1.62Zm20.76-5.1c2.34 4.32 4.56 10.02 5.22 13.62l5.88-1.92c-.78-3.72-3.18-9.24-5.64-13.38l-5.46 1.68Zm47.88-12.54h7.74v3.18h-7.74v-3.18Zm0-7.62h7.74v3.06h-7.74v-3.06Zm-5.7-4.8v20.4h19.38v-20.4h-19.38Zm33-13.74v46.08c0 .84-.24 1.08-.9 1.08-.72 0-2.94 0-4.98-.12.84 1.8 1.62 5.04 1.8 6.9 3.78 0 6.24-.24 8.16-1.38 1.86-1.14 2.28-3.18 2.28-6.36v-46.2h-6.36Zm-11.1 0v24.54c0 8.34-.36 18.96-5.1 26.04 1.44.72 4.14 2.76 5.22 3.84 5.34-7.8 6.18-20.64 6.18-29.88v-24.54h-6.3Zm2.88 0v6.42h11.28v-6.42h-11.28Zm0 13.68v6.42h11.1v-6.42h-11.1Zm-25.5-9.6v6.18h20.82v-6.18h-20.82Zm-.96 33.72v6.36h21.96v-6.36h-21.96Zm26.46-10.2v6.42h11.1v-6.42h-11.1Zm-18.24-29.46v17.76h6.54V375.3h-6.54Zm0 35.16v20.94h6.54v-20.94h-6.54Zm-20.58-30.54c3 2.28 6.78 5.7 8.4 7.98l4.98-4.74c-1.8-2.22-5.7-5.34-8.7-7.44l-4.68 4.2Zm-1.92 15.78c3.18 2.1 7.38 5.22 9.3 7.26l4.5-5.1c-2.1-2.1-6.42-4.92-9.6-6.78l-4.2 4.62Zm1.2 31.8 6.36 3.42c2.28-6.24 4.68-13.68 6.54-20.52l-5.64-3.54c-2.16 7.5-5.1 15.6-7.26 20.64Z" fill="#424242"/><path d="m281.323 254.706-24.365 5.134a.854.854 0 0 0-.543 1.285l7.997 12.869a.853.853 0 0 1-1.106 1.209l-13.37-6.945a.837.837 0 0 0-.804-.008.854.854 0 0 0-.445.673l-2.893 28.313a.84.84 0 0 1-.801.763.844.844 0 0 1-.867-.688l-5.266-27.943a.846.846 0 0 0-1.25-.564l-12.751 8.042a.849.849 0 0 1-1.28-.579.853.853 0 0 1 .081-.537l6.872-13.483a.848.848 0 0 0 .015-.791.857.857 0 0 0-.64-.463l-26.164-3.033a.855.855 0 0 1-.742-.811.851.851 0 0 1 .673-.869l25.821-5.203a.838.838 0 0 0 .352-.174.844.844 0 0 0 .198-1.079l-7.991-12.863a.859.859 0 0 1 .57-1.288.85.85 0 0 1 .536.079l13.363 6.945a.845.845 0 0 0 1.111-.279.85.85 0 0 0 .139-.392l2.892-29.266a.85.85 0 0 1 .261-.53.838.838 0 0 1 1.104-.046.85.85 0 0 1 .303.507l5.311 28.921a.844.844 0 0 0 1.249.564l12.738-8.035a.845.845 0 0 1 1.021.102.852.852 0 0 1 .179 1.013l-6.903 13.489a.857.857 0 0 0 .624 1.254l24.709 3.028a.847.847 0 0 1 .738.813.849.849 0 0 1-.676.866ZM1190.31 538.379c-.68.605-1.24 1.655-1.78 2.67-.12.225-1.37 2.063-1.66 2.416a33.157 33.157 0 0 1-1.33 3.393c-.19.43-.47.813-.75 1.194-.31.425-.61.848-.8 1.331-.12.306-.28.671-.46 1.023.09-.065.19-.124.28-.18 2.13-1.26 3.86-3.738 5.65-5.346 1.05-.937 2.09-1.875 3.09-2.868.62-.624 1.34-1.222 2.07-1.83 1.82-1.51 3.7-3.081 4.39-5.254.5-1.548.86-3.15 1.15-4.745.3-1.606.57-2.986 1.74-4.209 2.01-2.116 4.31-3.013 7.27-2.962 1.46.025 2.93.131 4.4.238.45.033.91.066 1.37.097.49.033.76-.055 1.16-.187 0 0 .04-.017.07-.026 1.76-.555-.47 2.872-1.1 4.535-.32.85-.64 1.7-.86 2.485l-.39 1.464c-.21.803-.42 1.606-.65 2.4-.43 1.435-1.35 2.392-2.4 3.433-.74.735-1.54 1.366-2.54 1.7-.46.149-.92.24-1.38.33-.51.099-1.01.198-1.51.375l-.51.18c-1.65.581-3.19 1.12-4.5 2.373-.82.778-1.26 1.809-1.69 2.836-.25.595-.5 1.188-.83 1.731-.44.741-.9 1.497-1.45 2.164-2.32 2.813-7.98 3.14-11.1 2.982-.04-.002-.11-.003-.21-.005-.55-.007-1.88-.026-2.32-.336-.07.22-.11.471-.15.702-.03.165-.06.32-.09.446l-.91 3.377c-.22.828-.38 1.663-.53 2.497-.16.831-.31 1.66-.53 2.478-.42 1.572-.9 3.118-1.39 4.665-.04.143-.09.286-.13.43 1.39-1.511 3.21-2.546 5.29-2.766.33-.035.66-.047.99-.059 1.11-.041 2.18-.08 2.95-1.012.16-.191.32-.384.48-.578 1.08-1.303 2.19-2.64 3.4-3.793 1.78-1.679 6.17-1.676 8.27-2.444.77-.281 1.53-.605 2.29-.93 1.24-.525 2.48-1.052 3.75-1.401l.28-.09c.57-.19 1.77-.589 1.94-.441.43.376-1.1 4.223-1.24 4.748-.57 2.124-1.12 4.203-2.84 5.73-1.45 1.293-2.85 1.19-4.62.733-1.79-.464-4.08-.989-5.62.345-.72.629-1.11 1.556-1.49 2.471-.23.562-.46 1.12-.77 1.602-.83 1.292-2.06 2.332-3.25 3.329-.21.176-.42.35-.62.524-1.5 1.279-3.17 2.259-5.05 2.902-1.14.39-5.93.539-7.28-.226-.49.862-.91 1.742-1.34 2.632-.17.36-.34.721-.52 1.083-.64 1.295-1.37 2.531-2.1 3.761.29-.167.63-.313 1.01-.437.74-.241 1.47-.528 2.2-.814 1.19-.47 2.39-.94 3.65-1.209 2.36-.503 5.44-.678 7.83-.282.66.109 1.31.218 2.01.223 1.18.009 2.16-.825 3.06-1.581.2-.174.4-.344.6-.498 1.57-1.239 3.31-1.442 5.28-1.562 2.55-.155 5.16-.025 7.33 1.501.56.391 2.1 1.025 1.48 1.896-.31.435-2.54-.184-3.96.125-1.69.366-3.16 1.352-4.57 2.291l-.03.023c-.12.083-.25.166-.38.25-.64.423-1.31.865-1.85 1.384-.42.398-.79.841-1.17 1.284-.36.427-.72.856-1.12 1.245-1.9 1.836-4.02 3.14-6.69 3.433-1.41.154-2.7-.132-4.02-.424-.52-.115-1.04-.231-1.58-.321-.75-.128-1.49-.331-2.23-.534-.47-.128-.93-.256-1.4-.365-2.55-.593-6.48-.247-8.74.449-.48 1.335-1.26 3.501-2.06 5.747-1.42 3.951-2.93 8.149-3.02 8.501-.27.996-2.42.342-2.89-.312-.33-.475 4.33-13.43 5.3-15.776-.46-.276-.93-.537-1.4-.8-1.05-.581-2.11-1.168-3.06-1.928-.89-.715-1.25-1.373-1.56-2.443-.16-.512-.18-1.037-.21-1.561-.02-.472-.04-.945-.16-1.41-.34-1.376-1.02-2.48-1.73-3.634-.23-.364-.45-.732-.67-1.116-1-1.735-1.49-3.651-1.55-5.638-.04-1.566.58-3.174 1.16-4.679.15-.387.29-.767.43-1.138.31-.888.67-1.759 1.03-2.629.49-1.184.97-2.367 1.35-3.592l.04-.116c.59-1.917 1.22-3.962 2.09-5.772.11-.25.28-.486.45-.718a9.7 9.7 0 0 0 .28-.4c.43-.202.75.645 1.09 1.538.21.573.44 1.164.7 1.511.96 1.257 2.08 2.75 2.15 4.383.04.836-.16 1.706-.36 2.576-.25 1.066-.49 2.132-.3 3.137.34 1.786.81 3.606 1.64 5.223.72 1.421 1.09 2.886 1.45 4.372.17.66.33 1.324.53 1.99.6 2.006 1.06 4.06.7 6.144.18-.287.36-.576.52-.871.58-1.054 1.07-2.131 1.56-3.212.25-.562.51-1.125.77-1.687 1.56-3.256 2.88-6.425 3.82-9.917.39-1.439.78-2.854 1.24-4.261-.29-.105-.65-.205-.95-.292-.33-.092-.6-.168-.67-.214-.66-.408-1.25-1.444-1.71-2.049-1.15-1.523-2.25-2.965-2.9-4.843-.57-1.649-.51-3.325-.46-5.011.02-.413.03-.827.03-1.241.03-2.209-.95-4.539-2.43-6.19-1.86-2.083-3.3-4.146-3.8-6.946-.18-1.019.17-2.134.49-3.15.07-.237.14-.47.21-.694.26-.908.7-1.79 1.14-2.66.19-.391.39-.78.57-1.167 1.5-3.292 2.69-6.691 3.83-10.126.45-1.673 1.45-1.47 1.14-.32l.02.09c.48 2.286.97 4.609 2.7 6.327 1.72 1.702 2.96 3.205 3.31 5.656.14.948.07 1.801-.17 2.715-.27.98-.2 1.948-.11 2.952.09.954.11 1.941.12 2.935.04 1.936.07 3.899.63 5.7.4 1.29.63 2.61.86 3.931.12.703.24 1.406.38 2.105.31 1.435.48 2.839.63 4.29.04.333.05.658.04.976.09-.264.19-.523.31-.772.08-.161.16-.317.24-.472.23-.433.45-.856.58-1.344.2-.755.53-1.448.86-2.147.2-.431.41-.864.58-1.314.51-1.296 1.13-2.531 1.78-3.752.2-.373.38-.778.54-1.2-.17-.382-.45-.734-.74-1.084-.21-.267-.42-.534-.59-.813-.1-.172-.2-.341-.31-.509-.45-.74-.89-1.463-1.04-2.347-.08-.439-.18-.863-.27-1.283-.18-.741-.35-1.474-.38-2.271-.03-1.035.1-1.976.23-2.956l.12-.871c.19-1.585.59-3.098.98-4.614.29-1.088.58-2.177.79-3.295.16-.836.11-1.732.07-2.613-.02-.429-.04-.854-.04-1.267.01-1.21-.21-2.39-.48-3.564a7.142 7.142 0 0 0-.38-1.083 8.666 8.666 0 0 1-.3-.845c-.18-.591-.19-1.205-.2-1.816 0-.195 0-.39-.01-.583-.07-1.608.42-3.299.89-4.902.11-.403.23-.801.33-1.19.58-2.141 1.92-4.158 3.19-5.997.31-.456.63-.914.89-1.398 1.38-2.491 2.11-6.596 2.47-9.171.05-.399.09-.8.12-1.2.34-1.278.36-2.309.92-2.691.93.557 2.22 4.121 2.84 5.976.53 1.598.94 3.292.9 4.976-.01.849-.29 1.714-.57 2.565-.16.496-.32.987-.42 1.467-.32 1.449-.08 3.029.14 4.502.03.174.06.345.08.515.22 1.476.43 2.907.8 4.364.24.947.26 1.951.28 2.947.02.57.03 1.137.08 1.689l.09.807c.14 1.158.29 2.431.01 3.505-.16.664-.35 1.324-.54 1.985a45.733 45.733 0 0 0-.79 3.025c-.17.804-.22 1.673-.28 2.525-.02.371-.04.739-.08 1.097-.23 2.605-.61 5.055-1.29 7.582-.3 1.147-.74 2.261-1.27 3.325-.44.891-.94 1.387-1.66 2.032Z" fill="#E7D3A1"/></svg>