<svg width="1440" height="810" fill="none" xmlns="http://www.w3.org/2000/svg"><path d="M336.861 219.968h-10.896v5.328h5.376v12.336h5.52v-17.664Zm0 15.408h-4.992c-2.112 1.776-4.464 3.504-6.48 4.8l2.736 5.712c2.4-2.064 4.416-3.888 6.336-5.76 2.88 3.696 6.768 5.088 12.528 5.328 5.856.288 16.08.192 22.08-.096.24-1.68 1.152-4.32 1.776-5.616-6.672.528-18.048.672-23.808.384-4.944-.192-8.352-1.584-10.176-4.752Zm-10.752-29.664c2.736 2.352 5.952 5.664 7.248 8.016l4.752-3.648c-1.488-2.256-4.848-5.472-7.584-7.584l-4.416 3.216Zm11.52 8.016v3.984h32.304v-3.984h-32.304Zm9.168 8.688h13.776v2.448h-13.776v-2.448Zm-5.328-3.216v8.88h24.816v-8.88h-24.816Zm10.32 6.096c-2.928 3.6-8.496 6.576-13.92 8.352 1.056 1.008 2.64 3.12 3.312 4.224 5.712-2.304 11.808-6.192 15.408-10.896l-4.8-1.68Zm13.296.768c-1.488 1.536-4.128 3.792-6.096 5.04l3.024 2.304c2.064-1.104 4.656-2.832 7.152-4.56l-4.08-2.784Zm-9.504 1.2-4.128 1.2c3.168 5.04 8.64 8.688 15.408 10.272.672-1.344 2.064-3.312 3.168-4.32-6.336-1.008-11.76-3.552-14.448-7.152Zm3.984-21.552h3.072v3.312h-3.072v-3.312Zm-7.392 0h3.024v3.312h-3.024v-3.312Zm-7.296 0h2.976v3.312h-2.976v-3.312Zm-4.848-3.216v9.792h27.696v-9.792h-27.696Zm10.464 23.808v12.912h5.472v-12.912h-5.472Zm24.432-4.56v5.088h42.528v-5.088h-42.528Zm21.504 8.688v4.944h17.952v-4.944h-17.952Zm-2.688-6.096v17.76h5.808v-17.76h-5.808Zm-7.44 7.68-4.752 1.536c3.936 10.032 10.512 12 21.552 12h13.728c.288-1.68 1.152-4.224 1.968-5.472-3.456.096-12.72.144-15.36.096-8.4-.048-14.496-1.152-17.136-8.16Zm-4.176-4.176c-1.104 6.432-4.032 11.52-8.928 14.544 1.248.864 3.456 2.976 4.32 4.032 5.328-3.792 8.784-9.84 10.368-17.76l-5.76-.816Zm2.832-14.688h22.032v2.4h-22.032v-2.4Zm0-6.192h22.032v2.4h-22.032v-2.4Zm-5.568-4.08v16.752h33.456V202.88h-33.456Zm43.705 35.862c0-1 .344-1.836 1.031-2.508.703-.672 1.633-1.007 2.789-1.007 1.156 0 2.078.335 2.766 1.007.703.672 1.054 1.508 1.054 2.508s-.351 1.836-1.054 2.508c-.688.672-1.61 1.008-2.766 1.008s-2.086-.336-2.789-1.008c-.687-.672-1.031-1.508-1.031-2.508Zm13.922 0c0-1 .343-1.836 1.031-2.508.703-.672 1.633-1.007 2.789-1.007 1.156 0 2.078.335 2.766 1.007.703.672 1.054 1.508 1.054 2.508s-.351 1.836-1.054 2.508c-.688.672-1.61 1.008-2.766 1.008s-2.086-.336-2.789-1.008c-.688-.672-1.031-1.508-1.031-2.508Zm13.922 0c0-1 .343-1.836 1.031-2.508.703-.672 1.633-1.007 2.789-1.007 1.156 0 2.078.335 2.765 1.007.704.672 1.055 1.508 1.055 2.508s-.351 1.836-1.055 2.508c-.687.672-1.609 1.008-2.765 1.008-1.156 0-2.086-.336-2.789-1.008-.688-.672-1.031-1.508-1.031-2.508Zm44.569-37.35c-1.632 6.672-4.56 13.296-8.208 17.424 1.296.864 3.6 2.736 4.608 3.744 3.84-4.752 7.248-12.288 9.264-19.872l-5.664-1.296Zm-1.344 21.36c-1.104 5.328-3.168 10.8-5.856 14.16 1.344.72 3.792 2.208 4.896 3.12 2.688-3.888 5.184-10.032 6.528-16.128l-5.568-1.152Zm2.4-12.912-2.16 5.328h21.84v-5.328h-19.68Zm5.52 2.352v27.648c0 .624-.24.768-.864.768-.672 0-2.688.048-4.704-.048.816 1.584 1.68 4.128 1.968 5.808 3.072 0 5.424-.24 7.104-1.152 1.728-.96 2.208-2.544 2.208-5.328v-27.696h-5.712ZM509.475 224c2.352 4.944 4.368 11.568 4.896 15.888l5.52-1.92c-.672-4.368-2.736-10.752-5.232-15.696L509.475 224Zm5.232-14.16v.768c-.336 3.36-.864 7.632-1.296 10.224l4.944.864c.624-2.88 1.488-7.344 2.064-11.28l-4.032-.72-.912.144h-.768Zm-29.472-8.4c-2.448 6.864-6.624 13.68-10.992 18.048 1.008 1.392 2.544 4.56 3.072 5.952 5.232-5.472 10.224-14.112 13.344-22.32l-5.424-1.68Zm-4.656 13.248v31.584h5.52v-37.008l-.048-.048-5.472 5.472Zm54 5.28h-10.896v5.328h5.376v12.336h5.52v-17.664Zm0 15.408h-4.992c-2.112 1.776-4.464 3.504-6.48 4.8l2.736 5.712c2.4-2.064 4.416-3.888 6.336-5.76 2.88 3.696 6.768 5.088 12.528 5.328 5.856.288 16.08.192 22.08-.096.24-1.68 1.152-4.32 1.776-5.616-6.672.528-18.048.672-23.808.384-4.944-.192-8.352-1.584-10.176-4.752Zm-10.752-29.664c2.736 2.352 5.952 5.664 7.248 8.016l4.752-3.648c-1.488-2.256-4.848-5.472-7.584-7.584l-4.416 3.216Zm11.52 8.016v3.984h32.304v-3.984h-32.304Zm9.168 8.688h13.776v2.448h-13.776v-2.448Zm-5.328-3.216v8.88h24.816v-8.88h-24.816Zm10.32 6.096c-2.928 3.6-8.496 6.576-13.92 8.352 1.056 1.008 2.64 3.12 3.312 4.224 5.712-2.304 11.808-6.192 15.408-10.896l-4.8-1.68Zm13.296.768c-1.488 1.536-4.128 3.792-6.096 5.04l3.024 2.304c2.064-1.104 4.656-2.832 7.152-4.56l-4.08-2.784Zm-9.504 1.2-4.128 1.2c3.168 5.04 8.64 8.688 15.408 10.272.672-1.344 2.064-3.312 3.168-4.32-6.336-1.008-11.76-3.552-14.448-7.152Zm3.984-21.552h3.072v3.312h-3.072v-3.312Zm-7.392 0h3.024v3.312h-3.024v-3.312Zm-7.296 0h2.976v3.312h-2.976v-3.312Zm-4.848-3.216v9.792h27.696v-9.792h-27.696Zm10.464 23.808v12.912h5.472v-12.912h-5.472Zm24.288-18.384v5.52h42.816v-5.52h-42.816Zm15.648 15.552v5.328h25.152v-5.328h-25.152Zm-1.872 16.32v5.328h28.848v-5.328h-28.848Zm11.664-24.288v27.12h5.808v-27.12h-5.808Zm-10.32-14.304c-2.496 9.696-7.968 20.448-16.656 26.112.864 1.392 2.208 3.936 2.784 5.568 10.272-7.008 16.32-18.672 19.872-30.24l-6-1.44Zm-9.6 20.112v24.912h5.808v-24.912h-5.808Zm64.896-7.392h13.344v2.64h-13.344v-2.64Zm0-6.432h13.344v2.592h-13.344v-2.592Zm-5.184-4.08v17.28h23.952v-17.28h-23.952Zm3.6 16.032c-1.68 4.176-5.088 8.688-10.656 11.952 1.152.768 2.88 2.736 3.6 4.032 6.384-4.128 10.176-9.408 12.624-15.072l-5.568-.912Zm1.392 3.936-3.264 4.704h20.304v-4.704h-17.04Zm15.072 0v.912c-.336 11.856-.768 16.08-1.536 17.088-.432.528-.816.672-1.44.672-.768 0-2.208-.048-3.792-.24.624 1.248 1.2 3.168 1.248 4.464 2.16.048 4.08.048 5.328-.144 1.344-.192 2.4-.624 3.312-1.824 1.248-1.632 1.776-6.24 2.208-18.816.048-.672.048-2.112.048-2.112h-5.376Zm-20.304 5.52v8.976c0 4.464 1.056 5.856 5.952 5.856h5.904c3.456 0 4.8-1.152 5.424-5.568-1.392-.288-3.408-1.056-4.368-1.824-.144 2.496-.384 2.88-1.584 2.88h-4.704c-1.584 0-1.824-.192-1.824-1.44v-8.88h-4.8Zm12 .576c-2.208 1.488-6.096 3.072-9.6 4.08.576.96 1.296 2.544 1.536 3.456 3.936-.96 8.496-2.4 11.952-4.224l-3.888-3.312Zm-25.344-23.424v5.184h5.568v16.944h-5.568v5.28h10.416v-27.408h-10.416Zm-3.216 0v31.392h4.992v-31.392h-4.992Zm54.48-3.792c-1.536 6.624-4.464 13.2-8.256 17.136 1.536.624 4.32 2.064 5.568 2.928 3.6-4.464 6.816-11.52 8.688-18.912l-6-1.152Zm.864 7.104-1.68 5.664h34.464v-5.664h-32.784Zm-8.304 15.264v5.712h43.872v-5.712h-43.872Zm19.44-23.376v45.072h6.144v-45.072h-6.144Zm28.224 9.552v5.328h15.552V210.8h-15.552Zm6.48-9.552c-1.488 9.552-4.128 22.224-6.192 29.808l4.704 2.496c2.256-8.64 5.04-21.504 6.912-31.728l-5.424-.576Zm-3.648 29.04c4.56 2.976 10.08 7.536 12.528 10.848l3.408-4.608c-2.544-3.264-8.256-7.488-12.816-10.32l-3.12 4.08Zm10.704-19.488v1.056c-.912 15.168-5.232 25.776-13.44 30.048 1.152 1.104 2.688 3.168 3.456 4.56 9.6-5.856 14.256-16.464 15.408-35.232l-3.456-.576-1.008.144h-.96Zm5.184-7.008v5.184h15.696v-5.184h-15.696Zm16.08 13.248-.72 5.184h6.912v-5.184h-6.192Zm4.272 0v1.008c-.48 14.928-1.152 20.784-2.304 22.08-.528.576-1.008.672-1.824.672-1.008 0-3.216 0-5.52-.192.912 1.488 1.584 3.792 1.68 5.376 2.496.144 4.896.144 6.432-.096 1.68-.24 2.832-.72 4.032-2.256 1.632-1.968 2.208-8.16 2.832-24.24a85.73 85.73 0 0 0 .096-2.352h-5.424Zm-16.08-11.472c-.096 14.16.048 28.416-6.864 37.008 1.44.864 3.264 2.544 4.176 3.84 7.68-9.744 8.16-25.344 8.352-40.848h-5.664Zm9.984-1.776c-.24 6.48-.96 14.832-1.776 20.064l5.232.384c.72-5.28 1.44-13.728 1.824-20.448h-5.28Zm33.552 25.872h6.24c-.768-6.624 9.744-7.488 9.744-14.496 0-6.384-5.088-9.648-12.048-9.648-5.136 0-9.36 2.352-12.432 5.904l3.936 3.6c2.352-2.448 4.752-3.792 7.68-3.792 3.792 0 6.096 1.632 6.096 4.56 0 4.656-10.224 6.336-9.216 13.872Zm3.168 12.816c2.4 0 4.224-1.776 4.224-4.272 0-2.496-1.824-4.224-4.224-4.224-2.448 0-4.272 1.728-4.272 4.224 0 2.496 1.776 4.272 4.272 4.272Z" fill="#424242"/></svg>