<svg width="1440" height="810" fill="none" xmlns="http://www.w3.org/2000/svg"><path d="M159.572 227.288v7.176c0 5.46 1.768 7.176 8.892 7.176h9.412c5.772 0 7.488-1.872 8.216-9.308-1.664-.364-4.264-1.248-5.616-2.236-.26 5.252-.624 5.98-3.068 5.98h-8.32c-2.86 0-3.38-.156-3.38-1.716v-7.072h-6.136Zm7.488-.676c2.34 2.236 5.46 5.408 6.916 7.332l4.524-3.848c-1.612-1.872-4.836-4.836-7.176-6.916l-4.264 3.432Zm17.576 1.456c2.08 3.432 4.94 8.06 6.188 10.816l5.824-2.964c-1.404-2.704-4.42-7.176-6.552-10.4l-5.46 2.548Zm-32.552-1.82c-.884 3.692-2.6 7.956-4.524 10.764l5.668 2.808c1.872-3.016 3.432-7.696 4.42-11.44l-5.564-2.132Zm-3.64-24.96v5.252h21.892v-5.252h-21.892Zm8.632-7.384v31.304h5.928v-31.304h-5.928Zm-.208 10.868c-1.976 5.096-5.772 10.556-9.672 13.416 1.248.988 3.068 3.016 4.004 4.368 4.004-3.64 7.8-10.14 9.932-16.432l-4.264-1.352Zm5.772 3.484-3.224 3.068c2.184 1.716 6.552 5.72 8.58 7.852l3.276-4.992c-1.404-1.04-6.864-4.94-8.632-5.928Zm15.392.728h9.62v3.068h-9.62v-3.068Zm0 7.592h9.62v3.12h-9.62v-3.12Zm0-15.184h9.62v2.964h-9.62v-2.964Zm-5.668-4.94v28.132h21.268v-28.132h-21.268Zm27.768 25.584v5.044h47.736v-5.044h-47.736Zm.988-26.364v5.408h45.5v-5.408h-45.5Zm16.328 21.372c-3.016 5.096-7.592 11.804-10.816 15.964l6.032 1.82c3.172-4.16 7.592-10.712 10.92-16.224l-6.136-1.56Zm15.08 6.864c-4.16 9.984-13.936 12.792-31.46 13.52.988 1.352 1.924 3.536 2.34 5.356 19.292-1.508 30.004-5.044 35.152-17.316l-6.032-1.56Zm-22.308 9.516c12.428 2.652 24.596 6.396 32.136 9.464l3.744-5.044c-7.8-2.86-20.748-6.448-32.708-8.892l-3.172 4.472Zm4.576-35.62v17.784h5.876v-17.784h-5.876Zm11.804 0v17.784h5.876v-17.784H226.6Zm-17.264 11.128h29.38v4.888h-29.38v-4.888Zm-5.824-4.888v14.664h41.444v-14.664h-41.444Zm73.112-6.084v4.16h23.608v-4.16h-23.608Zm7.384 5.876v3.64h14.56v-3.64h-14.56Zm-2.6 5.616v3.64h19.032v-3.64h-19.032Zm1.716 10.972v3.536h11.336v-3.536h-11.336Zm0 5.2v3.692h11.336v-3.692h-11.336Zm-3.12-10.764v20.488h5.2v-16.692h9.828v-3.796h-15.028Zm12.74 0v16.068c0 .416-.156.572-.572.572-.416 0-1.612 0-2.756-.052.52 1.144 1.092 2.808 1.352 4.108 2.444 0 4.264-.052 5.668-.728 1.352-.728 1.716-1.768 1.716-3.9V214.86h-5.408Zm-24.492-16.848c1.82 2.184 3.796 5.2 4.524 7.176l4.628-3.016c-.832-1.976-2.912-4.836-4.784-6.916l-4.368 2.756Zm-1.248 11.336c1.976 2.132 4.16 5.044 5.044 7.072l4.42-3.224c-.936-1.976-3.276-4.732-5.304-6.656l-4.16 2.808Zm9.724 9.568H268.2v5.096h3.276v9.828h5.252v-14.924Zm0 12.376h-4.732c-2.08 2.08-4.42 4.264-6.5 5.876l2.808 5.356a159.371 159.371 0 0 0 6.032-6.656c2.496 3.848 5.928 5.876 10.816 6.136 3.9.156 10.348.104 14.3-.104.208-1.56 1.04-4.108 1.612-5.408-4.524.364-11.804.468-15.6.312-4.16-.208-7.124-2.184-8.736-5.512Zm11.544-25.428v5.616h5.356v-5.616h-5.356ZM282.5 193.8c-1.196 6.656-3.796 12.48-8.06 16.12 1.144.78 3.172 2.444 3.952 3.38 4.472-4.264 7.54-10.92 9.1-18.72l-4.992-.78Zm-28.912 2.288v46.644h5.408v-41.08h5.148v-5.564h-10.556Zm9.412 0v1.716c-.624 3.38-2.028 10.868-3.328 15.6 2.548 3.952 3.068 7.488 3.068 10.14 0 1.612-.26 2.86-.728 3.328-.364.312-.78.468-1.196.468-.468 0-1.04 0-1.716-.052.78 1.456 1.144 3.588 1.144 5.044 1.04 0 1.976-.052 2.756-.156 1.04-.156 1.924-.468 2.652-1.092 1.456-1.144 2.132-3.432 2.132-6.76 0-3.276-.572-7.124-3.38-11.44 1.352-4.16 2.86-10.14 4.056-14.872l-3.744-2.132-.78.208H263Zm61.256 3.276v5.408h26.572v-5.408h-26.572Zm-1.768 9.984v5.512h29.9v-5.512h-29.9Zm.104 9.932v5.46h29.432v-5.46h-29.432Zm11.7-25.48v19.084h6.136V193.8h-6.136Zm6.604 20.748v21.424c0 .728-.26.884-1.092.884-.78.052-3.64.052-6.188-.052.832 1.612 1.768 4.108 1.976 5.824 3.9 0 6.708-.104 8.788-1.04 2.028-.884 2.6-2.496 2.6-5.512v-21.528h-6.084Zm-16.224 13.676c2.392 2.652 4.992 6.344 5.98 8.788l5.356-3.12c-1.144-2.548-3.9-5.98-6.344-8.528l-4.992 2.86Zm-16.484-31.2v5.564h7.592v24.44h-7.592v5.564h13.416v-35.568h-13.416Zm.312 14.768v5.46h10.088v-5.46H308.5Zm-3.224-14.768v40.196h5.772v-40.196h-5.772Zm75.348.936v4.16h23.608v-4.16h-23.608Zm7.384 5.876v3.64h14.56v-3.64h-14.56Zm-2.6 5.616v3.64h19.032v-3.64h-19.032Zm1.716 10.972v3.536h11.336v-3.536h-11.336Zm0 5.2v3.692h11.336v-3.692h-11.336Zm-3.12-10.764v20.488h5.2v-16.692h9.828v-3.796h-15.028Zm12.74 0v16.068c0 .416-.156.572-.572.572-.416 0-1.612 0-2.756-.052.52 1.144 1.092 2.808 1.352 4.108 2.444 0 4.264-.052 5.668-.728 1.352-.728 1.716-1.768 1.716-3.9V214.86h-5.408Zm-24.492-16.848c1.82 2.184 3.796 5.2 4.524 7.176l4.628-3.016c-.832-1.976-2.912-4.836-4.784-6.916l-4.368 2.756Zm-1.248 11.336c1.976 2.132 4.16 5.044 5.044 7.072l4.42-3.224c-.936-1.976-3.276-4.732-5.304-6.656l-4.16 2.808Zm9.724 9.568H372.2v5.096h3.276v9.828h5.252v-14.924Zm0 12.376h-4.732c-2.08 2.08-4.42 4.264-6.5 5.876l2.808 5.356a159.371 159.371 0 0 0 6.032-6.656c2.496 3.848 5.928 5.876 10.816 6.136 3.9.156 10.348.104 14.3-.104.208-1.56 1.04-4.108 1.612-5.408-4.524.364-11.804.468-15.6.312-4.16-.208-7.124-2.184-8.736-5.512Zm11.544-25.428v5.616h5.356v-5.616h-5.356ZM386.5 193.8c-1.196 6.656-3.796 12.48-8.06 16.12 1.144.78 3.172 2.444 3.952 3.38 4.472-4.264 7.54-10.92 9.1-18.72l-4.992-.78Zm-28.912 2.288v46.644h5.408v-41.08h5.148v-5.564h-10.556Zm9.412 0v1.716c-.624 3.38-2.028 10.868-3.328 15.6 2.548 3.952 3.068 7.488 3.068 10.14 0 1.612-.26 2.86-.728 3.328-.364.312-.78.468-1.196.468-.468 0-1.04 0-1.716-.052.78 1.456 1.144 3.588 1.144 5.044 1.04 0 1.976-.052 2.756-.156 1.04-.156 1.924-.468 2.652-1.092 1.456-1.144 2.132-3.432 2.132-6.76 0-3.276-.572-7.124-3.38-11.44 1.352-4.16 2.86-10.14 4.056-14.872l-3.744-2.132-.78.208H367Zm71.084-2.236v36.712h5.876v-36.712h-5.876Zm-15.392 20.904 2.34 5.512 26.884-11.648-2.288-5.304-26.936 11.44Zm5.148-15.86v33.644c0 7.228 1.976 9.1 9.1 9.1h11.128c6.084 0 7.956-2.444 8.736-9.828-1.664-.312-4.108-1.3-5.46-2.236-.416 5.356-.936 6.5-3.796 6.5H437.46c-3.224 0-3.692-.416-3.692-3.484v-33.696h-5.928Zm20.592 5.096c0 11.492 0 17.16-.208 18.2-.156.936-.468 1.092-1.092 1.092-.468 0-1.664 0-2.548-.052.676 1.3 1.144 3.64 1.352 5.2 1.664 0 3.9 0 5.408-.728 1.612-.676 2.496-1.924 2.704-4.316.208-2.132.312-8.424.312-18.356l.26-1.04-4.368-1.56-1.092.78-1.092.78h.364Zm-40.664 1.924v5.876h17.16v-5.876h-17.16Zm6.032-11.336v34.476h5.824V194.58H413.8Zm-6.76 34.528 2.496 6.24c4.836-2.184 10.816-4.992 16.328-7.8l-1.404-5.512c-6.344 2.704-13.104 5.512-17.42 7.072Zm78.104-21.528H499.6v2.86h-14.456v-2.86Zm0-6.968H499.6v2.808h-14.456v-2.808Zm-5.616-4.42v18.72h25.948v-18.72h-25.948Zm3.9 17.368c-1.82 4.524-5.512 9.412-11.544 12.948 1.248.832 3.12 2.964 3.9 4.368 6.916-4.472 11.024-10.192 13.676-16.328l-6.032-.988Zm1.508 4.264-3.536 5.096h21.996v-5.096h-18.46Zm16.328 0v.988c-.364 12.844-.832 17.42-1.664 18.512-.468.572-.884.728-1.56.728-.832 0-2.392-.052-4.108-.26.676 1.352 1.3 3.432 1.352 4.836 2.34.052 4.42.052 5.772-.156 1.456-.208 2.6-.676 3.588-1.976 1.352-1.768 1.924-6.76 2.392-20.384.052-.728.052-2.288.052-2.288h-5.824Zm-21.996 5.98v9.724c0 4.836 1.144 6.344 6.448 6.344h6.396c3.744 0 5.2-1.248 5.876-6.032-1.508-.312-3.692-1.144-4.732-1.976-.156 2.704-.416 3.12-1.716 3.12h-5.096c-1.716 0-1.976-.208-1.976-1.56v-9.62h-5.2Zm13 .624c-2.392 1.612-6.604 3.328-10.4 4.42.624 1.04 1.404 2.756 1.664 3.744 4.264-1.04 9.204-2.6 12.948-4.576l-4.212-3.588Zm-27.456-25.376v5.616h6.032v18.356h-6.032v5.72h11.284v-29.692h-11.284Zm-3.484 0v34.008h5.408v-34.008h-5.408Zm85.228 9.984v13.156h5.72v-13.156h-5.72Zm-5.252 15.6v13.052c0 .52-.208.676-.78.676-.52.052-2.34.052-4.056-.052.676 1.248 1.56 3.12 1.872 4.42 2.86 0 4.836 0 6.448-.728s2.028-1.82 2.028-4.16v-13.208h-5.512Zm10.92-3.12-3.796 1.404c2.08 3.588 5.824 7.384 9.412 9.308.78-1.196 2.392-3.016 3.484-3.9-3.484-1.404-7.176-4.16-9.1-6.812Zm-5.616 13.624c3.432 1.716 7.28 4.16 9.464 5.876l3.38-3.38c-2.392-1.716-6.448-4.004-10.036-5.72l-2.808 3.224Zm4.888-9.152c-.832 1.196-2.392 3.016-3.484 4.108l3.172 2.08c1.092-.988 2.548-2.392 3.848-3.952l-3.536-2.236Zm-22.256-13.624v4.212h29.328v-4.212H529.24Zm-1.612 6.604v4.368h32.708v-4.368h-32.708Zm7.748-9.932v13.104h5.564v-13.104h-5.564ZM527.68 236.7l1.872 4.264c3.328-1.456 7.124-3.276 10.816-5.096l-.936-3.744c-4.316 1.768-8.736 3.536-11.752 4.576Zm8.632-15.236c-2.132 2.704-6.24 5.46-9.984 6.864 1.144.988 2.756 2.808 3.536 4.004 3.9-1.924 8.216-5.668 10.608-9.204l-4.16-1.664Zm-3.016 7.28c1.196 1.196 2.548 2.912 3.12 4.056l3.744-2.548c-.676-1.144-2.08-2.756-3.328-3.848l-3.536 2.34Zm2.652-24.336h15.86v1.976h-15.86v-1.976Zm0-5.512h15.86v1.976h-15.86v-1.976Zm-5.408-3.796v15.132h26.936V195.1H530.54Zm-12.324-.676v17.94c0 9.048-.676 18.72-6.656 26.052 1.196.936 3.12 2.964 4.004 4.264 7.228-8.528 8.06-19.708 8.06-30.264v-17.992h-5.408Zm-4.732 10.4c0 4.68-.624 9.984-2.288 12.948l3.796 2.34c2.08-3.64 2.704-9.464 2.6-14.768l-4.108-.52Zm12.324-2.444c-.572 3.328-1.872 8.164-2.912 11.18l3.484 1.508c1.3-2.808 2.808-7.176 4.316-10.92l-4.888-1.768Zm-3.12 20.072-3.744 2.704c1.716 2.496 5.096 7.852 6.5 10.868l4.108-4.16c-1.04-1.508-5.564-7.956-6.864-9.412Zm41.652-25.48v5.46h47.528v-5.46H564.34Zm13.988-3.12v16.016h18.616v-16.016h-5.668v11.492h-7.488v-11.492h-5.46Zm-6.604 13.676v21.58h5.512v-21.58h-5.512Zm-6.656 3.484v5.252h9.568v-5.252h-9.568Zm-1.196 11.908 1.144 5.356c3.12-1.04 6.448-2.184 9.724-3.38l-.728-4.732c-3.848 1.04-7.436 2.132-10.14 2.756Zm34.216-15.34v14.508c0 4.888.936 6.448 5.408 6.448h3.484c3.328 0 4.68-1.716 5.2-7.488-1.456-.364-3.692-1.196-4.732-2.08-.156 4.004-.364 4.68-1.144 4.68h-1.82c-.676 0-.78-.156-.78-1.612V207.58h-5.616Zm10.036 2.132c-1.924 1.664-4.992 3.64-7.748 4.992.624 1.092 1.404 2.912 1.716 4.056 3.016-1.196 6.708-2.86 9.828-4.68l-3.796-4.368Zm-23.14 7.02h5.148v6.24h-5.148v-6.24Zm-5.044-4.472v15.236h15.496V212.26H579.94Zm-.728 19.5c.624 3.38 1.04 7.748 1.04 10.452l6.136-.936c-.052-2.6-.676-6.916-1.404-10.192l-5.772.676Zm10.348.104c1.248 3.328 2.444 7.696 2.808 10.348l6.24-1.248c-.468-2.704-1.82-6.916-3.172-10.088l-5.876.988Zm10.452-.312c2.444 3.484 5.356 8.268 6.5 11.18l6.188-2.652c-1.352-2.964-4.472-7.54-6.916-10.816l-5.772 2.288Zm-30.264-1.82c-1.352 3.9-3.9 8.008-6.448 10.244l5.876 2.548c2.808-2.808 5.252-7.124 6.604-11.284l-6.032-1.508Zm47.424-31.46v5.408h45.708v-5.408h-45.708Zm30.264 24.024v.832c-4.16 8.84-16.068 12.948-29.536 14.3.988 1.352 2.132 3.744 2.6 5.304 14.664-2.028 27.456-6.916 33.072-18.668l-3.9-1.976-1.04.208h-1.196Zm-11.7-3.64c-3.172 3.64-8.788 7.488-16.276 10.296 1.3.832 3.12 2.756 4.004 4.056 7.956-3.484 13.884-7.8 18.512-12.948l-6.24-1.404Zm-1.092 3.64-4.524 4.524h19.292v-4.524h-14.768Zm2.184-28.496v24.856h5.98V193.8h-5.98Zm.364 13.052c-4.264 6.708-12.844 12.324-22.152 14.82 1.196 1.144 2.808 3.328 3.588 4.732 9.724-3.172 18.148-9.62 23.14-17.836l-4.576-1.716Zm5.356.052-4.628 1.872c5.2 8.06 13.884 14.768 23.296 18.096.832-1.456 2.548-3.692 3.796-4.836-9.256-2.704-18.044-8.528-22.464-15.132Zm-17.212-3.432c-1.508 4.264-4.732 7.904-8.892 10.14 1.196.78 3.224 2.548 4.108 3.536 4.316-2.808 8.06-7.228 10.036-12.636l-5.252-1.04Zm-1.248 6.864c1.976 1.3 4.628 3.172 5.876 4.368l3.276-3.952c-1.352-1.144-4.056-2.86-6.032-3.952l-3.12 3.536Zm26.988-6.812c-1.196 3.276-3.536 6.344-6.396 8.32 1.196.832 3.172 2.6 4.108 3.588 3.068-2.496 5.876-6.448 7.436-10.608l-5.148-1.3Zm-1.196 6.604c3.38 2.028 7.852 5.148 10.036 7.072l3.276-3.952c-2.288-1.872-6.864-4.732-10.14-6.604l-3.172 3.484Zm-20.54 21.788c8.528 2.964 20.28 7.8 25.948 10.92l5.46-4.316c-6.5-3.224-18.356-7.696-26.364-10.296l-5.044 3.692Zm38.584-27.716v5.772h16.848V204.2h-16.848Zm7.02-10.348c-1.612 10.348-4.472 24.076-6.708 32.292l5.096 2.704c2.444-9.36 5.46-23.296 7.488-34.372l-5.876-.624Zm-3.952 31.46c4.94 3.224 10.92 8.164 13.572 11.752l3.692-4.992c-2.756-3.536-8.944-8.112-13.884-11.18l-3.38 4.42Zm11.596-21.112v1.144c-.988 16.432-5.668 27.924-14.56 32.552 1.248 1.196 2.912 3.432 3.744 4.94 10.4-6.344 15.444-17.836 16.692-38.168l-3.744-.624-1.092.156h-1.04Zm5.616-7.592v5.616h17.004v-5.616h-17.004Zm17.42 14.352-.78 5.616h7.488v-5.616h-6.708Zm4.628 0v1.092c-.52 16.172-1.248 22.516-2.496 23.92-.572.624-1.092.728-1.976.728-1.092 0-3.484 0-5.98-.208.988 1.612 1.716 4.108 1.82 5.824 2.704.156 5.304.156 6.968-.104 1.82-.26 3.068-.78 4.368-2.444 1.768-2.132 2.392-8.84 3.068-26.26.052-.728.104-2.548.104-2.548h-5.876Zm-17.42-12.428c-.104 15.34.052 30.784-7.436 40.092 1.56.936 3.536 2.756 4.524 4.16 8.32-10.556 8.84-27.456 9.048-44.252h-6.136Zm10.816-1.924c-.26 7.02-1.04 16.068-1.924 21.736l5.668.416c.78-5.72 1.56-14.872 1.976-22.152h-5.72Zm36.348 28.028h6.76c-.832-7.176 10.556-8.112 10.556-15.704 0-6.916-5.512-10.452-13.052-10.452-5.564 0-10.14 2.548-13.468 6.396l4.264 3.9c2.548-2.652 5.148-4.108 8.32-4.108 4.108 0 6.604 1.768 6.604 4.94 0 5.044-11.076 6.864-9.984 15.028Zm3.432 13.884c2.6 0 4.576-1.924 4.576-4.628s-1.976-4.576-4.576-4.576c-2.652 0-4.628 1.872-4.628 4.576 0 2.704 1.924 4.628 4.628 4.628Z" fill="#424242"/></svg>