<svg width="1440" height="810" fill="none" xmlns="http://www.w3.org/2000/svg"><path d="M457.64 161.92v5.52h42.816v-5.52H457.64Zm15.648 15.552v5.328h25.152v-5.328h-25.152Zm-1.872 16.32v5.328h28.848v-5.328h-28.848Zm11.664-24.288v27.12h5.808v-27.12h-5.808ZM472.76 155.2c-2.496 9.696-7.968 20.448-16.656 26.112.864 1.392 2.208 3.936 2.784 5.568 10.272-7.008 16.32-18.672 19.872-30.24l-6-1.44Zm-9.6 20.112v24.912h5.808v-24.912h-5.808Zm48.576 11.088v4.464h31.296V186.4h-31.296Zm1.248-7.728v4.752h32.208v-4.752h-32.208Zm-7.152 15.456v4.944h42.48v-4.944h-42.48Zm18.336-18.384v21.84h6v-21.84h-6Zm-8.064-7.824h21.312v2.544h-21.312v-2.544Zm0-6.624h21.312v2.544h-21.312v-2.544Zm-5.616-4.368v17.952h32.928v-17.952h-32.928Zm2.448 17.472c-1.728 3.888-4.896 7.776-8.208 10.272 1.344.816 3.696 2.544 4.8 3.6 3.312-2.928 6.912-7.584 9.072-12.24l-5.664-1.632Zm46.848-.384v5.616h29.52v-5.616h-29.52Zm11.76-13.104V176.8h5.76v-15.888h-5.76Zm-11.616-2.928v5.664h26.544v18.432h6v-24.096h-32.544Zm-3.408 0v31.44c0 8.16 2.784 10.128 12.096 10.128h16.896c8.304 0 10.656-2.688 11.712-10.704-1.728-.336-4.368-1.392-5.856-2.256-.768 6.096-1.632 7.248-6.384 7.248H568.52c-5.328 0-6-.576-6-4.368v-31.488h-6Zm56.208 15.456h20.544v5.232h-20.544v-5.232Zm-5.568-5.04v15.36h32.064V168.4H607.16Zm-5.04-9.072v5.232h41.904v-5.232H602.12Zm17.76-4.128v16.176h5.856V155.2h-5.856Zm5.424 25.632v11.808c0 5.376 1.392 7.152 7.056 7.152h6.144c4.752 0 6.288-2.016 6.912-9.696-1.584-.432-4.128-1.344-5.328-2.304-.192 5.712-.48 6.528-2.112 6.528h-4.8c-1.68 0-1.968-.144-1.968-1.776v-11.712h-5.904Zm-11.616 2.064c-.72 6.192-2.16 10.08-13.392 12.192 1.2 1.248 2.784 3.744 3.312 5.328 13.008-3.072 15.408-8.928 16.272-17.52h-6.192Zm58.656-27.504c.144 21.12 4.032 45.024 13.92 45.024 4.464 0 6.432-2.16 7.344-11.232-1.632-.624-3.696-2.016-4.992-3.408-.24 6.048-.768 8.592-1.824 8.592-4.08 0-8.592-20.016-8.304-38.976h-6.144Zm8.256 3.264c2.544 1.344 5.712 3.408 7.2 4.896l3.6-3.888c-1.584-1.488-4.848-3.408-7.392-4.512l-3.408 3.504Zm4.704 11.664c-3.36 11.472-9.696 20.688-18.72 25.968 1.296 1.008 3.6 3.264 4.512 4.416 9.168-6.192 16.032-16.32 20.016-29.04l-5.808-1.344Zm-35.76-8.016v5.664h42.96v-5.664h-42.96Zm-.192 29.472 1.056 5.952c5.856-1.248 13.728-2.928 20.928-4.56l-.48-5.52c-7.728 1.632-16.08 3.216-21.504 4.128Zm7.728-15.936h7.152v5.568h-7.152v-5.568Zm-5.232-4.848v15.216h18v-15.216h-18Zm45.936 4.752v5.088h42.528v-5.088h-42.528Zm21.504 8.688v4.944h17.952v-4.944h-17.952Zm-2.688-6.096v17.76h5.808v-17.76H716.6Zm-7.44 7.68-4.752 1.536c3.936 10.032 10.512 12 21.552 12h13.728c.288-1.68 1.152-4.224 1.968-5.472-3.456.096-12.72.144-15.36.096-8.4-.048-14.496-1.152-17.136-8.16Zm-4.176-4.176c-1.104 6.432-4.032 11.52-8.928 14.544 1.248.864 3.456 2.976 4.32 4.032 5.328-3.792 8.784-9.84 10.368-17.76l-5.76-.816Zm2.832-14.688h22.032v2.4h-22.032v-2.4Zm0-6.192h22.032v2.4h-22.032v-2.4Zm-5.568-4.08v16.752h33.456V156.88h-33.456Zm53.136 36.672v5.04h24.096v-5.04h-24.096Zm5.04-38.832c-3.312 5.856-9.168 11.184-15.36 14.352 1.248.96 3.36 3.168 4.272 4.272 6.192-3.792 12.576-9.936 16.56-16.704l-5.472-1.92Zm17.472 5.136v.864c-5.568 9.168-20.16 15.648-33.792 18.096 1.056 1.296 2.304 3.648 2.832 5.184 14.784-3.216 30.048-10.128 37.248-21.792l-4.128-2.64-.96.288h-1.2Zm-19.92 2.736-4.848 2.256c7.392 9.6 19.296 16.128 33.312 18.864.816-1.584 2.4-4.08 3.744-5.376-13.824-2.208-26.064-8.016-32.208-15.744Zm-5.52 19.728v18.096h5.808v-12.912h17.52v12.72h6.144V182.32h-29.472Zm7.824-22.464-3.456 4.944h22.368v-4.944H760.28Zm48.096 24.672v4.128h13.152v-4.128h-13.152Zm-.336-7.104v4.224h10.8v9.984h-10.8v4.224h16.176v-18.432H808.04Zm-2.352 0v20.88h5.184v-20.88h-5.184Zm-8.064-13.68v3.888h12.048v-3.888h-12.048Zm22.272 0v3.888h12.144v-3.888h-12.144Zm9.792-6.672v36.384c0 .816-.288 1.104-1.152 1.104-.864 0-3.792.048-6.288-.096.768 1.536 1.632 4.224 1.872 5.856 4.128 0 6.912-.096 8.832-1.056 1.92-.96 2.544-2.64 2.544-5.76v-36.432h-5.808Zm-31.584 0v4.176h9.792v9.12h-9.792v4.128h15.168v-17.424h-15.168Zm34.656 0h-16.224v17.568h16.224v-4.128h-10.752v-9.264h10.752v-4.176Zm-37.968 0v43.248h5.712v-43.248h-5.712Zm59.904 7.536v5.04h12.288v-5.04h-12.288Zm18.432 25.056v5.088h8.304v-5.088h-8.304Zm-1.824-29.04v37.872h4.56v-32.784h3.504v32.4h4.8v-37.488h-12.864Zm-6.144 3.984v1.152c-.48 19.92-.96 26.64-1.92 28.08-.432.72-.768.864-1.392.864-.72 0-1.824 0-3.12-.144.768 1.44 1.248 3.6 1.296 5.088 1.728.096 3.312.048 4.464-.192 1.344-.288 2.208-.768 3.12-2.256 1.44-2.064 1.872-9.36 2.4-30.24.048-.672.048-2.352.048-2.352h-4.896Zm-7.536-9.168c-.048 19.632.288 33.312-6.864 41.424 1.2.768 2.928 2.496 3.696 3.744 7.968-9.072 7.968-24.336 8.064-45.168h-4.896Zm-12.96 3.024v4.56h4.416v21.312h-4.416v4.56h8.832v-30.432h-8.832Zm-2.736 0v34.56h4.368v-34.56h-4.368Zm77.856-2.88v44.688h5.568v-44.688h-5.568Zm-15.168 7.104v5.232h10.128v-5.232h-10.128Zm17.952 0v5.232h10.464v-5.232h-10.464Zm.336 9.888v5.136h9.36v-5.136h-9.36Zm-.288 9.888v5.184h10.944v-5.184h-10.944Zm-17.664-9.888v5.136h9.024v-5.136h-9.024Zm-2.496 12.432 2.208 5.232c4.224-1.584 9.408-3.552 14.352-5.568l-.768-4.32c-5.76 1.776-11.904 3.648-15.792 4.656Zm9.168-29.328v21.84c0 6.96-.96 14.784-8.496 19.248 1.248.816 3.312 2.688 4.176 3.744 8.4-5.04 9.792-14.064 9.792-22.944V155.68h-5.472Zm-18.672 3.984v5.232h5.472v16.512h-5.472v5.184h10.608v-26.928h-10.608Zm-2.976 0v31.104h5.088v-31.104h-5.088Zm55.536 5.28v3.552h15.36v-3.552h-15.36Zm3.168 5.232v2.784h8.832v-2.784h-8.832Zm0 4.608v2.832h8.832v-2.832h-8.832Zm-3.648 10.224v3.216h8.784v-3.216h-8.784Zm.048 5.088v3.12h8.688v-3.12h-8.688Zm16.128-24.144v3.888h19.104v-3.888h-19.104Zm-.72 16.944v3.792h20.832v-3.792h-20.832Zm7.584-19.104v10.176h4.8v-10.176h-4.8Zm-20.88 3.12v14.304h4.032v-14.304h-4.032Zm.48 19.536v10.224h3.552v-10.224h-3.552Zm7.104-19.584v33.456h4.272v-33.456h-4.272Zm19.776 8.064h1.968v3.168h-1.968v-3.168Zm-4.896 0h1.92v3.168h-1.92v-3.168Zm-4.752 0h1.776v3.168h-1.776v-3.168Zm-3.456-3.216v9.6h18.576v-9.6h-18.576Zm-16.56 8.112.288 3.936c3.744-.24 8.304-.528 12.912-.912l.048-3.6c-4.944.24-9.792.48-13.248.576Zm-1.152 15.84.384 3.552a699.14 699.14 0 0 0 9.84-1.008l-.096-3.312c-3.84.288-7.392.576-10.128.768Zm22.032-5.952v5.712c0 3.552.72 4.608 4.032 4.608h2.832c2.4 0 3.456-1.056 3.84-5.232-1.104-.24-2.736-.816-3.504-1.44-.096 2.784-.24 3.072-.912 3.072h-1.584c-.576 0-.672-.096-.672-1.008v-5.712h-4.032Zm-4.56-.048c-.288 2.736-.96 5.664-2.112 7.536l3.504 1.632c1.344-1.968 1.92-5.184 2.208-8.112l-3.6-1.056Zm13.536.864c1.584 2.592 2.976 6 3.312 8.208l3.84-1.44c-.384-2.256-1.872-5.568-3.504-8.112l-3.648 1.344Zm-8.256-2.688c2.064 1.056 4.56 2.688 5.712 3.936l2.784-2.832c-1.248-1.2-3.84-2.736-5.904-3.648l-2.592 2.544Zm-8.976-32.592v6.096h6v-6.096h-6Zm-14.544 3.216v4.416h37.92v-4.416h-37.92Zm-3.6 0v14.88c0 7.056-.24 17.088-3.408 23.952 1.152.528 3.456 2.16 4.368 3.12 3.6-7.488 4.176-19.344 4.176-27.12v-14.832h-5.136Zm47.472 1.872v4.944h16.61v-4.944h-16.61Zm5.76 32.736v4.656h12.05v-4.656H992.6Zm0-7.68v4.368h12.19v-4.368H992.6Zm-7.824-16.176v4.992h24.574v-4.992h-24.574Zm8.4-13.584v16.896h5.328v-16.896h-5.328Zm12.624 1.728c-4.18 11.328-11.952 19.968-22.272 24.864 1.008 1.152 2.688 3.552 3.312 4.8 10.848-5.856 19.25-15.6 24.14-28.176l-5.18-1.488Zm-11.376 20.4h-2.064l-3.12 3.312v19.152h5.184v-17.856h10.126v-4.608h-10.126Zm7.826 0v21.792h5.47V177.76h-5.47Zm8.64-19.824v42.336h5.66v-36.96h8.45v-5.376h-14.11Zm12.77 0v1.968c-1.06 3.456-3.32 10.752-5.28 15.456 3.93 3.696 5.04 7.248 5.04 9.888 0 1.632-.34 2.736-1.25 3.264-.53.288-1.25.432-1.97.432-.86.048-1.82 0-3.07-.096.91 1.536 1.49 4.032 1.53 5.568 1.49.096 3.03.048 4.18-.096 1.3-.144 2.45-.576 3.41-1.248 1.87-1.248 2.69-3.6 2.69-7.2 0-3.168-.87-6.96-4.9-11.232 1.92-4.272 4.08-9.744 5.76-14.352l-4.18-2.592-.86.24h-1.1Zm16.03-2.928c-1.01 3.84-2.98 8.928-4.71 12.192l5 1.296c1.82-3.072 3.98-7.776 5.71-12.192l-6-1.296Zm-7.25 9.84.43 5.472c5.47-.336 12.87-.768 19.92-1.296l.05-4.992c-7.44.336-15.22.672-20.4.816Zm2.83 7.728v27.696h5.33v-22.944h9.94v-4.752h-15.27Zm12.53 0v21.792c0 .624-.19.768-.77.768-.62.048-2.54.048-4.22-.048.72 1.392 1.53 3.6 1.82 5.136 2.93 0 5.09-.096 6.77-.96 1.63-.864 2.11-2.304 2.11-4.752v-21.936h-5.71Zm-10.08 7.248v4.272h13.3v-4.272h-13.3Zm0 7.056v4.272h13.3v-4.272h-13.3Zm19.54-31.44v14.496c0 5.328 1.39 6.96 7.05 6.96h6.63c4.46 0 6-1.728 6.62-7.968-1.58-.336-3.94-1.2-5.14-2.112-.19 4.224-.48 4.944-2.06 4.944h-5.23c-1.83 0-2.11-.24-2.11-1.92v-14.4h-5.76Zm14.4 2.832c-3.17 1.824-8.12 3.984-12.58 5.376.62 1.104 1.39 2.832 1.63 3.984 4.75-1.296 10.32-3.12 14.59-5.184l-3.64-4.176Zm-14.4 19.584v15.168c0 5.328 1.44 6.96 7.1 6.96h6.82c4.6 0 6.14-1.92 6.76-8.688-1.58-.336-3.88-1.248-5.08-2.112-.24 4.896-.53 5.76-2.21 5.76h-5.47c-1.88 0-2.21-.192-2.21-1.968v-15.12h-5.71Zm14.78 2.016c-3.26 2.112-8.4 4.464-13.06 5.952.58 1.104 1.4 2.928 1.68 4.032 4.95-1.392 10.76-3.408 15.12-5.76l-3.74-4.224Zm-25.82-19.584c2.3 3.6 4.6 8.4 5.42 11.472l5.23-2.112c-.91-3.168-3.41-7.728-5.76-11.184l-4.89 1.824Zm44.92 16.176v24h5.52v-19.632h17.38v19.632h5.81v-24h-28.71Zm-9.55-6.528v4.512h42.77v-4.512h-42.77Zm3.36-6.432v4.368h36.77v-4.368h-36.77Zm9.94 19.344v3.648h21.5v-3.648h-21.5Zm0 5.712v3.6h21.5v-3.6h-21.5Zm-.67 5.808v4.368h22.17v-4.368h-22.17Zm24-38.976c-8.12 1.344-22.04 1.92-33.8 1.92.48 1.152 1.01 3.072 1.11 4.32 11.9.096 26.21-.48 36.05-2.112l-3.36-4.128Zm-20.45 3.984c-2.26 10.368-7.54 20.928-17.71 26.4 1.15 1.104 2.83 3.264 3.6 4.56 11.08-6.384 16.84-17.808 20.11-29.76l-6-1.2Zm31.2-1.104v5.136h24.48v-5.136h-24.48Zm1.44 22.848v5.136h21.55v-5.136h-21.55Zm7.97-4.656v18.96l5.71-.864v-18.096h-5.71Zm-9.94 16.992.86 5.76c6.58-.816 15.8-2.016 24.39-3.168l-.15-5.376c-8.97 1.056-18.72 2.208-25.1 2.784Zm.43-22.8.34 5.328c5.76-.24 13.77-.576 21.41-1.008l.14-4.944c-8.02.288-16.37.528-21.89.624Zm14.74-4.176c2.64 3.408 5.57 8.064 6.67 11.04l4.56-2.592c-1.2-3.024-4.27-7.44-6.96-10.704l-4.27 2.256Zm-7.83-5.088c-.76 3.552-2.35 8.496-3.74 11.664l4.85 1.296c1.58-2.976 3.45-7.584 5.13-11.664l-6.24-1.296Zm19.44-.288v27.168h5.52v-27.168h-5.52Zm10.95-4.512v36.816c0 .864-.29 1.104-1.15 1.152-.96 0-3.89.048-6.77-.096.81 1.632 1.63 4.224 1.87 5.856 4.08 0 7.2-.192 9.12-1.104 1.92-.912 2.54-2.496 2.54-5.76v-36.864h-5.61Zm42.19 16.848c-5.42 2.832-14.11 5.712-22.18 7.536.72 1.2 1.64 3.36 1.92 4.704 8.4-1.824 17.76-4.416 24.82-7.632l-4.56-4.608Zm-23.47-2.64v19.728c0 6.624 2.35 8.496 10.32 8.496h12.38c7.15 0 9.07-2.352 9.99-10.608-1.73-.336-4.32-1.344-5.76-2.304-.48 6.144-1.06 7.2-4.56 7.2h-11.72c-3.93 0-4.56-.336-4.56-2.784V170.8h-6.09Zm10.75-15.6v8.736h6.34V155.2h-6.34Zm-16.94 6.048v12.624h5.76v-7.008h28.65v7.008h6.05v-12.624h-40.46Zm51.16 1.776v5.04h9.51v22.224h-9.51v5.088h14.74v-32.352h-14.74Zm-3.36 0v35.904h5.24v-35.904h-5.24Zm3.12 12.816v4.992h12.29v-4.992h-12.29Zm3.7-20.64c-.24 2.64-.91 6.336-1.58 8.832l4.6 1.008c.96-2.256 2.16-5.664 3.27-8.928l-6.29-.912Zm17.62 7.488v5.232h14.01v-5.232h-14.01Zm12.04 0v1.104c-.52 20.016-1.15 28.272-2.68 29.904-.63.672-1.16.864-2.12.864-1.2 0-4.08-.048-7.2-.288 1.06 1.536 1.83 3.984 1.92 5.568 2.79.144 5.72.192 7.54-.096 1.97-.288 3.31-.816 4.66-2.688 1.96-2.544 2.54-10.176 3.16-31.776.05-.72.05-2.592.05-2.592h-5.33Zm-11.9-7.44c-1.54 6.384-4.27 12.912-7.49 16.944 1.35.768 3.7 2.4 4.75 3.36 3.27-4.608 6.39-11.904 8.26-19.008l-5.52-1.296Zm-2.35 21.264c2.3 3.552 5.33 8.256 6.62 11.184l4.9-2.976c-1.49-2.832-4.66-7.44-7.01-10.752l-4.51 2.544Zm35.47-8.976v4.176h21.36v-4.176h-21.36Zm0 7.056v4.128h21.36v-4.128h-21.36Zm18.77-14.784v33.408c0 .912-.34 1.2-1.3 1.2-1.01 0-4.41.048-7.39-.144.86 1.632 1.78 4.368 2.02 6.096 4.65 0 7.77-.096 9.88-1.056 2.12-1.008 2.74-2.688 2.74-6v-33.504h-5.95Zm-29.62 22.704.82 5.712c8.35-.576 20.3-1.536 31.49-2.496l.09-4.848c-11.76.672-24.53 1.344-32.4 1.632Zm38.02-12.816c-7.83 12.576-21.94 20.784-38.69 25.008 1.15 1.248 3.07 3.888 3.89 5.28 16.65-4.944 31.44-13.776 40.41-27.6l-5.61-2.688Zm-19.39-14.592c-.53 2.256-1.64 5.328-2.69 7.584l5.13 1.008c1.35-1.92 3.22-4.896 4.66-7.824l-7.1-.768Zm-11.48 4.704v25.344h5.76v-20.4h18.63v-4.944h-24.39Zm40.13 12.288v4.368h27.99v-4.368h-27.99Zm11.33-2.832v5.28h5.23v-5.28h-5.23Zm-2.98 12.864h11.24v2.928h-11.24v-2.928Zm-4.94-3.696v10.32h21.41v-10.32h-21.41Zm4.85-13.488h11.61v1.92h-11.61v-1.92Zm0-4.896h11.61v1.872h-11.61v-1.872Zm-5.14-3.216v13.2h22.08v-13.2h-22.08Zm8.21 29.472v8.976c0 .528-.14.624-.72.624-.62.048-2.54.048-4.32-.048.72 1.2 1.73 3.072 2.06 4.416 2.64 0 4.56-.048 6.2-.768 1.58-.72 2.01-1.872 2.01-4.08v-9.12h-5.23Zm-6.91 3.168c-1.06 2.496-2.93 5.136-4.99 6.864 1.15.672 3.16 1.968 4.12 2.784 2.07-2.064 4.32-5.28 5.67-8.4l-4.8-1.248Zm13.63 2.112c1.78 2.112 3.89 5.04 4.85 6.912l4.46-2.352c-1.05-1.824-3.26-4.656-5.04-6.672l-4.27 2.112Zm19.73-35.568c-2.5 3.648-7.35 7.392-11.43 9.504 1.44 1.056 3.12 2.832 4.08 4.08 4.61-2.736 9.51-6.864 12.82-11.376l-5.47-2.208Zm.86 13.392c-2.69 3.744-7.82 7.584-12.09 9.792 1.48 1.104 3.16 2.832 4.12 4.08 4.71-2.832 9.84-7.008 13.35-11.616l-5.38-2.256Zm1.01 13.056c-2.93 5.76-8.74 10.416-14.83 13.056 1.44 1.296 3.17 3.312 4.03 4.8 6.91-3.552 12.77-8.832 16.51-15.888l-5.71-1.968ZM602.072 246.464v5.904h41.856v-5.904h-41.856Zm23.184 16.08c5.328 4.08 12.432 9.984 15.6 13.776l4.896-4.416c-3.504-3.84-10.896-9.36-16.032-13.104l-4.464 3.744Zm-1.92-13.92c-3.984 8.544-12.48 17.856-22.752 22.704 1.2 1.296 3.024 3.696 3.936 5.232 11.04-5.76 19.776-15.552 25.248-25.68l-6.432-2.256Zm-3.504 11.616v27.984h6.336v-34.272l-6.336 6.288Zm34.704-14.064v26.592h5.808v-21.072h22.224v20.832h6.048v-26.352h-34.08Zm2.736 19.488v5.52h27.504v-5.52h-27.504Zm16.848 11.52c4.512 3.36 10.32 8.208 12.96 11.328l5.28-3.6c-2.976-3.216-9.024-7.776-13.392-10.848l-4.848 3.12Zm-11.856-3.12c-2.688 3.456-8.208 7.68-13.2 10.176 1.44 1.008 3.6 2.88 4.848 4.128 5.04-2.832 10.704-7.44 14.592-11.808l-6.24-2.496Zm35.52-10.32v5.088h42.528v-5.088h-42.528Zm21.504 8.688v4.944h17.952v-4.944h-17.952Zm-2.688-6.096v17.76h5.808v-17.76H716.6Zm-7.44 7.68-4.752 1.536c3.936 10.032 10.512 12 21.552 12h13.728c.288-1.68 1.152-4.224 1.968-5.472-3.456.096-12.72.144-15.36.096-8.4-.048-14.496-1.152-17.136-8.16Zm-4.176-4.176c-1.104 6.432-4.032 11.52-8.928 14.544 1.248.864 3.456 2.976 4.32 4.032 5.328-3.792 8.784-9.84 10.368-17.76l-5.76-.816Zm2.832-14.688h22.032v2.4h-22.032v-2.4Zm0-6.192h22.032v2.4h-22.032v-2.4Zm-5.568-4.08v16.752h33.456V244.88h-33.456Zm72.336 4.656h6.048v3.264h-6.048v-3.264Zm-10.656 0h5.856v3.264h-5.856v-3.264Zm-10.56 0h5.76v3.264h-5.76v-3.264Zm-5.328-4.272v11.856h38.16v-11.856h-38.16Zm8.4 23.232h21.12v2.304h-21.12v-2.304Zm0 5.76h21.12v2.352h-21.12v-2.352Zm0-11.52h21.12v2.352h-21.12v-2.352Zm-5.76-3.648v21.168h32.928v-21.168H750.68Zm19.008 23.712c5.232 1.728 10.56 4.032 13.536 5.568l6.288-2.88c-3.696-1.632-9.888-3.936-15.264-5.616l-4.56 2.928Zm-10.656-3.024c-3.36 1.872-9.168 3.6-14.4 4.512 1.296 1.008 3.312 3.072 4.272 4.224 4.992-1.344 11.376-3.744 15.408-6.336l-5.28-2.4Zm37.536-7.632v3.84h37.152v-3.84h-37.152Zm-3.552 5.568v3.936h43.968v-3.936h-43.968Zm19.152-10.032v15.456c0 .624-.288.816-1.056.864-.72 0-3.6 0-5.856-.096.672 1.248 1.536 3.12 1.824 4.464 3.696 0 6.288-.048 8.208-.72 1.92-.672 2.592-1.776 2.592-4.368v-15.6h-5.712Zm15.6-2.16c-6.864 1.152-19.536 1.632-30.192 1.584.432.912.912 2.496.96 3.456 10.992.096 24.144-.384 32.928-1.92l-3.696-3.12Zm-13.056-18.24c4.752 3.744 13.344 7.296 19.776 8.88.768-1.488 2.016-3.456 3.168-4.704-7.344-1.344-14.976-4.032-20.544-8.208h-5.28c-4.128 3.552-11.952 6.912-19.584 8.64.96 1.104 2.16 3.216 2.736 4.464 7.44-1.968 15.312-5.568 19.728-9.072Zm-10.608 4.32v3.36h21.984v-3.36h-21.984Zm1.488 8.256h18.336v2.16h-18.336v-2.16Zm-5.328-3.36v8.88h29.376v-8.88h-29.376Zm57.744-9.552v4.368H871.4v-4.368h-13.392Zm-.528 23.904v3.552h14.304v-3.552H857.48Zm.672 5.232v3.312h13.104v-3.312h-13.104Zm-1.776-22.032v4.56h29.232v-4.56h-29.232Zm5.856-10.8v13.008h5.088v-13.008h-5.088Zm-.192 20.4h5.04v2.208h-5.04v-2.208Zm-4.128-3.504v9.168H871.4v-9.168h-13.488Zm19.872-13.872c1.44 2.352 2.88 5.424 3.408 7.392l4.464-2.016c-.624-1.968-2.208-4.944-3.696-7.152l-4.176 1.776Zm-21.84 35.856.576 4.224c4.32-.384 9.792-.912 15.168-1.44l-.048-3.984c-5.808.48-11.616.912-15.696 1.2Zm24.672-19.68c-2.448 9.696-7.248 17.52-14.448 22.128 1.104.864 3.024 2.736 3.792 3.696 7.344-5.328 12.672-14.016 15.552-24.768l-4.896-1.056Zm-18.432 9.408v11.28l4.848-.384v-10.896h-4.848Zm10.224-28.608c.096 27.888.96 45.072 8.304 45.072 3.552-.048 5.04-1.488 5.568-9.84-1.2-.432-2.736-1.632-3.744-2.736-.192 5.376-.576 7.2-1.296 7.2-2.208 0-4.032-13.584-3.36-39.696h-5.472Zm-31.824 39.072 1.152 4.944c4.512-.864 10.32-1.968 15.792-3.072l-.432-4.752c-6 1.152-12.336 2.256-16.512 2.88Zm2.4-27.024v4.656H855.8v-4.656h-12.816Zm-1.632 8.112v4.8h15.36v-4.8h-15.36Zm.288 7.68c.672 2.64 1.296 6.144 1.392 8.448l3.552-.912c-.192-2.256-.816-5.664-1.584-8.352l-3.36.816Zm11.76-1.296c-.288 2.304-1.008 5.712-1.584 7.824l3.12.768c.624-2.016 1.296-5.04 2.016-7.776l-3.552-.816Zm-6.384-12.576v25.728l4.608-.72v-25.008h-4.608Zm.432-13.968c-1.44 3.792-4.08 8.4-8.016 11.856 1.056.768 2.688 2.496 3.408 3.648 4.608-4.32 7.392-9.312 9.168-13.008v-1.44h-1.584v-1.056h-2.976Zm.384 0v3.696h.864c2.352 2.304 5.232 6.528 6.48 8.976l3.6-4.176c-1.44-2.496-4.56-6-7.104-8.496h-3.84Zm52.944 10.8v25.104c0 6.672 1.824 8.592 8.304 8.592h8.496c5.952 0 7.632-2.784 8.4-11.52-1.68-.336-4.272-1.44-5.616-2.448-.384 6.864-.816 8.208-3.264 8.208H909.8c-2.496 0-2.88-.336-2.88-2.784v-25.152h-6.144Zm.576-6.672c3.792 2.592 8.736 6.384 11.472 8.736l3.792-4.752c-2.736-2.112-7.632-5.712-11.52-8.16l-3.744 4.176Zm-8.256 8.88c-.864 5.664-2.64 11.76-5.088 15.936l5.616 2.064c2.4-4.128 3.936-10.944 4.992-16.608l-5.52-1.392Zm28.272 5.664c2.88 4.56 5.856 10.752 6.96 14.784l5.568-2.832c-1.296-4.032-4.272-9.888-7.296-14.4l-5.232 2.448Zm2.304-15.888c-6.432 13.536-19.248 27.936-35.52 35.376 1.2 1.152 2.88 3.264 3.744 4.608 17.184-8.448 29.856-22.848 37.584-37.632l-5.808-2.352Zm28.176 1.584v4.896h29.088v-4.896h-29.088Zm5.328-4.368v12.96h5.328v-12.96h-5.328Zm12.624 0V256.4h5.424v-13.152H969.8Zm-3.936 16.512c2.928 4.176 8.4 8.736 13.344 11.232.72-1.632 1.92-3.696 2.976-5.04-5.184-1.968-10.416-6.288-13.872-11.184h-5.28c-2.496 4.416-7.872 9.6-13.392 12.144.96 1.248 2.064 3.312 2.64 4.656 5.616-2.784 10.896-7.68 13.584-11.808Zm-7.248 5.76v4.56h14.928v-4.56h-14.928Zm-.96 16.56v4.56h16.752v-4.56h-16.752Zm-2.736-9.072v15.312h5.184v-10.752h11.952v10.608h5.376v-15.168H954.92Zm-18.96-6.288 1.248 5.616a852.737 852.737 0 0 0 15.12-4.608l-.768-5.088c-5.664 1.584-11.616 3.216-15.6 4.08Zm.96-14.352v5.28h14.832v-5.28H936.92Zm5.664-9.072v38.544c0 .672-.24.912-.864.912s-2.592 0-4.464-.096c.72 1.584 1.44 4.08 1.632 5.616 3.264 0 5.568-.192 7.152-1.152 1.584-.912 2.064-2.448 2.064-5.28v-38.544h-5.52Zm47.28 7.728v5.04h9.504v22.224h-9.504v5.088h14.736v-32.352h-14.736Zm-3.36 0v35.904h5.232v-35.904h-5.232Zm3.12 12.816v4.992h12.286v-4.992h-12.286Zm3.696-20.64c-.24 2.64-.912 6.336-1.584 8.832l4.608 1.008c.96-2.256 2.16-5.664 3.264-8.928l-6.288-.912Zm17.62 7.488v5.232h14.01v-5.232h-14.01Zm12.04 0v1.104c-.52 20.016-1.15 28.272-2.68 29.904-.63.672-1.16.864-2.12.864-1.2 0-4.08-.048-7.2-.288 1.06 1.536 1.83 3.984 1.92 5.568 2.79.144 5.72.192 7.54-.096 1.97-.288 3.31-.816 4.66-2.688 1.96-2.544 2.54-10.176 3.16-31.776.05-.72.05-2.592.05-2.592h-5.33Zm-11.9-7.44c-1.54 6.384-4.27 12.912-7.49 16.944 1.35.768 3.7 2.4 4.75 3.36 3.27-4.608 6.39-11.904 8.26-19.008l-5.52-1.296Zm-2.35 21.264c2.3 3.552 5.33 8.256 6.62 11.184l4.9-2.976c-1.49-2.832-4.66-7.44-7.01-10.752l-4.51 2.544Zm34.37-2.544h-10.37v5.328h4.99v12.336h5.38v-17.664Zm0 15.456h-4.8c-2.02 1.776-4.32 3.6-6.24 4.944l2.73 5.52c2.26-2.16 4.18-3.984 6-5.904 2.88 3.744 6.82 5.184 12.67 5.424 6 .24 16.66.144 22.8-.144.24-1.584 1.11-4.128 1.73-5.376-6.81.528-18.62.672-24.57.432-4.95-.24-8.45-1.632-10.32-4.896Zm-10.66-30.192c2.45 2.448 5.33 5.952 6.43 8.256l4.9-3.216c-1.3-2.352-4.27-5.616-6.82-7.92l-4.51 2.88Zm13.58 15.648v4.176h29.43v-4.176h-29.43Zm-1.44 7.392v4.272h32.36v-4.272h-32.36Zm7.83-9.936v12h5.42v-12h-5.42Zm10.99 0v12h5.47v-12h-5.47Zm-16.08-9.984V254h11.86v-9.264h-13.97v3.6h9.12v2.016h-7.01Zm-1.44 0v4.704c0 3.84 1.2 4.944 5.47 4.944h5.04c2.93 0 4.23-.912 4.71-4.176-1.3-.24-3.12-.864-3.99-1.488-.19 1.584-.38 1.872-1.34 1.872h-3.7c-1.25 0-1.44-.192-1.44-1.2v-4.656h-4.75Zm17.23 0V254h11.95v-9.264h-14.25v3.6h9.36v2.016h-7.06Zm-1.44 0v4.656c0 3.888 1.2 4.992 5.52 4.992h5.19c2.97 0 4.27-.912 4.75-4.224-1.3-.288-3.12-.864-3.99-1.488-.19 1.632-.38 1.92-1.39 1.92h-3.84c-1.25 0-1.49-.192-1.49-1.2v-4.656h-4.75Zm.91 26.208c3.17 1.632 6.58 3.792 8.36 5.328l5.95-2.16c-2.4-1.632-6.63-3.936-10.08-5.52l-4.23 2.352Zm-8.4-2.352c-2.06 1.632-5.61 3.168-8.97 4.176 1.2.768 3.26 2.496 4.17 3.456 3.32-1.344 7.35-3.552 9.84-5.856l-5.04-1.776Zm62.16-25.44h2.98v3.168h-2.98v-3.168Zm-7.29 0h2.93v3.168h-2.93v-3.168Zm-7.15 0h2.78v3.168h-2.78v-3.168Zm-4.47-3.792v10.752h26.59v-10.752h-26.59Zm.58 12.672v4.08h25.29v-4.08h-25.29Zm-2.4 6.288v4.32h29.81v-4.32h-29.81Zm.43 7.92v4.272h28.85v-4.272h-28.85Zm1.25 6.48v4.176h26.45v-4.176h-26.45Zm10.27-23.616v11.136h5.47V254.72h-5.47Zm0 19.248v14.592h5.47v-14.592h-5.47Zm-6.29-5.424c.53 1.344 1.06 3.12 1.25 4.224l4.9-1.152c-.24-1.104-.92-2.784-1.44-4.032l-4.71.96Zm14.07-1.632c-.39 1.392-1.16 3.408-1.83 4.848l4.27 1.152c.77-1.2 1.78-2.928 2.84-4.752l-5.28-1.248Zm-35.38.48 1.3 5.52c4.22-1.2 9.5-2.736 14.44-4.272l-.76-5.184c-5.43 1.536-11.14 3.072-14.98 3.936Zm.77-15.024v5.28h14.69v-5.28h-14.69Zm5.09-9.072v38.928c0 .672-.24.816-.82.816-.58.048-2.26.048-3.98-.048.67 1.584 1.34 3.936 1.48 5.376 3.12 0 5.19-.192 6.63-1.104 1.49-.864 1.97-2.352 1.97-5.04v-38.928h-5.28Zm45.64 8.88v5.616h34.85v-5.616h-34.85Zm16.47-8.928v11.568h5.9v-11.568h-5.9Zm16.56 8.928v1.392c-4.32 7.92-14.45 18.864-23.67 24.768 1.35 1.008 3.17 2.784 4.13 4.032 9.75-6.48 20.31-17.568 26.35-27.744l-4.36-2.784-1.16.336h-1.29Zm-23.57 20.736-4.99 1.92c4.85 10.416 13.1 12.672 24.86 12.672h10.8c.29-1.68 1.2-4.368 2.02-5.712-2.88.096-10.23.096-12.43.096-9.17 0-16.95-1.392-20.26-8.976Zm-7.34 15.36c3.74-5.712 7.1-13.152 8.97-17.664l-5.76-2.112c-1.77 5.28-5.33 12.192-8.83 16.272l5.62 3.504Zm43.24-26.112v6.288h44.45v-6.288h-44.45Z" fill="#424242"/></svg>