<svg width="1440" height="810" fill="none" xmlns="http://www.w3.org/2000/svg"><path d="M187.456 184.008c.156 22.88 4.368 48.776 15.08 48.776 4.836 0 6.968-2.34 7.956-12.168-1.768-.676-4.004-2.184-5.408-3.692-.26 6.552-.832 9.308-1.976 9.308-4.42 0-9.308-21.684-8.996-42.224h-6.656Zm8.944 3.536c2.756 1.456 6.188 3.692 7.8 5.304l3.9-4.212c-1.716-1.612-5.252-3.692-8.008-4.888l-3.692 3.796Zm5.096 12.636c-3.64 12.428-10.504 22.412-20.28 28.132 1.404 1.092 3.9 3.536 4.888 4.784 9.932-6.708 17.368-17.68 21.684-31.46l-6.292-1.456Zm-38.74-8.684v6.136h46.54v-6.136h-46.54Zm-.208 31.928 1.144 6.448c6.344-1.352 14.872-3.172 22.672-4.94l-.52-5.98c-8.372 1.768-17.42 3.484-23.296 4.472Zm8.372-17.264h7.748v6.032h-7.748v-6.032Zm-5.668-5.252v16.484h19.5v-16.484h-19.5Zm49.764 5.148v5.512h46.072v-5.512h-46.072Zm23.296 9.412v5.356h19.448v-5.356h-19.448Zm-2.912-6.604v19.24h6.292v-19.24H235.4Zm-8.06 8.32-5.148 1.664c4.264 10.868 11.388 13 23.348 13h14.872c.312-1.82 1.248-4.576 2.132-5.928-3.744.104-13.78.156-16.64.104-9.1-.052-15.704-1.248-18.564-8.84Zm-4.524-4.524c-1.196 6.968-4.368 12.48-9.672 15.756 1.352.936 3.744 3.224 4.68 4.368 5.772-4.108 9.516-10.66 11.232-19.24l-6.24-.884Zm3.068-15.912h23.868v2.6h-23.868v-2.6Zm0-6.708h23.868v2.6h-23.868v-2.6Zm-6.032-4.42v18.148h36.244V185.62h-36.244Zm47.008 5.46v5.98h46.384v-5.98H266.86Zm16.952 16.848v5.772h27.248v-5.772h-27.248Zm-2.028 17.68v5.772h31.252v-5.772h-31.252Zm12.636-26.312v29.38h6.292v-29.38h-6.292ZM283.24 183.8c-2.704 10.504-8.632 22.152-18.044 28.288.936 1.508 2.392 4.264 3.016 6.032 11.128-7.592 17.68-20.228 21.528-32.76l-6.5-1.56Zm-10.4 21.788v26.988h6.292v-26.988h-6.292Zm65.884-21.684v7.436h6.396v-7.436h-6.396Zm-18.772 4.056v11.752h6.084v-6.084h31.824v6.084h6.344V187.96h-44.252Zm7.904 8.996v5.304h28.08v-5.304h-28.08Zm5.096 9.256c9.932 7.072 9.932 17.368 6.968 19.656-.884.936-1.872 1.092-3.172 1.092-1.352 0-3.068-.052-4.992-.26 1.092 1.768 1.664 4.264 1.768 5.98 1.56.104 3.12.156 4.42.104 2.756 0 4.42-.468 6.396-2.184 5.564-4.004 5.668-18.668-6.604-27.196l-4.784 2.808Zm8.216-7.904c-4.524 4.316-13.416 7.54-21.684 9.204.988 1.144 2.6 3.64 3.172 4.836 8.684-2.288 18.148-6.292 23.66-11.908l-5.148-2.132Zm-4.056 10.348c-3.692 2.808-11.232 5.928-16.9 7.28 1.144 1.248 2.444 3.38 3.12 4.732 5.824-2.028 13.468-5.876 17.784-9.204l-4.004-2.808Zm4.212 4.94c-4.836 4.68-14.768 9.568-22.984 11.596 1.196 1.352 2.548 3.588 3.276 5.148 8.268-2.756 18.408-8.268 23.972-13.572l-4.264-3.172Zm7.904-14.404-5.252 1.04c2.964 13.104 8.164 23.504 17.992 28.756.936-1.716 2.912-4.212 4.316-5.46-9.204-4.108-14.56-13.416-17.056-24.336Zm10.14 3.38c-2.704 2.6-7.332 5.928-10.608 7.8l4.004 3.744c3.38-1.716 7.904-4.628 11.492-7.332l-4.888-4.212Zm35.256-14.612v4.16h23.608v-4.16h-23.608Zm7.384 5.876v3.64h14.56v-3.64h-14.56Zm-2.6 5.616v3.64h19.032v-3.64h-19.032Zm1.716 10.972v3.536h11.336v-3.536h-11.336Zm0 5.2v3.692h11.336v-3.692h-11.336Zm-3.12-10.764v20.488h5.2v-16.692h9.828v-3.796h-15.028Zm12.74 0v16.068c0 .416-.156.572-.572.572-.416 0-1.612 0-2.756-.052.52 1.144 1.092 2.808 1.352 4.108 2.444 0 4.264-.052 5.668-.728 1.352-.728 1.716-1.768 1.716-3.9V204.86h-5.408Zm-24.492-16.848c1.82 2.184 3.796 5.2 4.524 7.176l4.628-3.016c-.832-1.976-2.912-4.836-4.784-6.916l-4.368 2.756Zm-1.248 11.336c1.976 2.132 4.16 5.044 5.044 7.072l4.42-3.224c-.936-1.976-3.276-4.732-5.304-6.656l-4.16 2.808Zm9.724 9.568H386.2v5.096h3.276v9.828h5.252v-14.924Zm0 12.376h-4.732c-2.08 2.08-4.42 4.264-6.5 5.876l2.808 5.356a159.371 159.371 0 0 0 6.032-6.656c2.496 3.848 5.928 5.876 10.816 6.136 3.9.156 10.348.104 14.3-.104.208-1.56 1.04-4.108 1.612-5.408-4.524.364-11.804.468-15.6.312-4.16-.208-7.124-2.184-8.736-5.512Zm11.544-25.428v5.616h5.356v-5.616h-5.356ZM400.5 183.8c-1.196 6.656-3.796 12.48-8.06 16.12 1.144.78 3.172 2.444 3.952 3.38 4.472-4.264 7.54-10.92 9.1-18.72l-4.992-.78Zm-28.912 2.288v46.644h5.408v-41.08h5.148v-5.564h-10.556Zm9.412 0v1.716c-.624 3.38-2.028 10.868-3.328 15.6 2.548 3.952 3.068 7.488 3.068 10.14 0 1.612-.26 2.86-.728 3.328-.364.312-.78.468-1.196.468-.468 0-1.04 0-1.716-.052.78 1.456 1.144 3.588 1.144 5.044 1.04 0 1.976-.052 2.756-.156 1.04-.156 1.924-.468 2.652-1.092 1.456-1.144 2.132-3.432 2.132-6.76 0-3.276-.572-7.124-3.38-11.44 1.352-4.16 2.86-10.14 4.056-14.872l-3.744-2.132-.78.208H381Zm61.256 3.276v5.408h26.572v-5.408h-26.572Zm-1.768 9.984v5.512h29.9v-5.512h-29.9Zm.104 9.932v5.46h29.432v-5.46h-29.432Zm11.7-25.48v19.084h6.136V183.8h-6.136Zm6.604 20.748v21.424c0 .728-.26.884-1.092.884-.78.052-3.64.052-6.188-.052.832 1.612 1.768 4.108 1.976 5.824 3.9 0 6.708-.104 8.788-1.04 2.028-.884 2.6-2.496 2.6-5.512v-21.528h-6.084Zm-16.224 13.676c2.392 2.652 4.992 6.344 5.98 8.788l5.356-3.12c-1.144-2.548-3.9-5.98-6.344-8.528l-4.992 2.86Zm-16.484-31.2v5.564h7.592v24.44h-7.592v5.564h13.416v-35.568h-13.416Zm.312 14.768v5.46h10.088v-5.46H426.5Zm-3.224-14.768v40.196h5.772v-40.196h-5.772Zm62.296 30.264v7.176c0 5.46 1.768 7.176 8.892 7.176h9.412c5.772 0 7.488-1.872 8.216-9.308-1.664-.364-4.264-1.248-5.616-2.236-.26 5.252-.624 5.98-3.068 5.98h-8.32c-2.86 0-3.38-.156-3.38-1.716v-7.072h-6.136Zm7.488-.676c2.34 2.236 5.46 5.408 6.916 7.332l4.524-3.848c-1.612-1.872-4.836-4.836-7.176-6.916l-4.264 3.432Zm17.576 1.456c2.08 3.432 4.94 8.06 6.188 10.816l5.824-2.964c-1.404-2.704-4.42-7.176-6.552-10.4l-5.46 2.548Zm-32.552-1.82c-.884 3.692-2.6 7.956-4.524 10.764l5.668 2.808c1.872-3.016 3.432-7.696 4.42-11.44l-5.564-2.132Zm-3.64-24.96v5.252h21.892v-5.252h-21.892Zm8.632-7.384v31.304h5.928v-31.304h-5.928Zm-.208 10.868c-1.976 5.096-5.772 10.556-9.672 13.416 1.248.988 3.068 3.016 4.004 4.368 4.004-3.64 7.8-10.14 9.932-16.432l-4.264-1.352Zm5.772 3.484-3.224 3.068c2.184 1.716 6.552 5.72 8.58 7.852l3.276-4.992c-1.404-1.04-6.864-4.94-8.632-5.928Zm15.392.728h9.62v3.068h-9.62v-3.068Zm0 7.592h9.62v3.12h-9.62v-3.12Zm0-15.184h9.62v2.964h-9.62v-2.964Zm-5.668-4.94v28.132h21.268v-28.132h-21.268Zm52.78 11.128H565.6v2.86h-14.456v-2.86Zm0-6.968H565.6v2.808h-14.456v-2.808Zm-5.616-4.42v18.72h25.948v-18.72h-25.948Zm3.9 17.368c-1.82 4.524-5.512 9.412-11.544 12.948 1.248.832 3.12 2.964 3.9 4.368 6.916-4.472 11.024-10.192 13.676-16.328l-6.032-.988Zm1.508 4.264-3.536 5.096h21.996v-5.096h-18.46Zm16.328 0v.988c-.364 12.844-.832 17.42-1.664 18.512-.468.572-.884.728-1.56.728-.832 0-2.392-.052-4.108-.26.676 1.352 1.3 3.432 1.352 4.836 2.34.052 4.42.052 5.772-.156 1.456-.208 2.6-.676 3.588-1.976 1.352-1.768 1.924-6.76 2.392-20.384.052-.728.052-2.288.052-2.288h-5.824Zm-21.996 5.98v9.724c0 4.836 1.144 6.344 6.448 6.344h6.396c3.744 0 5.2-1.248 5.876-6.032-1.508-.312-3.692-1.144-4.732-1.976-.156 2.704-.416 3.12-1.716 3.12h-5.096c-1.716 0-1.976-.208-1.976-1.56v-9.62h-5.2Zm13 .624c-2.392 1.612-6.604 3.328-10.4 4.42.624 1.04 1.404 2.756 1.664 3.744 4.264-1.04 9.204-2.6 12.948-4.576l-4.212-3.588Zm-27.456-25.376v5.616h6.032v18.356h-6.032v5.72h11.284v-29.692h-11.284Zm-3.484 0v34.008h5.408v-34.008h-5.408Zm51.012-2.08v5.46h47.528v-5.46H578.34Zm13.988-3.12v16.016h18.616v-16.016h-5.668v11.492h-7.488v-11.492h-5.46Zm-6.604 13.676v21.58h5.512v-21.58h-5.512Zm-6.656 3.484v5.252h9.568v-5.252h-9.568Zm-1.196 11.908 1.144 5.356c3.12-1.04 6.448-2.184 9.724-3.38l-.728-4.732c-3.848 1.04-7.436 2.132-10.14 2.756Zm34.216-15.34v14.508c0 4.888.936 6.448 5.408 6.448h3.484c3.328 0 4.68-1.716 5.2-7.488-1.456-.364-3.692-1.196-4.732-2.08-.156 4.004-.364 4.68-1.144 4.68h-1.82c-.676 0-.78-.156-.78-1.612V197.58h-5.616Zm10.036 2.132c-1.924 1.664-4.992 3.64-7.748 4.992.624 1.092 1.404 2.912 1.716 4.056 3.016-1.196 6.708-2.86 9.828-4.68l-3.796-4.368Zm-23.14 7.02h5.148v6.24h-5.148v-6.24Zm-5.044-4.472v15.236h15.496V202.26H593.94Zm-.728 19.5c.624 3.38 1.04 7.748 1.04 10.452l6.136-.936c-.052-2.6-.676-6.916-1.404-10.192l-5.772.676Zm10.348.104c1.248 3.328 2.444 7.696 2.808 10.348l6.24-1.248c-.468-2.704-1.82-6.916-3.172-10.088l-5.876.988Zm10.452-.312c2.444 3.484 5.356 8.268 6.5 11.18l6.188-2.652c-1.352-2.964-4.472-7.54-6.916-10.816l-5.772 2.288Zm-30.264-1.82c-1.352 3.9-3.9 8.008-6.448 10.244l5.876 2.548c2.808-2.808 5.252-7.124 6.604-11.284l-6.032-1.508Zm47.424-31.46v5.408h45.708v-5.408h-45.708Zm30.264 24.024v.832c-4.16 8.84-16.068 12.948-29.536 14.3.988 1.352 2.132 3.744 2.6 5.304 14.664-2.028 27.456-6.916 33.072-18.668l-3.9-1.976-1.04.208h-1.196Zm-11.7-3.64c-3.172 3.64-8.788 7.488-16.276 10.296 1.3.832 3.12 2.756 4.004 4.056 7.956-3.484 13.884-7.8 18.512-12.948l-6.24-1.404Zm-1.092 3.64-4.524 4.524h19.292v-4.524h-14.768Zm2.184-28.496v24.856h5.98V183.8h-5.98Zm.364 13.052c-4.264 6.708-12.844 12.324-22.152 14.82 1.196 1.144 2.808 3.328 3.588 4.732 9.724-3.172 18.148-9.62 23.14-17.836l-4.576-1.716Zm5.356.052-4.628 1.872c5.2 8.06 13.884 14.768 23.296 18.096.832-1.456 2.548-3.692 3.796-4.836-9.256-2.704-18.044-8.528-22.464-15.132Zm-17.212-3.432c-1.508 4.264-4.732 7.904-8.892 10.14 1.196.78 3.224 2.548 4.108 3.536 4.316-2.808 8.06-7.228 10.036-12.636l-5.252-1.04Zm-1.248 6.864c1.976 1.3 4.628 3.172 5.876 4.368l3.276-3.952c-1.352-1.144-4.056-2.86-6.032-3.952l-3.12 3.536Zm26.988-6.812c-1.196 3.276-3.536 6.344-6.396 8.32 1.196.832 3.172 2.6 4.108 3.588 3.068-2.496 5.876-6.448 7.436-10.608l-5.148-1.3Zm-1.196 6.604c3.38 2.028 7.852 5.148 10.036 7.072l3.276-3.952c-2.288-1.872-6.864-4.732-10.14-6.604l-3.172 3.484Zm-20.54 21.788c8.528 2.964 20.28 7.8 25.948 10.92l5.46-4.316c-6.5-3.224-18.356-7.696-26.364-10.296l-5.044 3.692Zm38.584-27.716v5.772h16.848V194.2h-16.848Zm7.02-10.348c-1.612 10.348-4.472 24.076-6.708 32.292l5.096 2.704c2.444-9.36 5.46-23.296 7.488-34.372l-5.876-.624Zm-3.952 31.46c4.94 3.224 10.92 8.164 13.572 11.752l3.692-4.992c-2.756-3.536-8.944-8.112-13.884-11.18l-3.38 4.42Zm11.596-21.112v1.144c-.988 16.432-5.668 27.924-14.56 32.552 1.248 1.196 2.912 3.432 3.744 4.94 10.4-6.344 15.444-17.836 16.692-38.168l-3.744-.624-1.092.156h-1.04Zm5.616-7.592v5.616h17.004v-5.616h-17.004Zm17.42 14.352-.78 5.616h7.488v-5.616h-6.708Zm4.628 0v1.092c-.52 16.172-1.248 22.516-2.496 23.92-.572.624-1.092.728-1.976.728-1.092 0-3.484 0-5.98-.208.988 1.612 1.716 4.108 1.82 5.824 2.704.156 5.304.156 6.968-.104 1.82-.26 3.068-.78 4.368-2.444 1.768-2.132 2.392-8.84 3.068-26.26.052-.728.104-2.548.104-2.548h-5.876Zm-17.42-12.428c-.104 15.34.052 30.784-7.436 40.092 1.56.936 3.536 2.756 4.524 4.16 8.32-10.556 8.84-27.456 9.048-44.252h-6.136Zm10.816-1.924c-.26 7.02-1.04 16.068-1.924 21.736l5.668.416c.78-5.72 1.56-14.872 1.976-22.152h-5.72ZM581.002 308.736h7.592c-.153 2.489-.838 4.698-2.057 6.627-1.202 1.93-2.886 3.436-5.053 4.52-2.149 1.083-4.739 1.625-7.769 1.625-2.37 0-4.494-.406-6.373-1.219a13.546 13.546 0 0 1-4.824-3.555c-1.321-1.54-2.328-3.402-3.022-5.586-.694-2.183-1.041-4.629-1.041-7.337v-2.565c0-2.708.356-5.154 1.066-7.338.728-2.2 1.761-4.071 3.098-5.611a13.816 13.816 0 0 1 4.85-3.555c1.879-.829 3.978-1.244 6.297-1.244 3.08 0 5.679.559 7.795 1.676 2.132 1.117 3.783 2.657 4.951 4.621 1.185 1.963 1.896 4.198 2.133 6.703h-7.618c-.084-1.49-.381-2.751-.888-3.783a5.035 5.035 0 0 0-2.311-2.361c-1.016-.542-2.37-.813-4.062-.813-1.27 0-2.379.237-3.327.711-.947.474-1.743 1.193-2.386 2.158-.643.965-1.126 2.184-1.448 3.656-.304 1.456-.457 3.166-.457 5.129v2.616c0 1.912.144 3.597.432 5.052.288 1.439.728 2.658 1.32 3.657.61.981 1.388 1.726 2.336 2.234.965.491 2.125.736 3.479.736 1.591 0 2.903-.254 3.935-.761a5.267 5.267 0 0 0 2.362-2.26c.558-.999.888-2.243.99-3.733ZM600.273 282v39h-7.312v-39h7.312Zm-1.041 24.299h-2.005c.016-1.913.27-3.673.761-5.281.491-1.625 1.194-3.03 2.108-4.215.914-1.202 2.006-2.133 3.275-2.793 1.287-.66 2.708-.99 4.266-.99 1.354 0 2.581.194 3.681.584a6.836 6.836 0 0 1 2.87 1.828c.812.829 1.438 1.921 1.878 3.275.441 1.354.661 2.996.661 4.926V321h-7.364v-17.418c0-1.219-.177-2.175-.533-2.869-.338-.711-.838-1.21-1.498-1.498-.643-.305-1.439-.457-2.387-.457-1.049 0-1.946.194-2.691.584a4.616 4.616 0 0 0-1.752 1.625c-.44.677-.762 1.472-.965 2.387a13.561 13.561 0 0 0-.305 2.945Zm30.774-12.772V321h-7.338v-27.473h7.338Zm-7.795-7.16c0-1.066.372-1.946 1.117-2.64.745-.694 1.744-1.041 2.996-1.041 1.236 0 2.226.347 2.971 1.041.762.694 1.143 1.574 1.143 2.64 0 1.067-.381 1.947-1.143 2.641-.745.694-1.735 1.041-2.971 1.041-1.252 0-2.251-.347-2.996-1.041-.745-.694-1.117-1.574-1.117-2.641ZM643.768 282v39h-7.338v-39h7.338Zm13.761 0v39h-7.338v-39h7.338Zm5.176 15.34v6.812h48.152v-6.812h-48.152Zm52.676-16.692v6.292h46.696v-6.292h-46.696Zm18.876 5.668v39.26h6.708v-39.26h-6.708Zm3.536 12.584c5.876 3.172 13.78 8.06 17.472 11.336l4.628-5.72c-4.004-3.224-12.168-7.748-17.836-10.556l-4.264 4.94Zm50.232 8.736h5.356l1.352-17.784.26-7.748h-8.58l.26 7.748 1.352 17.784Zm2.704 13.884c2.6 0 4.576-1.924 4.576-4.628s-1.976-4.576-4.576-4.576c-2.652 0-4.628 1.872-4.628 4.576 0 2.704 1.924 4.628 4.628 4.628Z" fill="#424242"/></svg>