<svg width="1440" height="810" fill="none" xmlns="http://www.w3.org/2000/svg"><path d="M895.866 383.904h43.212V368.57c0-.846.317-1.673.911-2.376.593-.703 1.437-1.251 2.424-1.574a6.723 6.723 0 0 1 3.12-.243c1.048.164 2.01.572 2.765 1.169l35.574 28.163c1.013.802 1.582 1.89 1.582 3.023 0 1.134-.569 2.222-1.582 3.024l-35.574 28.162c-.755.598-1.717 1.005-2.765 1.17a6.723 6.723 0 0 1-3.12-.243c-.987-.324-1.831-.872-2.424-1.575-.594-.703-.911-1.529-.911-2.375v-15.334h-43.212c-1.432 0-2.806-.451-3.819-1.253-1.013-.801-1.582-1.889-1.582-3.023V388.18c0-1.134.569-2.222 1.582-3.024 1.013-.802 2.387-1.252 3.819-1.252Z" fill="#DBE4E3" stroke="#56878A" stroke-width="2.5" stroke-linecap="round" stroke-linejoin="round"/><g clip-path="url(#a)"><path d="M777.427 295.258a50.636 50.636 0 0 1 8.243 59.078c-22.985 43.128-88.73 31.565-94.891-17.611-6.021-48.303 53.058-76.239 86.648-41.467Z" fill="#DBE4E3"/><path d="M785.673 354.28c-25.545 48.022-100.012 26.895-95.088-28.133 1.941 48.135 70.753 65.465 95.088 19.693a49.237 49.237 0 0 0 5.795-19.693 49.879 49.879 0 0 1-5.795 28.133Z" fill="#DBE4E3"/><path d="M726.734 337.007c2.814 2.222 5.036-.591 10.044-1.238 5.007-.647 18.23 2.813 18.877 7.849.647 5.036-6.189 11-10.691 16.655-4.501 5.654-3.151 15.698-3.151 15.698l-5.626-4.389c-2.813-2.223.619-15.389.281-17.921-.337-2.531-8.44-6.583-6.273-9.396 2.166-2.813-.619-5.036-3.461-7.258ZM736.468 312.841a13.555 13.555 0 0 0-6.273 10.972c.309 2.531-7.54.984-9.734 3.797-2.195 2.814 3.46 7.202 6.273 9.397-2.813-2.195-10.662-3.742-16.007-5.627-5.345-1.885-6.583-11.928-6.921-14.432-.253-1.997-5.429-4.979-8.974-7.23a50.654 50.654 0 0 1 8.44-12.885c24.813-2.307 17.47.901 21.943 4.361 2.813 2.194-.253.337 4.783-.31 5.036-.647 11.197 8.806 6.47 11.957ZM777.426 295.258a50.64 50.64 0 0 1 8.243 59.079c-3.545-2.813-5.007-14.573-5.626-18.821-.647-5.036-15.698-3.151-16.345-8.187-.648-5.035 3.769-10.662 3.769-10.662 2.195-2.813 10.072-1.266 15.079-1.885 5.008-.619-5.626-4.416-13.813-8.439-8.186-4.023 4.473-3.264 8.693-11.085ZM758.156 282.795a7.254 7.254 0 0 0 .619 4.277c3.46 7.23-3.489 8.805-7.905 14.46-4.417 5.654-11.253-1.857-12.21-11.929-.45-4.163-11-6.301-11-6.301a12.31 12.31 0 0 1-.14-1.66 50.647 50.647 0 0 1 30.636 1.153Z" fill="#597476"/><path d="M741.024 434.543v22.506h-30.946c1.378-10.859-.732-22.506-8.44-28.133a253.583 253.583 0 0 1-28.133-25.319c-8.439-8.44-19.693-36.573-19.693-42.199a5.626 5.626 0 0 1 10.606-2.588c12.407 29.426 15.333 31.339 42.846 47.6a125.865 125.865 0 0 1-11.253-16.879c-8.439-14.067-.337-16.064 5.627-14.067 8.44 2.814 14.066 19.693 22.506 25.32 8.44 5.626 16.88 22.815 16.88 33.759Z" fill="#F7F0EA"/><path d="M828.236 361.398c0 5.626-11.253 33.759-19.693 42.199a253.683 253.683 0 0 1-28.133 25.319c-7.624 5.627-9.874 16.88-8.439 28.133h-30.946c0-22.506-.394-24.363.984-29.849 2.42-10.24 9.143-21.915 15.895-26.416 8.44-5.627 14.067-22.506 22.506-25.32 5.964-1.997 14.067 0 5.627 14.067a125.865 125.865 0 0 1-11.253 16.879c27.514-16.261 30.411-18.174 42.79-47.572a5.625 5.625 0 0 1 9.47-.954 5.632 5.632 0 0 1 1.192 3.514Z" fill="#F7F0EA"/><path d="M741.025 442.982a10.154 10.154 0 0 1-9.115 5.627h-2.617a25.575 25.575 0 0 1-21.184-11.253 41.303 41.303 0 0 1 1.97 19.693h30.946v-14.067Z" fill="#F7F0EA"/><path d="M773.939 437.356a25.576 25.576 0 0 1-21.184 11.253c-3.601 0-8.806.225-11.732-5.627v14.067h30.946a40.904 40.904 0 0 1 1.97-19.693Z" fill="#F7F0EA"/><path d="M815.041 357.713c-11.759 28.132-15.81 30.017-30.242 39.216 4.079-6.498 10.803-16.288 6.104-22.112-2.813-3.404-7.652-3.263-11.253-2.025-9.846 3.291-15.107 20.283-23.153 25.657-6.189 4.023-12.097 13.138-15.473 22.337-3.376-9.199-9.283-18.314-15.332-22.337-7.933-5.289-13.391-22.507-23.153-25.657-3.714-1.238-8.665-1.379-11.394 2.025-4.698 5.852 2.054 15.67 6.105 22.112-14.685-9.34-18.371-11.084-30.327-39.385a8.436 8.436 0 0 0-9.469-4.301 8.442 8.442 0 0 0-6.454 8.155c0 6.33 11.619 35.306 20.509 44.196a258.47 258.47 0 0 0 28.442 25.573c9.734 7.286 7.37 22.506 7.342 22.506a2.852 2.852 0 0 0 2.363 3.263 2.848 2.848 0 0 0 3.264-2.363c0-.731 2.954-18.652-9.537-28.132a251.395 251.395 0 0 1-27.823-25.067c-8.131-7.849-18.933-35.531-18.933-39.976a2.815 2.815 0 0 1 5.204-1.491c12.491 29.877 16.008 32.437 43.943 48.894a2.815 2.815 0 0 0 4.24-2.461 2.815 2.815 0 0 0-.695-1.815c-2.194-2.475-16.57-22.731-13.785-26.191.703-.872 2.982-.957 5.204-.197 7.034 2.335 12.97 19.074 21.859 24.982 7.568 5.063 15.614 21.212 15.614 31.424v19.693a2.812 2.812 0 0 0 4.803 1.989 2.816 2.816 0 0 0 .824-1.989v-19.693c0-10.212 8.046-26.361 15.613-31.424 8.862-5.88 14.826-22.506 21.859-24.982 2.223-.76 4.501-.675 5.205.197 2.813 3.46-11.732 23.856-13.785 26.191a2.815 2.815 0 0 0 1.633 4.623 2.811 2.811 0 0 0 1.911-.347c26.867-15.726 31.537-19.158 43.156-46.981.731-1.772 1.153-3.235 3.179-3.235a2.81 2.81 0 0 1 2.813 2.813c0 4.445-10.803 32.127-18.877 40.201a251.395 251.395 0 0 1-27.823 25.067c-12.378 9.368-9.565 27.288-9.565 28.02a2.846 2.846 0 0 0 3.263 2.363 2.848 2.848 0 0 0 2.363-3.264c0-.168-2.391-15.332 7.343-22.506a258.462 258.462 0 0 0 28.442-25.572c8.862-9.003 20.481-37.979 20.481-44.309a8.441 8.441 0 0 0-12.057-7.575 8.44 8.44 0 0 0-3.951 3.89Z" fill="#597476"/><path d="M747.663 383.482a53.452 53.452 0 0 0 46.391-59.669c-5.711-45.631-62.623-62.989-93.007-28.864-32.493 36.685-2.222 94.581 46.616 88.533Zm-51.511-69.6a24.421 24.421 0 0 1 4.895 3.657c2.11 15.979 7.652 16.317 14.798 18.371a41.14 41.14 0 0 1 9.171 3.319 14.73 14.73 0 0 1 3.151 2.954c0 .675-4.36 2.814 3.404 9.959.75.635 1.455 1.322 2.11 2.054 0 .788-.309 2.616-.506 3.995-2.223 14.882-.872 14.066 6.949 20.002a47.828 47.828 0 0 1-43.972-64.311Zm8.299-14.376c1.801-.169 16.233-1.519 16.12.197a7.88 7.88 0 0 0 3.573 4.304 3.089 3.089 0 0 0 4.614 0 7.224 7.224 0 0 1 1.491-.309c2.166-.31 6.414 5.064 4.67 6.808a17.223 17.223 0 0 0-7.511 12.097c-2.814.45-6.977.478-9.143 3.292a5.03 5.03 0 0 0-.929 4.557c-1.969-.563-3.967-1.153-5.626-1.744-1.069-.394-3.77-2.335-5.064-12.154-.338-2.813-3.292-4.866-8.131-7.905a48.941 48.941 0 0 1 5.936-9.143Zm28.696 40.145a17.243 17.243 0 0 1 3.994-1.097c4.839-.591 15.417 3.039 15.727 5.402.393 3.376-6.218 9.537-10.1 14.629a21.627 21.627 0 0 0-3.826 11.618l-.844-.647c-1.069-2.56 1.519-13.531 1.182-16.176-.422-3.263-4.783-5.626-6.471-7.905a5.291 5.291 0 0 0 .338-5.824Zm10.381 38.626a2.811 2.811 0 0 0 1.069-2.503c-.282-2.504-.394-9.791 2.588-13.645 4.585-5.879 12.041-12.181 11.253-18.736-.985-7.652-16.88-10.915-22-10.268-5.12.647-6.92 2.644-7.961 1.8.281 0-5.036-3.601-5.627-5.626 2.138-1.351 10.887 0 10.156-5.627a11.084 11.084 0 0 1 5.036-8.271c7.708-5.12-1.323-20.48-11.394-16.373-1.125-.928-.141-1.829-3.179-4.192-1.182-.9-3.235-1.716-12.66-1.181a47.471 47.471 0 0 1 14.798-8.215c.405.434.937.73 1.519.844 4.051.816 8.44 2.813 8.75 3.826.759 7.089 5.007 16.401 11.618 16.401 4.108 0 4.783-2.813 9.565-6.892 3.123-2.814 6.949-5.964 4.924-11.929a48.45 48.45 0 0 1 11.731 8.159c-3.854 4.107-10.297 4.051-10.325 8.44 0 3.544 4.811 5.148 11.028 7.961 1.379.591-5.964-1.069-9.03 2.813-.535.676-5.121 6.752-4.361 12.745.9 7.061 14.685 6.189 16.345 8.242.9 7.118 2.194 14.629 4.923 18.709a47.543 47.543 0 0 1-38.766 23.518Zm11.787-93.428c.09 1.18.395 2.334.9 3.404 2.392 4.951-2.813 5.43-7.567 11.506-.788 1.013-1.266.872-1.491.816-1.913-.562-5.036-4.895-5.627-11.253a9.03 9.03 0 0 0-5.823-6.358 47.251 47.251 0 0 1 19.608 1.885Zm22.506 15.051a47.554 47.554 0 0 1 6.78 10.859c-2.616-1.772-8.243-3.967-13.7-6.611 6.329-3.038 6.442-4.811 6.92-4.248Zm7.596 48.219c-4.445-14.066 1.491-16.626-12.885-19.496a20.539 20.539 0 0 1-5.936-1.716 14.577 14.577 0 0 1 3.179-8.439c2.054-2.167 14.517 1.491 16.655-2.814a47.29 47.29 0 0 1-1.013 32.465Z" fill="#597476"/></g><path d="M651.864 482.982v2.52h7.752v-2.52h-7.752Zm.216 6.912v2.544h7.2v-2.544h-7.2Zm7.248-1.656v2.28h14.88v-2.28h-14.88Zm-7.8 9.624.6 2.712c2.304-.624 5.256-1.416 7.992-2.184l-.336-2.568c-3 .792-6.144 1.584-8.256 2.04Zm11.784-4.416h6.912v1.536h-6.912v-1.536Zm-2.52-2.04v5.64h12.096v-5.64h-12.096Zm8.568-7.44h1.536v1.56h-1.536v-1.56Zm-3.36 0h1.512v1.56H666v-1.56Zm-3.288 0h1.464v1.56h-1.464v-1.56Zm-2.304-1.92v5.4h12.888v-5.4h-12.888Zm7.224 13.896-2.064.6c1.344 3.264 3.744 5.976 6.912 7.296.384-.696 1.2-1.728 1.8-2.256-3.048-.936-5.472-3.12-6.648-5.64Zm4.272 1.032c-.648.624-1.776 1.56-2.568 2.064l1.632 1.296c.84-.456 1.944-1.176 2.904-1.896l-1.968-1.464Zm-17.376-12.888v14.4l2.592-.432v-13.968h-2.592Zm11.76 11.472c-1.824 2.064-5.4 4.08-8.568 5.064.552.504 1.296 1.44 1.656 2.04 3.24-1.248 6.84-3.624 8.928-6.192l-2.016-.912Zm-2.376 3.384v4.872h2.712v-6.696l-2.712 1.824Zm20.04-16.152v2.232h13.776v-2.232h-13.776Zm-.528 4.08v2.328h14.736v-2.328h-14.736Zm5.76-5.52v2.952h2.832v-2.952h-2.832Zm3.624 3.24c-.168.648-.528 1.584-.84 2.232l2.496.504c.312-.552.696-1.32 1.152-2.208l-2.808-.528Zm-6.792.6c.312.696.648 1.608.72 2.208l2.616-.624c-.144-.6-.48-1.488-.864-2.088l-2.472.504Zm1.44 9.576h6.768v1.224h-6.768v-1.224Zm0-2.856h6.768v1.2h-6.768v-1.2Zm-2.688-1.776v7.632h12.264v-7.632h-12.264Zm6.6 7.08v3.408c0 2.28.48 3.072 2.736 3.072H696c1.68 0 2.352-.696 2.616-3.504-.72-.144-1.872-.6-2.376-1.008-.072 1.824-.168 2.088-.552 2.088h-1.104c-.408 0-.48-.096-.48-.696v-3.36h-2.736Zm-4.392-.096c-.384 2.136-1.224 3.528-5.424 4.344.552.552 1.296 1.728 1.56 2.424 4.968-1.272 6.192-3.528 6.672-6.768h-2.808Zm-10.92-10.128v2.712h7.248v-2.712h-7.248Zm2.4-5.376v15.936h2.664v-15.936h-2.664Zm-2.928 15.696.984 2.88c2.184-1.008 4.944-2.256 7.488-3.48l-.648-2.568c-2.832 1.224-5.856 2.496-7.824 3.168Zm33.504-5.736-2.52.744c2.496 6.096 6.672 9.864 13.728 11.424.408-.792 1.224-2.04 1.872-2.64-6.768-1.2-11.064-4.488-13.08-9.528Zm7.344-1.44v.504c-1.488 5.664-5.928 9.264-11.496 10.704.576.6 1.272 1.704 1.632 2.448 6.24-1.968 10.992-5.76 12.912-12.936l-1.968-.84-.528.12h-.552Zm-15.864-5.28v2.784h20.952v-2.784h-20.952Zm6.792 5.28-.816 2.784h10.176v-2.784h-9.36Zm-.792-8.856c-.144 2.928-.096 14.016-6.96 19.608.984.576 1.896 1.296 2.496 2.064 6.912-6.288 7.272-17.904 7.464-21.672h-3Zm22.104 19.608v2.208h12.648v-2.208h-12.648Zm-1.296-3.84v6.768h2.832v-4.584h9.624v4.512h2.952v-6.696H727.32Zm-1.8-13.224v2.088h18.96v-2.088h-18.96Zm-.672 5.976v2.088H745.2v-2.088h-20.352Zm2.256-2.976v2.016h15.816v-2.016h-15.816Zm-3.024 7.128v2.208h21.864v-2.208H724.08Zm9.36-9.12v10.032h2.976V484.83h-2.976Zm-4.872-2.928c.504.792 1.008 1.896 1.176 2.592l2.736-.792a9.823 9.823 0 0 0-1.296-2.472l-2.616.672Zm-1.104 10.224c.432.696.888 1.68 1.008 2.328l2.784-.696c-.192-.624-.648-1.536-1.128-2.208l-2.664.576Zm11.064-10.92c-.24.768-.768 1.824-1.176 2.592l2.616.48a29.717 29.717 0 0 0 1.608-2.568l-3.048-.504Zm1.224 10.368c-.24.648-.672 1.56-1.008 2.208l2.688.432c.36-.552.768-1.296 1.272-2.208l-2.952-.432ZM1166.68 477.557c-.5 1.92-1.49 4.464-2.35 6.096l2.49.648c.92-1.536 2-3.888 2.86-6.096l-3-.648Zm-3.62 4.92.21 2.736c2.74-.168 6.43-.384 9.96-.648l.03-2.496c-3.72.168-7.61.336-10.2.408Zm1.41 3.864v13.848h2.67v-11.472h4.96v-2.376h-7.63Zm6.27 0v10.896c0 .312-.1.384-.39.384-.31.024-1.27.024-2.11-.024.36.696.77 1.8.91 2.568 1.47 0 2.55-.048 3.39-.48.81-.432 1.05-1.152 1.05-2.376v-10.968h-2.85Zm-5.04 3.624v2.136h6.64v-2.136h-6.64Zm0 3.528v2.136h6.64v-2.136h-6.64Zm9.76-15.72v7.248c0 2.664.7 3.48 3.53 3.48h3.31c2.24 0 3-.864 3.32-3.984-.8-.168-1.97-.6-2.57-1.056-.1 2.112-.24 2.472-1.03 2.472h-2.62c-.91 0-1.06-.12-1.06-.96v-7.2h-2.88Zm7.2 1.416c-1.58.912-4.05 1.992-6.28 2.688.31.552.69 1.416.81 1.992 2.38-.648 5.16-1.56 7.3-2.592l-1.83-2.088Zm-7.2 9.792v7.584c0 2.664.72 3.48 3.56 3.48h3.4c2.31 0 3.08-.96 3.39-4.344-.79-.168-1.95-.624-2.55-1.056-.12 2.448-.26 2.88-1.1 2.88h-2.74c-.93 0-1.1-.096-1.1-.984v-7.56h-2.86Zm7.4 1.008c-1.64 1.056-4.2 2.232-6.53 2.976.29.552.69 1.464.84 2.016 2.47-.696 5.37-1.704 7.56-2.88l-1.87-2.112Zm-12.92-9.792c1.16 1.8 2.31 4.2 2.72 5.736l2.61-1.056c-.45-1.584-1.7-3.864-2.88-5.592l-2.45.912Zm25.18-1.272v2.592h14.21v-2.592h-14.21Zm-.86 0v6.648c0 3.912-.24 9.384-2.93 13.128.67.288 1.89 1.056 2.42 1.536 2.86-4.008 3.29-10.392 3.29-14.664v-6.648h-2.78Zm6.19 9.888h5.54v1.344h-5.54v-1.344Zm0-3.24h5.54v1.32h-5.54v-1.32Zm-2.57-2.064v8.712h10.78v-8.712h-10.78Zm.41 9.648c-.51 1.632-1.44 3.288-2.55 4.392.63.336 1.71 1.032 2.24 1.464 1.1-1.272 2.23-3.288 2.85-5.256l-2.54-.6Zm6.81.696c.92 1.536 1.88 3.576 2.21 4.848l2.64-1.128c-.41-1.296-1.46-3.24-2.37-4.704l-2.48.984Zm-3.36-12.936c-.04 1.032-.28 2.448-.5 3.456l2.57.528c.33-.864.72-2.16 1.13-3.48l-3.2-.504Zm-.04 10.488v6.024c0 .24-.1.312-.36.336-.29 0-1.28 0-2.12-.024.32.696.65 1.728.75 2.448 1.49.024 2.61 0 3.43-.384.86-.384 1.03-1.08 1.03-2.304v-6.096h-2.73Zm-13.56-11.496c1.39.672 3.12 1.776 3.91 2.592l1.73-2.304c-.87-.816-2.64-1.776-4.04-2.376l-1.6 2.088Zm-1.16 6.504c1.4.624 3.12 1.656 3.92 2.448l1.7-2.328c-.89-.768-2.64-1.704-4.01-2.256l-1.61 2.136Zm.32 11.952 2.61 1.536a97.054 97.054 0 0 0 3.1-7.728l-2.35-1.584c-1.01 2.832-2.38 5.88-3.36 7.776Zm33.93-9.528v2.424h9.51v-2.424h-9.51Zm-.02 4.224v2.4h9.53v-2.4h-9.53Zm9.29-14.832c-.48 1.464-1.4 3.36-2.12 4.584l2.5.936c.74-1.152 1.63-2.856 2.42-4.536l-2.8-.984Zm-11.93 1.248c.93 1.392 1.87 3.24 2.18 4.464l2.59-1.224c-.36-1.224-1.39-3-2.35-4.32l-2.42 1.08Zm.74 4.896v15.816h2.83v-13.128h8.64v-2.688h-11.47Zm10.13 0v12.696c0 .312-.12.408-.48.432-.36 0-1.63 0-2.74-.048.36.744.75 1.92.87 2.688 1.8 0 3.09-.024 4.01-.456.88-.456 1.15-1.224 1.15-2.592v-12.72h-2.81Zm-5.02-6.72v8.52h2.91v-8.52h-2.91Zm-12.31 2.232c1.49.792 3.36 2.064 4.2 2.952l1.8-2.208c-.93-.912-2.83-2.04-4.32-2.76l-1.68 2.016Zm-1.1 6.384c1.53.792 3.43 2.064 4.32 2.976l1.73-2.256c-.96-.912-2.91-2.064-4.42-2.76l-1.63 2.04Zm.67 11.976 2.52 1.848a91.94 91.94 0 0 0 3.72-7.8l-2.11-1.728c-1.3 2.808-2.95 5.856-4.13 7.68Zm23.88-18.192v2.424h9.02v-2.424h-9.02Zm9.91 5.736.41 2.592 10.82-1.704-.4-2.544-10.83 1.656Zm-.45 5.352.38 2.616 12.22-1.896-.36-2.544-12.24 1.824Zm8.97-13.44c-2.04 1.368-5.66 2.688-9.02 3.528.36.552.79 1.536.93 2.136 3.6-.84 7.61-2.088 10.47-3.744l-2.38-1.92Zm-4.89 3.888v14.592c0 2.856.64 3.72 3.07 3.72h2.57c2.11 0 2.78-1.2 3.04-4.68-.74-.168-1.82-.648-2.44-1.128-.1 2.712-.22 3.36-.84 3.36h-1.85c-.67 0-.77-.168-.77-1.272v-14.592h-2.78Zm-13.85 6.432v2.496h9.86v-2.496h-9.86Zm.74-4.008v2.424h8.11v-2.424h-8.11Zm3.03-6.36v22.536h2.66v-22.536h-2.66Zm.12 11.304c-.84 2.016-2.62 4.536-4.3 5.952.41.696.98 1.848 1.25 2.64 1.94-1.728 3.79-5.016 4.85-7.752l-1.8-.84Zm2.3.864-1.58 1.32c.93 1.152 2.78 3.648 3.57 5.016l1.8-2.184c-.55-.696-3.05-3.48-3.79-4.152Zm35.4-10.656c1.1.672 2.42 1.704 3.02 2.424l1.61-1.56c-.67-.744-2.01-1.704-3.12-2.28l-1.51 1.416Zm-7.13 9.36v2.088h2.45v2.592h-2.45v2.112h4.37v-6.792h-4.37Zm9.03-3.216c-1.23 5.832-3.77 10.32-8 12.888.53.456 1.52 1.392 1.9 1.872 4.3-3.024 7.08-7.872 8.57-14.304l-2.47-.456Zm-13.32-4.104v6.744c0 3.24-.15 7.68-2 10.776.58.264 1.71 1.008 2.16 1.464 2.02-3.384 2.36-8.64 2.36-12.24v-6.744h-2.52Zm1.53 0v2.544h14.33v-2.544h-14.33Zm1.78 3.888v2.088h5.13v-2.088h-5.13Zm-.12 3.432v8.064h1.89v-8.064h-1.89Zm-8.5-8.616c1.39.672 3.1 1.728 3.91 2.52l1.73-2.304c-.89-.792-2.66-1.728-4.01-2.304l-1.63 2.088Zm-1.13 6.504c1.37.6 3.1 1.632 3.89 2.4l1.71-2.328c-.89-.768-2.64-1.68-4.01-2.184l-1.59 2.112Zm.15 11.88 2.59 1.44c1.01-2.424 2.04-5.304 2.88-7.968l-2.33-1.488a74.125 74.125 0 0 1-3.14 8.016Zm14.95-20.352c.29 12.984 1.42 22.152 5.16 22.224.96 0 2.18-.96 2.76-5.352-.43-.216-1.58-.936-2.02-1.488-.14 2.232-.36 3.432-.72 3.408-1.29-.048-2.47-8.976-2.56-18.792h-2.62Zm18.77-.264v11.64c0 .36-.15.456-.55.456-.44 0-1.95.024-3.32-.024.44.816.89 2.112 1.01 2.952 1.97 0 3.46-.072 4.47-.528 1.05-.456 1.34-1.272 1.34-2.808v-11.688h-2.95Zm5.23 4.032c1.94 2.544 4.01 5.928 4.73 8.16l2.95-1.608c-.84-2.304-3.05-5.52-5.02-7.92l-2.66 1.368Zm1.08 6.12c-1.97 6.408-6.34 8.688-14.3 9.6.6.744 1.24 1.968 1.53 2.88 8.69-1.392 13.49-4.152 15.87-11.616l-3.1-.864Zm-11.81-7.128c-.72 2.544-2.37 5.76-4.39 7.68.77.384 1.94 1.152 2.62 1.704 2.08-2.136 3.86-5.616 4.99-8.64l-3.22-.744Zm28.86.114h.5v2.695h-.2c-.89 0-1.69.133-2.38.399-.7.265-1.29.644-1.77 1.136-.48.485-.84 1.071-1.1 1.758-.25.688-.38 1.457-.38 2.309v2.836c0 .609.06 1.148.18 1.617.12.461.3.848.53 1.16.23.305.5.535.82.692.31.148.66.222 1.05.222.37 0 .7-.078 1-.234.3-.156.56-.375.77-.656.22-.29.38-.625.49-1.008.12-.391.18-.817.18-1.278 0-.461-.06-.886-.18-1.277a2.872 2.872 0 0 0-.49-1.008 2.22 2.22 0 0 0-.8-.668 2.303 2.303 0 0 0-1.05-.234 2.654 2.654 0 0 0-2.34 1.312c-.23.383-.35.786-.37 1.207l-1.02-.656c.03-.601.15-1.172.38-1.711a4.55 4.55 0 0 1 .96-1.429c.41-.422.91-.75 1.49-.985.57-.242 1.23-.363 1.95-.363.8 0 1.5.152 2.1.457a4.26 4.26 0 0 1 1.52 1.254c.41.531.72 1.144.92 1.84.2.695.3 1.437.3 2.226 0 .828-.13 1.598-.41 2.309a5.28 5.28 0 0 1-1.16 1.863c-.5.531-1.1.945-1.8 1.242-.7.297-1.49.446-2.37.446-.91 0-1.73-.164-2.47-.493a5.561 5.561 0 0 1-1.9-1.406 6.398 6.398 0 0 1-1.23-2.144c-.28-.828-.42-1.735-.42-2.719v-1.313c0-1.375.2-2.632.6-3.773.4-1.148.98-2.141 1.74-2.977a7.788 7.788 0 0 1 2.74-1.957c1.07-.461 2.28-.691 3.62-.691Zm16.56 7.207v2.953c0 1.281-.13 2.387-.41 3.317-.27.921-.66 1.679-1.18 2.273a4.656 4.656 0 0 1-1.82 1.301c-.7.281-1.48.422-2.34.422-.69 0-1.33-.086-1.92-.258-.6-.18-1.13-.457-1.61-.832-.47-.375-.87-.848-1.22-1.418-.33-.578-.59-1.266-.77-2.063-.18-.797-.27-1.711-.27-2.742v-2.953c0-1.281.14-2.379.41-3.293.28-.922.68-1.676 1.18-2.262a4.722 4.722 0 0 1 1.83-1.289c.71-.281 1.49-.422 2.35-.422.68 0 1.32.09 1.91.27.59.172 1.13.441 1.6.808.48.368.88.84 1.22 1.418.34.571.59 1.254.77 2.051.18.789.27 1.696.27 2.719Zm-3.38 3.398v-3.855c0-.617-.04-1.156-.11-1.617a4.765 4.765 0 0 0-.29-1.172c-.13-.328-.3-.594-.49-.797a1.83 1.83 0 0 0-.67-.445 2.355 2.355 0 0 0-.83-.141c-.39 0-.73.074-1.02.223-.29.148-.54.386-.74.715-.2.32-.36.75-.47 1.289-.1.531-.15 1.179-.15 1.945v3.855c0 .618.03 1.161.09 1.629.07.469.17.871.31 1.207.14.328.3.598.49.809.19.203.42.352.67.445.25.094.53.141.84.141.37 0 .71-.074 1-.223.29-.156.54-.398.75-.726.21-.336.36-.774.46-1.313.11-.539.16-1.195.16-1.969Zm5.63-6.246v-.902c0-.648.14-1.238.43-1.77.28-.531.69-.957 1.24-1.277.54-.32 1.22-.48 2.01-.48.82 0 1.51.16 2.05.48.56.32.97.746 1.25 1.277.28.532.42 1.122.42 1.77v.902c0 .633-.14 1.215-.42 1.746-.28.532-.69.957-1.23 1.278-.55.32-1.23.48-2.03.48-.81 0-1.5-.16-2.05-.48a3.165 3.165 0 0 1-1.24-1.278 3.58 3.58 0 0 1-.43-1.746Zm2.24-.902v.902c0 .274.05.535.15.785.11.243.28.442.5.598.22.149.5.223.82.223.33 0 .61-.074.82-.223.21-.156.36-.355.47-.598.1-.25.15-.511.15-.785v-.902c0-.289-.06-.555-.17-.797a1.28 1.28 0 0 0-.48-.598c-.21-.156-.48-.234-.82-.234-.31 0-.58.078-.79.234-.22.149-.39.348-.5.598-.1.242-.15.508-.15.797Zm5.92 10.5v-.902c0-.641.14-1.227.42-1.758a3.29 3.29 0 0 1 1.26-1.278c.55-.32 1.23-.48 2.03-.48.82 0 1.5.16 2.04.48.55.321.96.747 1.25 1.278.28.531.42 1.117.42 1.758v.902a3.71 3.71 0 0 1-.42 1.758c-.28.531-.69.957-1.23 1.277-.55.32-1.23.481-2.03.481-.81 0-1.5-.161-2.05-.481a3.24 3.24 0 0 1-1.27-1.277 3.71 3.71 0 0 1-.42-1.758Zm2.25-.902v.902c0 .281.06.547.19.797.12.25.29.449.51.598.23.148.49.222.79.222.37 0 .67-.074.88-.222.21-.149.35-.348.43-.598.09-.25.13-.516.13-.797v-.902c0-.282-.06-.543-.16-.786-.11-.25-.28-.449-.5-.597-.21-.156-.48-.235-.81-.235-.32 0-.6.079-.82.235-.21.148-.37.347-.48.597-.11.243-.16.504-.16.786Zm2.3-10.442-8.34 13.336-1.64-.867 8.34-13.336 1.64.867ZM1052.07 283.968v2.808h16.71v-2.808h-16.71Zm-.98 7.08v2.76h16.78v-2.76h-16.78Zm-2.78 7.608v2.808H1070v-2.808h-21.69Zm9.33-19.032v20.424h3v-20.424h-3Zm-5.54.288c-.87 3.312-2.4 6.624-4.3 8.64.75.408 2.02 1.248 2.59 1.752 1.88-2.304 3.63-6 4.68-9.72l-2.97-.672Zm23.06 7.512v2.304h18.94v-2.304h-18.94Zm-1.61-6.168v2.232h19.37v-2.232h-19.37Zm5.86 10.344v2.232h13.3V291.6h-13.3Zm-.41 3.768v2.208h12.99v-2.208H1079Zm-2.06 4.032v2.328h16.97V299.4h-16.97Zm4.65-19.752v3.36h2.88v-3.36h-2.88Zm2.45 10.368v10.248h2.83v-10.248h-2.83Zm-10.32-2.592v4.008c0 2.688-.19 6.504-2.13 9.216.6.336 1.8 1.296 2.25 1.824 2.26-3.048 2.69-7.824 2.69-11.016v-4.032h-2.81Zm5.64 2.328c-.57 1.68-1.61 3.336-2.85 4.416.62.336 1.65 1.08 2.13 1.512 1.3-1.272 2.52-3.288 3.24-5.328l-2.52-.6Zm-2.49-5.304c3.98.84 8.95 2.328 11.73 3.432l1.75-1.488c-2.92-1.032-7.84-2.472-11.68-3.288l-1.8 1.344Zm10.75-1.68c-2.38 1.56-7.56 2.832-11.64 3.432.31.432.81 1.248 1.01 1.728 4.32-.72 9.48-2.136 12.55-4.128l-1.92-1.032Zm8.57-1.704v2.52h21.93v-2.52h-21.93Zm6.45-1.44v7.392h8.59v-7.392h-2.61v5.304h-3.46v-5.304h-2.52Zm-3.05 6.312v9.96h2.55v-9.96h-2.55Zm-3.07 1.608v2.424h4.42v-2.424h-4.42Zm-.55 5.496.53 2.472c1.44-.48 2.97-1.008 4.49-1.56l-.34-2.184c-1.78.48-3.43.984-4.68 1.272Zm15.79-7.08v6.696c0 2.256.43 2.976 2.5 2.976h1.61c1.53 0 2.16-.792 2.4-3.456-.68-.168-1.71-.552-2.19-.96-.07 1.848-.17 2.16-.53 2.16h-.84c-.31 0-.36-.072-.36-.744v-6.672h-2.59Zm4.63.984c-.88.768-2.3 1.68-3.57 2.304.29.504.65 1.344.79 1.872 1.39-.552 3.1-1.32 4.54-2.16l-1.76-2.016Zm-10.68 3.24h2.38v2.88h-2.38v-2.88Zm-2.32-2.064v7.032h7.15v-7.032h-7.15Zm-.34 9c.29 1.56.48 3.576.48 4.824l2.83-.432c-.02-1.2-.31-3.192-.65-4.704l-2.66.312Zm4.78.048c.57 1.536 1.12 3.552 1.29 4.776l2.88-.576c-.21-1.248-.84-3.192-1.46-4.656l-2.71.456Zm4.82-.144c1.13 1.608 2.47 3.816 3 5.16l2.86-1.224c-.63-1.368-2.07-3.48-3.2-4.992l-2.66 1.056Zm-13.97-.84c-.62 1.8-1.8 3.696-2.97 4.728l2.71 1.176c1.29-1.296 2.42-3.288 3.05-5.208l-2.79-.696Zm21.89-14.52v2.496h21.1v-2.496h-21.1Zm13.97 11.088v.384c-1.92 4.08-7.42 5.976-13.63 6.6.45.624.98 1.728 1.2 2.448 6.76-.936 12.67-3.192 15.26-8.616l-1.8-.912-.48.096h-.55Zm-5.4-1.68c-1.47 1.68-4.06 3.456-7.51 4.752.6.384 1.44 1.272 1.84 1.872 3.68-1.608 6.41-3.6 8.55-5.976l-2.88-.648Zm-.51 1.68-2.08 2.088h8.9v-2.088h-6.82Zm1.01-13.152v11.472h2.76V279.6h-2.76Zm.17 6.024c-1.97 3.096-5.93 5.688-10.22 6.84.55.528 1.29 1.536 1.65 2.184 4.49-1.464 8.38-4.44 10.68-8.232l-2.11-.792Zm2.47.024-2.13.864c2.4 3.72 6.4 6.816 10.75 8.352.38-.672 1.17-1.704 1.75-2.232-4.27-1.248-8.33-3.936-10.37-6.984Zm-7.94-1.584c-.7 1.968-2.19 3.648-4.11 4.68.56.36 1.49 1.176 1.9 1.632a11.9 11.9 0 0 0 4.63-5.832l-2.42-.48Zm-.58 3.168c.91.6 2.14 1.464 2.71 2.016l1.52-1.824c-.63-.528-1.88-1.32-2.79-1.824l-1.44 1.632Zm12.46-3.144c-.55 1.512-1.63 2.928-2.95 3.84.55.384 1.46 1.2 1.89 1.656 1.42-1.152 2.71-2.976 3.43-4.896l-2.37-.6Zm-.55 3.048c1.56.936 3.62 2.376 4.63 3.264l1.51-1.824c-1.06-.864-3.17-2.184-4.68-3.048l-1.46 1.608Zm-9.48 10.056c3.93 1.368 9.36 3.6 11.97 5.04l2.52-1.992c-3-1.488-8.47-3.552-12.17-4.752l-2.32 1.704Zm17.8-12.792v2.664h7.78V284.4h-7.78Zm3.24-4.776c-.74 4.776-2.06 11.112-3.09 14.904l2.35 1.248c1.13-4.32 2.52-10.752 3.46-15.864l-2.72-.288Zm-1.82 14.52c2.28 1.488 5.04 3.768 6.26 5.424l1.71-2.304c-1.27-1.632-4.13-3.744-6.41-5.16l-1.56 2.04Zm5.35-9.744v.528c-.45 7.584-2.61 12.888-6.72 15.024.58.552 1.35 1.584 1.73 2.28 4.8-2.928 7.13-8.232 7.7-17.616l-1.72-.288-.51.072h-.48Zm2.59-3.504v2.592h7.85v-2.592h-7.85Zm8.04 6.624-.36 2.592h3.46v-2.592h-3.1Zm2.14 0v.504c-.24 7.464-.58 10.392-1.15 11.04-.27.288-.51.336-.91.336-.51 0-1.61 0-2.76-.096.45.744.79 1.896.84 2.688 1.24.072 2.44.072 3.21-.048.84-.12 1.42-.36 2.02-1.128.81-.984 1.1-4.08 1.41-12.12.03-.336.05-1.176.05-1.176h-2.71Zm-8.04-5.736c-.05 7.08.02 14.208-3.43 18.504.72.432 1.63 1.272 2.09 1.92 3.84-4.872 4.08-12.672 4.17-20.424h-2.83Zm4.99-.888c-.12 3.24-.48 7.416-.89 10.032l2.62.192c.36-2.64.72-6.864.91-10.224h-2.64Zm19.13 5.712v2.592h8.59v-2.592h-8.59Zm.02 5.664v2.616h8.6v-2.616h-8.6Zm-.02 5.688v2.592h8.62v-2.592h-8.62Zm-1.37-17.04v21.048h2.76v-18.336h5.67v18.192h2.9V280.92h-11.33Zm-10.08 3.648v2.736h9.24v-2.736h-9.24Zm3.48-4.944v22.536h2.76v-22.536h-2.76Zm-.17 6.792c-.64 3.072-2.18 6.816-3.91 8.904.43.72 1.11 1.896 1.37 2.712 1.9-2.496 3.48-7.104 4.27-11.016l-1.73-.6Zm2.72 2.112-1.32 1.32c.86 1.2 2.56 3.816 3.26 5.232l1.63-2.328c-.53-.648-2.88-3.552-3.57-4.224Zm32.66-8.928v3.984h2.83V279.6h-2.83Zm2.33 6.336c1.15 1.584 2.45 3.72 2.93 5.088l2.42-1.248c-.58-1.392-1.94-3.432-3.1-4.944l-2.25 1.104Zm-4.61-.888c-.65 1.776-1.82 3.528-3.19 4.656.65.36 1.75 1.176 2.25 1.656 1.4-1.344 2.79-3.48 3.6-5.616l-2.66-.696Zm-2.33-2.664v2.592h11.95v-2.592h-11.95Zm4.23 7.344-2.5.6c1.58 5.496 4.3 9.72 8.86 11.88.38-.72 1.22-1.8 1.84-2.328-4.22-1.728-6.91-5.568-8.2-10.152Zm3.28-.048c-1.1 4.992-3.91 8.496-8.64 10.32.56.48 1.42 1.608 1.78 2.256 5.18-2.256 8.11-6.144 9.5-11.976l-2.64-.6Zm-17.68-7.752v2.472h9.79v-2.472h-9.79Zm-.27 13.92v2.496h10.56v-2.496h-10.56Zm3.94-16.2v6.984h2.57v-6.984h-2.57Zm.29 7.032v6.672h-.29v8.808h2.57v-8.808h-.32v-6.672h-1.96Zm-1.47 4.296h4.95v1.44h-4.95v-1.44Zm0-3.288h4.95v1.392h-4.95v-1.392Zm-2.06-1.992v8.712h9.17v-8.712h-9.17Zm23.52-2.4v2.664h10.46v-2.664h-10.46Zm3.89 5.232v2.616h3.93v-2.616h-3.93Zm-.12-8.88v4.512h2.85v-4.512h-2.85Zm12.09 3.216c.94 2.712 2.86 5.976 5.28 7.752.39-.96.91-2.136 1.44-2.928-2.28-1.368-4.25-4.8-5.4-8.16h-2.83c-.82 2.952-2.71 6.696-5.04 8.376.46.696 1.06 1.896 1.32 2.736 2.4-1.776 4.32-5.136 5.23-7.776Zm-13.53 2.112c-.05 6.432-.1 11.88-2.84 15.192.72.504 1.64 1.464 2.07 2.16 3.21-3.864 3.48-10.128 3.57-17.352h-2.8Zm4.58 3.552v.528c-.1 7.2-.24 9.648-.6 10.2-.19.288-.38.36-.7.36-.38 0-1.03 0-1.82-.072.41.72.7 1.824.74 2.592 1.01.048 1.97.024 2.57-.072.7-.144 1.18-.36 1.63-1.056.63-.864.75-3.696.87-11.328.02-.336.02-1.152.02-1.152h-2.71Zm6.17 2.016c1.51 1.056 3.31 2.64 4.1 3.768l2.04-2.04c-.86-1.104-2.73-2.544-4.25-3.528l-1.89 1.8Zm-2.07 6.576c2.84 1.296 6.36 3.456 8 5.064l1.89-2.544c-1.73-1.584-5.37-3.576-8.13-4.752l-1.76 2.232Zm16.85-16.992c-.77 3.312-2.23 6.6-4.13 8.568.77.312 2.16 1.032 2.79 1.464 1.8-2.232 3.41-5.76 4.34-9.456l-3-.576Zm.43 3.552-.84 2.832h17.24v-2.832h-16.4Zm-4.15 7.632v2.856h21.94v-2.856h-21.94Zm9.72-11.688v22.536h3.07v-22.536h-3.07Zm14.11 4.776v2.664h7.78V284.4h-7.78Zm3.24-4.776c-.74 4.776-2.06 11.112-3.09 14.904l2.35 1.248c1.13-4.32 2.52-10.752 3.46-15.864l-2.72-.288Zm-1.82 14.52c2.28 1.488 5.04 3.768 6.26 5.424l1.71-2.304c-1.27-1.632-4.13-3.744-6.41-5.16l-1.56 2.04Zm5.35-9.744v.528c-.45 7.584-2.61 12.888-6.72 15.024.58.552 1.35 1.584 1.73 2.28 4.8-2.928 7.13-8.232 7.7-17.616l-1.72-.288-.51.072h-.48Zm2.59-3.504v2.592h7.85v-2.592h-7.85Zm8.04 6.624-.36 2.592h3.46v-2.592h-3.1Zm2.14 0v.504c-.24 7.464-.58 10.392-1.15 11.04-.27.288-.51.336-.91.336-.51 0-1.61 0-2.76-.096.45.744.79 1.896.84 2.688 1.24.072 2.44.072 3.21-.048.84-.12 1.42-.36 2.02-1.128.81-.984 1.1-4.08 1.41-12.12.03-.336.05-1.176.05-1.176h-2.71Zm-8.04-5.736c-.05 7.08.02 14.208-3.43 18.504.72.432 1.63 1.272 2.09 1.92 3.84-4.872 4.08-12.672 4.17-20.424h-2.83Zm4.99-.888c-.12 3.24-.48 7.416-.89 10.032l2.62.192c.36-2.64.72-6.864.91-10.224h-2.64ZM1174.44 369.624V379.8c0 4.152-.46 7.896-4.2 10.488.62.432 1.6 1.32 2.06 1.896 4.2-3 4.7-7.536 4.7-12.384v-10.176h-2.56Zm4.24 0v22.536h2.74v-22.536h-2.74Zm-7.77 3.96v2.592h4.65v-2.592h-4.65Zm9.21 0v2.592h5.07v-2.592h-5.07Zm.2 5.04v2.544h4.6v-2.544h-4.6Zm-.24 5.184v2.592h5.49v-2.592h-5.49Zm-8.98-5.184v2.544h4.56v-2.544h-4.56Zm-1.49 6.216 1.08 2.472c1.42-.528 3.03-1.152 4.56-1.8l-.43-2.256c-1.94.624-3.84 1.224-5.21 1.584Zm-6.79-3.12.65 2.76c2.11-.6 4.75-1.368 7.22-2.136l-.38-2.592c-2.71.768-5.57 1.536-7.49 1.968Zm.38-7.512v2.64h7.35v-2.64h-7.35Zm2.55-4.536v19.464c0 .336-.12.408-.41.408-.29.024-1.13.024-1.99-.024.33.792.67 1.968.74 2.688 1.56 0 2.59-.096 3.31-.552.75-.432.99-1.176.99-2.52v-19.464h-2.64Zm21.41 1.08v2.52h8.59v-2.52h-8.59Zm2.64 7.44v2.496h2.83v5.976h-2.83v2.472h5.23v-10.944h-5.23Zm-.12-6.048c-.44 4.296-1.25 8.472-2.96 11.112.46.624 1.2 1.992 1.47 2.64 2.25-3.24 3.41-8.256 4.08-13.368l-2.59-.384Zm-.96 6.048v12.696h2.35v-12.696h-2.35Zm10.99 3.144c-.12 1.536-.55 3.192-1.23 4.152l1.83.96c.81-1.2 1.22-3.12 1.34-4.8l-1.94-.312Zm7.17-.408c-.38 1.32-1.1 3.144-1.75 4.32l1.83.744c.69-1.08 1.53-2.736 2.35-4.2l-2.43-.864Zm-10.2-10.56v5.28h12.03v-5.28h-2.5v2.976h-7.15v-2.976h-2.38Zm-1.17 6.744v2.424h14.01v-2.424h-14.01Zm5.81-7.464v5.28h2.52v-5.28h-2.52Zm1.27 10.248c-.12 5.64-.43 8.616-4.9 10.32.51.456 1.15 1.368 1.44 1.992 5.07-2.088 5.64-5.856 5.79-12.312h-2.33Zm2.25.984-1.99.12c.29 4.44.82 9 5.47 11.184.34-.672 1.04-1.632 1.61-2.16-4.37-1.752-4.89-5.184-5.09-9.144Zm-8.35-4.728v4.128c0 3.264-.24 7.152-2.33 10.344.68.312 1.66 1.008 2.19 1.488 2.3-3.576 2.57-8.04 2.57-11.808v-4.152h-2.43Zm32.35-5.016c1.11.672 2.43 1.704 3.03 2.424l1.61-1.56c-.68-.744-2.02-1.704-3.12-2.28l-1.52 1.416Zm-7.12 9.36v2.088h2.44v2.592h-2.44v2.112h4.36v-6.792h-4.36Zm9.02-3.216c-1.22 5.832-3.77 10.32-7.99 12.888.53.456 1.51 1.392 1.89 1.872 4.3-3.024 7.08-7.872 8.57-14.304l-2.47-.456Zm-13.32-4.104v6.744c0 3.24-.14 7.68-1.99 10.776.57.264 1.7 1.008 2.16 1.464 2.01-3.384 2.35-8.64 2.35-12.24v-6.744h-2.52Zm1.54 0v2.544h14.32v-2.544h-14.32Zm1.77 3.888v2.088h5.14v-2.088h-5.14Zm-.12 3.432v8.064h1.9v-8.064h-1.9Zm-8.49-8.616c1.39.672 3.09 1.728 3.91 2.52l1.73-2.304c-.89-.792-2.67-1.728-4.01-2.304l-1.63 2.088Zm-1.13 6.504c1.37.6 3.09 1.632 3.89 2.4l1.7-2.328c-.89-.768-2.64-1.68-4.01-2.184l-1.58 2.112Zm.14 11.88 2.59 1.44c1.01-2.424 2.04-5.304 2.88-7.968l-2.32-1.488a76.094 76.094 0 0 1-3.15 8.016Zm14.95-20.352c.29 12.984 1.42 22.152 5.16 22.224.96 0 2.19-.96 2.76-5.352-.43-.216-1.58-.936-2.01-1.488-.15 2.232-.36 3.432-.72 3.408-1.3-.048-2.47-8.976-2.57-18.792h-2.62Zm18.77-.264v11.64c0 .36-.14.456-.55.456-.43 0-1.94.024-3.31-.024.43.816.89 2.112 1.01 2.952 1.96 0 3.45-.072 4.46-.528 1.06-.456 1.34-1.272 1.34-2.808v-11.688h-2.95Zm5.23 4.032c1.95 2.544 4.01 5.928 4.73 8.16l2.95-1.608c-.84-2.304-3.04-5.52-5.01-7.92l-2.67 1.368Zm1.08 6.12c-1.96 6.408-6.33 8.688-14.3 9.6.6.744 1.25 1.968 1.54 2.88 8.68-1.392 13.48-4.152 15.86-11.616l-3.1-.864Zm-11.8-7.128c-.72 2.544-2.38 5.76-4.4 7.68.77.384 1.95 1.152 2.62 1.704 2.09-2.136 3.86-5.616 4.99-8.64l-3.21-.744Zm31.74.29v1.816l-6.6 15.246h-3.56l6.6-14.425h-8.5v-2.637h12.06Zm13.68 7.031v2.953c0 1.282-.14 2.387-.41 3.317-.28.922-.67 1.679-1.19 2.273-.5.586-1.11 1.02-1.81 1.301-.71.281-1.49.422-2.35.422-.68 0-1.32-.086-1.92-.258a4.79 4.79 0 0 1-1.6-.832 5.206 5.206 0 0 1-1.22-1.418c-.34-.578-.6-1.266-.78-2.063-.18-.796-.27-1.71-.27-2.742v-2.953c0-1.281.14-2.379.41-3.293.29-.922.68-1.676 1.19-2.262a4.59 4.59 0 0 1 1.83-1.289c.7-.281 1.48-.421 2.34-.421.69 0 1.32.089 1.91.269.59.172 1.13.441 1.61.809.47.367.88.84 1.21 1.418.34.57.6 1.254.78 2.05.18.789.27 1.696.27 2.719Zm-3.39 3.399v-3.856c0-.617-.03-1.156-.1-1.617a5.229 5.229 0 0 0-.3-1.172c-.13-.328-.29-.594-.49-.797-.2-.203-.42-.351-.67-.445a2.355 2.355 0 0 0-.83-.141c-.38 0-.72.074-1.02.223-.29.148-.53.387-.74.715-.2.32-.36.75-.47 1.289-.1.531-.15 1.18-.15 1.945v3.856c0 .617.03 1.16.09 1.629.08.468.18.871.31 1.207.14.328.3.597.49.808.2.203.42.352.67.445.26.094.54.141.84.141.38 0 .71-.074 1-.223.3-.156.55-.398.75-.726.21-.336.37-.774.47-1.313.1-.539.15-1.195.15-1.968Zm5.64-6.246v-.903c0-.648.14-1.238.42-1.769.28-.532.69-.957 1.24-1.278.55-.32 1.22-.48 2.02-.48.82 0 1.5.16 2.05.48.55.321.97.746 1.24 1.278.28.531.42 1.121.42 1.769v.903c0 .632-.14 1.214-.42 1.746-.27.531-.68.957-1.23 1.277-.55.32-1.22.48-2.03.48-.81 0-1.49-.16-2.05-.48-.55-.32-.96-.746-1.24-1.277a3.691 3.691 0 0 1-.42-1.746Zm2.24-.903v.903c0 .273.05.535.15.785.11.242.27.441.49.597.23.149.5.223.82.223.34 0 .61-.074.82-.223.21-.156.37-.355.47-.597.1-.25.15-.512.15-.785v-.903c0-.289-.05-.555-.16-.797-.1-.25-.26-.449-.48-.597-.21-.157-.49-.235-.82-.235-.32 0-.58.078-.8.235-.22.148-.38.347-.49.597-.1.242-.15.508-.15.797Zm5.91 10.5v-.902c0-.641.14-1.227.43-1.758.28-.531.7-.957 1.25-1.277.55-.321 1.23-.481 2.04-.481s1.49.16 2.04.481c.54.32.96.746 1.24 1.277.28.531.42 1.117.42 1.758v.902a3.71 3.71 0 0 1-.42 1.758c-.27.531-.68.957-1.23 1.277-.55.321-1.22.481-2.03.481-.81 0-1.49-.16-2.05-.481-.55-.32-.98-.746-1.26-1.277a3.604 3.604 0 0 1-.43-1.758Zm2.25-.902v.902c0 .281.07.547.19.797.13.25.3.449.52.598.22.148.48.222.78.222.38 0 .67-.074.88-.222.21-.149.36-.348.43-.598.09-.25.13-.516.13-.797v-.902c0-.281-.05-.543-.16-.785-.11-.25-.27-.45-.49-.598-.21-.156-.48-.234-.81-.234-.33 0-.6.078-.82.234-.21.148-.37.348-.48.598-.11.242-.17.504-.17.785Zm2.3-10.442-8.33 13.336-1.64-.867 8.33-13.336 1.64.867Z" fill="#56878A"/><g clip-path="url(#b)"><path d="M1114.66 359.654a4.73 4.73 0 0 0 4.73-4.727 4.73 4.73 0 0 0-4.73-4.726 4.73 4.73 0 0 0-4.73 4.726 4.73 4.73 0 0 0 4.73 4.727Z" fill="#E0E0E0"/><path d="M1114.66 359.653c-.72 0-1.43-.166-2.08-.483a4.68 4.68 0 0 1-1.65-1.35 4.69 4.69 0 0 1-.9-1.94 4.806 4.806 0 0 1 .06-2.134 4.682 4.682 0 0 0 1.68 2.545 4.726 4.726 0 0 0 7.46-2.545c.18.698.2 1.428.06 2.134a4.69 4.69 0 0 1-.9 1.94c-.44.57-1 1.032-1.65 1.35-.65.317-1.36.483-2.08.483ZM1092.21 423.459c1.96 0 3.55-1.587 3.55-3.545a3.548 3.548 0 0 0-3.55-3.545 3.54 3.54 0 0 0-3.54 3.545 3.54 3.54 0 0 0 3.54 3.545Z" fill="#E0E0E0"/><path d="M1092.21 423.458a3.57 3.57 0 0 1-1.63-.4c-.5-.261-.93-.639-1.26-1.102a3.649 3.649 0 0 1-.61-1.558 3.496 3.496 0 0 1 .17-1.666c.25.684.7 1.275 1.3 1.693.59.418 1.3.642 2.03.642.73 0 1.44-.224 2.04-.642a3.58 3.58 0 0 0 1.29-1.693c.19.534.25 1.105.17 1.666a3.649 3.649 0 0 1-.61 1.558c-.33.463-.76.841-1.26 1.102a3.57 3.57 0 0 1-1.63.4ZM1060.9 364.38a4.136 4.136 0 1 0 .008-8.272 4.136 4.136 0 0 0-.008 8.272Z" fill="#E0E0E0"/><path d="M1060.9 364.38a4.123 4.123 0 0 1-1.85-.441 4.06 4.06 0 0 1-1.46-1.225 4.047 4.047 0 0 1-.76-1.749 4.22 4.22 0 0 1 .11-1.902c.26.85.78 1.594 1.5 2.123.71.529 1.57.815 2.46.815.89 0 1.75-.286 2.46-.815a4.12 4.12 0 0 0 1.5-2.123c.18.617.22 1.268.11 1.902a4.047 4.047 0 0 1-.76 1.749 4.06 4.06 0 0 1-1.46 1.225c-.57.289-1.21.44-1.85.441ZM1053.22 415.187a2.364 2.364 0 0 0 0-4.726 2.357 2.357 0 0 0-2.36 2.363 2.357 2.357 0 0 0 2.36 2.363Z" fill="#E0E0E0"/><path d="M1053.22 415.187a2.351 2.351 0 0 1-1.86-.919 2.341 2.341 0 0 1-.45-.969c-.07-.352-.06-.717.03-1.066.13.501.43.943.84 1.258.42.315.92.486 1.44.486.52 0 1.02-.171 1.43-.486.42-.315.71-.757.85-1.258.09.349.1.714.03 1.066-.08.353-.23.684-.45.969-.22.285-.5.516-.82.675-.33.16-.68.243-1.04.244ZM1115.57 388.165c.48-2.176.32-4.442-.44-6.534a11.828 11.828 0 0 0-3.87-5.282 7.113 7.113 0 0 0 .89-4.898 7.118 7.118 0 0 0-2.56-4.275 7.088 7.088 0 0 0-9.31.406 23.549 23.549 0 0 0-17.96-5.369c-3.21.382-6.3 1.418-9.08 3.042a23.53 23.53 0 0 0-7.12 6.403 8.856 8.856 0 0 0-8.16 2.654 8.85 8.85 0 0 0-2.07 8.323c-2.4.787-4.44 2.401-5.75 4.552a10.61 10.61 0 0 0-1.44 7.191 10.638 10.638 0 0 0 3.56 6.412 10.639 10.639 0 0 0 6.87 2.582c3.42 0 2.36-1.253 2.36 1.181 0 7.846 10.91 9.843 13.71 2.529a23.54 23.54 0 0 0 19.46.177 11.19 11.19 0 0 0 13.59-.609 11.18 11.18 0 0 0 2.95-3.834 7.662 7.662 0 0 0 6.23-.18 7.573 7.573 0 0 0 2.52-1.942c.7-.816 1.22-1.77 1.52-2.799a7.75 7.75 0 0 0 .26-3.176 7.69 7.69 0 0 0-6.18-6.554h.02Z" fill="#E0E0E0"/><path d="M1121.75 395.691a7.723 7.723 0 0 1-.91 3.584 7.654 7.654 0 0 1-2.48 2.744 7.7 7.7 0 0 1-3.47 1.266c-1.25.133-2.5-.04-3.67-.504a11.065 11.065 0 0 1-2.95 3.833 11.195 11.195 0 0 1-4.28 2.233c-1.58.424-3.23.497-4.84.217-1.6-.281-3.13-.909-4.47-1.84a23.537 23.537 0 0 1-19.46-.178c-2.81 7.361-13.73 5.341-13.73-2.493 0-2.446 1.09-1.181-2.36-1.181a10.629 10.629 0 0 1-6.18-1.993 10.614 10.614 0 0 1-3.87-5.213 10.587 10.587 0 0 1-.12-6.492 10.667 10.667 0 0 1 3.68-5.349c-4.54 6.924.07 16.683 8.17 16.683 3.4 0 1.86-1.347 1.86 1.773 0 7.16 10.12 9.122 12.6 2.233a23.416 23.416 0 0 0 18.77-.118c5.38 3.994 12.74 1.831 15.51-4.443 6.35 2.765 12.39-4.868 8.77-11.142a7.615 7.615 0 0 1 2.53 2.756c.59 1.114.91 2.36.9 3.624Z" fill="#E0E0E0"/><path d="M1114.66 360.835c1.17 0 2.31-.346 3.28-.995a5.884 5.884 0 0 0 2.18-2.652 5.95 5.95 0 0 0 .34-3.413 5.9 5.9 0 0 0-1.62-3.025 5.924 5.924 0 0 0-3.03-1.617 5.903 5.903 0 0 0-6.06 2.512c-.65.972-1 2.114-1 3.282 0 1.567.63 3.07 1.73 4.178a5.911 5.911 0 0 0 4.18 1.73Zm0-9.452c.7 0 1.39.208 1.97.597.58.39 1.04.943 1.31 1.591.26.648.34 1.36.2 2.048a3.611 3.611 0 0 1-.97 1.815c-.5.496-1.13.833-1.82.97a3.51 3.51 0 0 1-2.04-.202 3.556 3.556 0 0 1-1.6-1.305 3.536 3.536 0 0 1-.59-1.97c0-.94.37-1.841 1.04-2.506a3.52 3.52 0 0 1 2.5-1.038ZM1092.21 415.188c-.93 0-1.85.277-2.63.796a4.783 4.783 0 0 0-1.74 2.121 4.725 4.725 0 0 0-.26 2.731 4.71 4.71 0 0 0 3.71 3.713 4.71 4.71 0 0 0 2.73-.269 4.741 4.741 0 0 0 2.92-4.366c0-1.254-.5-2.456-1.39-3.342a4.714 4.714 0 0 0-3.34-1.384Zm0 7.089a2.356 2.356 0 0 1-2.18-1.459 2.365 2.365 0 0 1-.14-1.365c.09-.459.32-.88.65-1.21a2.35 2.35 0 0 1 2.57-.512c.44.178.81.481 1.07.87s.39.845.39 1.313c0 .627-.25 1.228-.69 1.671a2.35 2.35 0 0 1-1.67.692ZM1060.9 365.561c1.05 0 2.08-.311 2.95-.896a5.265 5.265 0 0 0 1.96-2.386c.4-.972.51-2.041.3-3.072a5.306 5.306 0 0 0-4.17-4.178 5.349 5.349 0 0 0-3.08.303 5.286 5.286 0 0 0-2.38 1.958c-.59.875-.9 1.903-.9 2.954.01 1.41.57 2.76 1.56 3.757 1 .996 2.35 1.557 3.76 1.56Zm0-8.271c.58 0 1.15.174 1.64.498.49.325.86.786 1.09 1.326.22.54.28 1.134.17 1.707-.12.573-.4 1.099-.81 1.512a2.956 2.956 0 0 1-3.22.64c-.54-.223-1-.602-1.33-1.088a2.98 2.98 0 0 1 .37-3.729 2.957 2.957 0 0 1 2.09-.866ZM1053.22 409.28c-.7 0-1.39.208-1.97.597a3.5 3.5 0 0 0-1.3 1.591 3.59 3.59 0 0 0-.21 2.048c.14.688.48 1.319.97 1.815.5.496 1.13.833 1.82.97a3.544 3.544 0 0 0 3.64-1.507c.39-.583.6-1.268.6-1.97 0-.94-.38-1.841-1.04-2.506a3.561 3.561 0 0 0-2.51-1.038Zm0 4.726c-.31 0-.61-.124-.84-.346a1.183 1.183 0 0 1-.34-.836c0-.313.12-.613.34-.835.23-.222.53-.346.84-.346.31 0 .61.124.84.346.22.222.34.522.34.835 0 .314-.12.614-.34.836-.23.222-.53.346-.84.346ZM1116.92 387.303c.27-2.077.03-4.188-.69-6.152a13.026 13.026 0 0 0-3.48-5.121c3.54-7.774-5.75-15.053-12.48-10.008a24.716 24.716 0 0 0-18.22-5 24.745 24.745 0 0 0-16.44 9.337 10.04 10.04 0 0 0-4.55.513c-1.45.52-2.77 1.369-3.85 2.482a10.109 10.109 0 0 0-2.34 3.935 9.955 9.955 0 0 0-.35 4.567 11.78 11.78 0 0 0-6.13 5.617 11.78 11.78 0 0 0-.91 8.266c.7 2.775 2.4 5.199 4.76 6.82a11.809 11.809 0 0 0 8.07 1.994 8.279 8.279 0 0 0 6.14 8.038c1.77.472 3.64.343 5.33-.365a8.301 8.301 0 0 0 4-3.549 24.804 24.804 0 0 0 18.76 0 12.36 12.36 0 0 0 4.62 1.712c1.64.255 3.32.178 4.93-.226a12.44 12.44 0 0 0 4.45-2.128 12.459 12.459 0 0 0 3.26-3.694c2.26.678 4.7.431 6.78-.687a8.917 8.917 0 0 0 4.3-5.274c.68-2.26.43-4.696-.69-6.773a8.886 8.886 0 0 0-5.27-4.304Zm-5.26 14.415a1.183 1.183 0 0 0-1.5.602 10.025 10.025 0 0 1-2.65 3.428 10.032 10.032 0 0 1-8.17 2.188 10.052 10.052 0 0 1-4.01-1.646 1.175 1.175 0 0 0-1.18-.106 22.44 22.44 0 0 1-18.48-.177 1.21 1.21 0 0 0-.47-.107 1.17 1.17 0 0 0-.47.087c-.15.061-.28.151-.4.267-.11.115-.2.252-.26.403a5.88 5.88 0 0 1-2.63 2.996 5.893 5.893 0 0 1-3.93.643 5.898 5.898 0 0 1-3.45-2.004 5.948 5.948 0 0 1-1.39-3.739c0-1.181.45-1.713-.2-2.363a1.182 1.182 0 0 0-1.1-.307 9.453 9.453 0 0 1-11.03-6.683 9.433 9.433 0 0 1 .7-6.895 9.426 9.426 0 0 1 5.2-4.571c.3-.09.54-.289.69-.556.14-.266.18-.579.11-.873a7.625 7.625 0 0 1 1.82-7.179c.89-.944 2-1.648 3.23-2.046a7.663 7.663 0 0 1 3.82-.228c.22.043.45.023.66-.058.21-.082.39-.222.52-.403a22.294 22.294 0 0 1 6.76-6.09 22.372 22.372 0 0 1 17.69-2.113c2.93.879 5.65 2.352 8 4.328.21.196.5.304.79.304.29 0 .57-.108.79-.304 4.95-4.786 12.7 1.441 9.15 7.302-.16.247-.21.542-.16.828.05.285.21.541.44.72 1.59 1.22 2.8 2.869 3.49 4.752.68 1.884.82 3.924.38 5.882-.03.153-.03.312-.01.468.03.155.09.303.18.435.08.132.19.245.32.334.14.088.28.15.44.181a6.487 6.487 0 0 1 4.52 2.938c.49.785.82 1.668.95 2.59a6.56 6.56 0 0 1-.22 2.75 6.452 6.452 0 0 1-3.55 4.054 6.497 6.497 0 0 1-5.39-.032Z" fill="#597476"/><path d="M1073.31 378.559c1.12 0 2.75-.118 3.67 1.713.15.256.4.444.69.526.28.083.59.054.86-.08.26-.135.47-.365.57-.645.11-.28.1-.589-.02-.864a5.412 5.412 0 0 0-2-2.204 5.455 5.455 0 0 0-2.88-.809h-.89c-1.57 0-3.07.622-4.18 1.73a5.9 5.9 0 0 0-1.73 4.178v4.726a5.912 5.912 0 0 0 5.91 5.908h.89a5.455 5.455 0 0 0 2.88-.809 5.412 5.412 0 0 0 2-2.204c.12-.276.13-.584.02-.864-.1-.28-.31-.51-.57-.645a1.192 1.192 0 0 0-1.55.445c-.89 1.714-2.49 1.714-3.67 1.714-.94 0-1.85-.374-2.51-1.039a3.564 3.564 0 0 1-1.04-2.506v-4.726a3.544 3.544 0 0 1 3.55-3.545ZM1087.49 376.196c-1.57 0-3.07.622-4.18 1.73a5.9 5.9 0 0 0-1.73 4.178v4.726a5.912 5.912 0 0 0 5.91 5.908c1.56 0 3.07-.623 4.17-1.731a5.898 5.898 0 0 0 1.73-4.177v-4.726a5.9 5.9 0 0 0-1.73-4.178 5.888 5.888 0 0 0-4.17-1.73Zm3.54 10.634c0 .94-.37 1.842-1.04 2.506a3.521 3.521 0 0 1-2.5 1.039c-.94 0-1.85-.374-2.51-1.039a3.522 3.522 0 0 1-1.04-2.506v-4.726c0-.94.37-1.842 1.04-2.507a3.544 3.544 0 0 1 6.05 2.507v4.726ZM1102.85 390.374c0-.94-.38-1.841-1.04-2.506a3.561 3.561 0 0 0-2.51-1.038c-.94 0-1.84.373-2.51 1.038a3.556 3.556 0 0 0-1.03 2.506c0 .314.12.614.34.836a1.18 1.18 0 0 0 1.67 0c.22-.222.35-.522.35-.836 0-.313.12-.614.35-.835.22-.222.52-.346.83-.346.31 0 .61.124.84.346.22.221.34.522.34.835 0 .839-.42.91-4.25 3.781-.57.426-.47.886-.47 2.127 0 .314.12.614.34.836.22.221.52.346.84.346h4.72c.32 0 .62-.125.84-.346.22-.222.35-.522.35-.836a1.19 1.19 0 0 0-1.19-1.181h-2.75c2.23-1.678 3.94-2.494 3.94-4.727Z" fill="#597476"/></g><path d="M1121.55 494.858h-7.09c0-26.003-31.73-39.608-50.43-20.897l-3.35 3.345 3.35 3.368-12.53.84.83-12.541 3.34 3.345 3.35-3.345c23.15-23.179 62.53-6.466 62.53 25.885ZM1118.33 508.229l-.82 12.541-3.35-3.345-3.34 3.345c-23.15 23.155-62.53 6.442-62.53-25.91h7.09c0 26.004 31.72 39.609 50.43 20.898l3.34-3.345-3.34-3.369 12.52-.815Z" fill="#DBE4E3"/><path d="m1097.64 494.86-9.08-3.64v-20l-16.37 23.64 9.09 3.641V518.5l16.36-23.64Z" fill="#E7D3A1"/><path d="m1097.64 494.86-16.36 23.64v-4.728l13.8-19.94 2.56 1.028Z" fill="#E7D3A1"/><path d="m1058.18 468.112-2.5 2.505c-2.31-2.293-2.77-3.144-3.76-2.777-.99.366-.68-.166-1.59 13.569-.01.167.01.335.07.492a1.172 1.172 0 0 0 .69.687c.15.059.32.084.49.074 13.23-.875 13.19-.603 13.56-1.596.38-.993-.3-1.288-2.77-3.758l2.47-2.542c17.72-17.73 48.44-5.141 48.44 20.094 0 .314.12.614.35.836.22.222.52.346.83.346h7.09c.31 0 .62-.124.84-.346.22-.222.34-.522.34-.836 0-33.616-40.88-50.412-64.55-26.748Zm57.46 25.566c-1.01-26.477-33.4-39.597-52.43-20.543l-3.35 3.333a1.183 1.183 0 0 0 0 1.679l1.5 1.501-8.59.567.57-8.581 1.5 1.501c.11.111.24.199.38.259a1.167 1.167 0 0 0 .91 0c.15-.06.28-.148.39-.259l3.34-3.345c21.92-21.938 59.49-6.844 60.51 23.888h-4.73ZM1118.26 507.058c-13.36.886-13.18.603-13.56 1.596-.38.993.31 1.288 2.78 3.758l-2.47 2.542c-17.73 17.73-48.45 5.118-48.45-20.094 0-.314-.12-.614-.34-.836a1.211 1.211 0 0 0-.84-.346h-7.09c-.31 0-.61.124-.83.346-.23.222-.35.522-.35.836 0 33.675 40.93 50.376 64.55 26.748l2.5-2.506c2.25 2.246 2.76 3.145 3.76 2.778 1.01-.366.69.13 1.6-13.569.01-.167-.02-.335-.08-.492a1.172 1.172 0 0 0-.69-.687 1.163 1.163 0 0 0-.49-.074Zm-1.76 11.028c-2.75-2.742-1.92-2.742-6.52 1.844-21.93 21.938-59.49 6.844-60.51-23.888h4.73c.99 26.441 33.34 39.632 52.41 20.543l3.35-3.333a1.183 1.183 0 0 0 0-1.679l-1.5-1.501 8.59-.567-.55 8.581Z" fill="#597476"/><path d="m1087.58 470.546-16.35 23.64c-.1.146-.17.313-.2.489s-.02.356.04.526c.05.171.14.327.26.459.12.131.26.233.43.299l8.34 3.333V518.5c0 .313.13.614.35.836.22.221.52.346.83.346.89 0-.51 1.631 17.34-24.148.1-.146.17-.313.19-.489a1.169 1.169 0 0 0-.29-.985 1.168 1.168 0 0 0-.44-.299l-8.34-3.334V471.22a1.17 1.17 0 0 0-.83-1.143c-.24-.076-.5-.071-.74.014-.24.084-.45.244-.59.455Zm8.27 24.822-13.39 19.35v-16.217c0-1.088-.18-.887-8.44-4.185l13.36-19.314v16.217c0 1.088.19.887 8.45 4.185l.02-.036Z" fill="#597476"/><defs><clipPath id="a"><path fill="#fff" transform="translate(651 277)" d="M0 0h180.049v180.049H0z"/></clipPath><clipPath id="b"><path fill="#fff" transform="translate(1047.11 349.02)" d="M0 0h75.62v75.62H0z"/></clipPath></defs></svg>