<svg width="1440" height="810" fill="none" xmlns="http://www.w3.org/2000/svg"><path d="M680.16 231.128v5.04h43.872v-5.04H680.16Zm12.912-2.88v14.784h17.184v-14.784h-5.232v10.608h-6.912v-10.608h-5.04Zm-6.096 12.624v19.92h5.088v-19.92h-5.088Zm-6.144 3.216v4.848h8.832v-4.848h-8.832Zm-1.104 10.992 1.056 4.944c2.88-.96 5.952-2.016 8.976-3.12l-.672-4.368c-3.552.96-6.864 1.968-9.36 2.544Zm31.584-14.16v13.392c0 4.512.864 5.952 4.992 5.952h3.216c3.072 0 4.32-1.584 4.8-6.912-1.344-.336-3.408-1.104-4.368-1.92-.144 3.696-.336 4.32-1.056 4.32h-1.68c-.624 0-.72-.144-.72-1.488V240.92h-5.184Zm9.264 1.968c-1.776 1.536-4.608 3.36-7.152 4.608.576 1.008 1.296 2.688 1.584 3.744 2.784-1.104 6.192-2.64 9.072-4.32l-3.504-4.032Zm-21.36 6.48h4.752v5.76h-4.752v-5.76Zm-4.656-4.128v14.064h14.304V245.24H694.56Zm-.672 18c.576 3.12.96 7.152.96 9.648l5.664-.864c-.048-2.4-.624-6.384-1.296-9.408l-5.328.624Zm9.552.096c1.152 3.072 2.256 7.104 2.592 9.552l5.76-1.152c-.432-2.496-1.68-6.384-2.928-9.312l-5.424.912Zm9.648-.288c2.256 3.216 4.944 7.632 6 10.32l5.712-2.448c-1.248-2.736-4.128-6.96-6.384-9.984l-5.328 2.112Zm-27.936-1.68c-1.248 3.6-3.6 7.392-5.952 9.456l5.424 2.352c2.592-2.592 4.848-6.576 6.096-10.416l-5.568-1.392Zm43.776-29.04v4.992h42.192v-4.992h-42.192Zm27.936 22.176v.768c-3.84 8.16-14.832 11.952-27.264 13.2.912 1.248 1.968 3.456 2.4 4.896 13.536-1.872 25.344-6.384 30.528-17.232l-3.6-1.824-.96.192h-1.104Zm-10.8-3.36c-2.928 3.36-8.112 6.912-15.024 9.504 1.2.768 2.88 2.544 3.696 3.744 7.344-3.216 12.816-7.2 17.088-11.952l-5.76-1.296Zm-1.008 3.36-4.176 4.176h17.808v-4.176h-13.632Zm2.016-26.304v22.944h5.52V228.2h-5.52Zm.336 12.048c-3.936 6.192-11.856 11.376-20.448 13.68 1.104 1.056 2.592 3.072 3.312 4.368 8.976-2.928 16.752-8.88 21.36-16.464l-4.224-1.584Zm4.944.048-4.272 1.728c4.8 7.44 12.816 13.632 21.504 16.704.768-1.344 2.352-3.408 3.504-4.464-8.544-2.496-16.656-7.872-20.736-13.968Zm-15.888-3.168c-1.392 3.936-4.368 7.296-8.208 9.36 1.104.72 2.976 2.352 3.792 3.264 3.984-2.592 7.44-6.672 9.264-11.664l-4.848-.96Zm-1.152 6.336c1.824 1.2 4.272 2.928 5.424 4.032l3.024-3.648c-1.248-1.056-3.744-2.64-5.568-3.648l-2.88 3.264Zm24.912-6.288c-1.104 3.024-3.264 5.856-5.904 7.68 1.104.768 2.928 2.4 3.792 3.312 2.832-2.304 5.424-5.952 6.864-9.792l-4.752-1.2Zm-1.104 6.096c3.12 1.872 7.248 4.752 9.264 6.528l3.024-3.648c-2.112-1.728-6.336-4.368-9.36-6.096l-2.928 3.216Zm-18.96 20.112c7.872 2.736 18.72 7.2 23.952 10.08l5.04-3.984c-6-2.976-16.944-7.104-24.336-9.504l-4.656 3.408Zm35.616-25.584v5.328h15.552V237.8h-15.552Zm6.48-9.552c-1.488 9.552-4.128 22.224-6.192 29.808l4.704 2.496c2.256-8.64 5.04-21.504 6.912-31.728l-5.424-.576Zm-3.648 29.04c4.56 2.976 10.08 7.536 12.528 10.848l3.408-4.608c-2.544-3.264-8.256-7.488-12.816-10.32l-3.12 4.08Zm10.704-19.488v1.056c-.912 15.168-5.232 25.776-13.44 30.048 1.152 1.104 2.688 3.168 3.456 4.56 9.6-5.856 14.256-16.464 15.408-35.232l-3.456-.576-1.008.144h-.96Zm5.184-7.008v5.184h15.696v-5.184h-15.696Zm16.08 13.248-.72 5.184h6.912v-5.184h-6.192Zm4.272 0v1.008c-.48 14.928-1.152 20.784-2.304 22.08-.528.576-1.008.672-1.824.672-1.008 0-3.216 0-5.52-.192.912 1.488 1.584 3.792 1.68 5.376 2.496.144 4.896.144 6.432-.096 1.68-.24 2.832-.72 4.032-2.256 1.632-1.968 2.208-8.16 2.832-24.24a85.73 85.73 0 0 0 .096-2.352h-5.424Zm-16.08-11.472c-.096 14.16.048 28.416-6.864 37.008 1.44.864 3.264 2.544 4.176 3.84 7.68-9.744 8.16-25.344 8.352-40.848h-5.664Zm9.984-1.776c-.24 6.48-.96 14.832-1.776 20.064l5.232.384c.72-5.28 1.44-13.728 1.824-20.448h-5.28Zm20.112 5.232v5.04h9.504v22.224h-9.504v5.088H843.6v-32.352h-14.736Zm-3.36 0v35.904h5.232v-35.904h-5.232Zm3.12 12.816v4.992h12.288v-4.992h-12.288Zm3.696-20.64c-.24 2.64-.912 6.336-1.584 8.832l4.608 1.008c.96-2.256 2.16-5.664 3.264-8.928l-6.288-.912Zm17.616 7.488v5.232h14.016v-5.232h-14.016Zm12.048 0v1.104c-.528 20.016-1.152 28.272-2.688 29.904-.624.672-1.152.864-2.112.864-1.2 0-4.08-.048-7.2-.288 1.056 1.536 1.824 3.984 1.92 5.568 2.784.144 5.712.192 7.536-.096 1.968-.288 3.312-.816 4.656-2.688 1.968-2.544 2.544-10.176 3.168-31.776.048-.72.048-2.592.048-2.592h-5.328Zm-11.904-7.44c-1.536 6.384-4.272 12.912-7.488 16.944 1.344.768 3.696 2.4 4.752 3.36 3.264-4.608 6.384-11.904 8.256-19.008l-5.52-1.296Zm-2.352 21.264c2.304 3.552 5.328 8.256 6.624 11.184l4.896-2.976c-1.488-2.832-4.656-7.44-7.008-10.752l-4.512 2.544Zm30.96-3.216v5.28h11.088v-5.28h-11.088Zm8.88 0v.864c-.096 9.312-.288 12.672-.864 13.44-.384.48-.816.576-1.488.576-.768 0-2.4 0-4.128-.192.864 1.44 1.488 3.696 1.584 5.376 2.256.048 4.32.048 5.616-.144 1.392-.24 2.352-.672 3.312-1.872 1.104-1.488 1.344-5.76 1.536-15.936 0-.672.048-2.112.048-2.112h-5.616Zm14.448-15.024c2.688 1.536 6.096 3.888 7.68 5.568l3.696-3.888c-1.728-1.584-5.28-3.792-7.92-5.184l-3.456 3.504Zm5.664 12.336c-3.312 11.136-9.744 19.824-18.96 24.768 1.2 1.152 3.312 3.552 4.176 4.752 9.504-5.856 16.56-15.6 20.592-28.128l-5.808-1.392Zm-28.656-8.16v5.664h37.008v-5.664h-37.008Zm-3.84 0v14.064c0 6.288-.336 14.688-4.032 20.448 1.344.672 3.936 2.784 4.896 3.936 4.368-6.48 5.184-17.136 5.184-24.336v-14.112h-6.048Zm19.488-7.152c.144 21.888 4.032 44.688 14.496 44.688 4.512 0 6.432-2.16 7.344-11.088-1.536-.576-3.6-1.92-4.896-3.264-.288 6.048-.864 8.496-1.968 8.496-4.848 0-9.264-19.248-8.928-38.832h-6.048Zm41.952 19.296v5.184h19.008v-5.184h-19.008Zm5.136-18v5.04h12.144v-5.04H941.76Zm8.064 0v2.736h1.056c1.44 7.296 4.896 14.592 10.224 19.008.912-1.44 2.88-3.84 4.176-4.896-4.944-3.408-8.112-9.984-9.312-16.848h-6.144Zm3.6 18v1.008c-.288 12.768-.624 17.328-1.44 18.384-.432.528-.816.672-1.536.672-.768 0-2.352 0-4.08-.192.864 1.536 1.488 3.984 1.584 5.664 2.208.096 4.272.048 5.568-.192 1.488-.24 2.496-.72 3.504-2.112 1.296-1.776 1.68-7.104 2.064-20.88.048-.72.048-2.352.048-2.352h-5.712Zm-11.52 2.592c-.48 8.016-1.776 14.688-9.408 18.72 1.2 1.008 2.736 3.072 3.408 4.368 8.688-5.184 10.992-13.152 11.664-23.088h-5.664Zm-3.696-15.984c-1.248 4.512-4.128 10.224-7.632 13.584 1.104.912 2.88 2.64 3.744 3.792 4.08-3.984 7.392-10.368 9.408-15.984l-5.52-1.392Zm-8.832-5.76c-2.448 6.864-6.624 13.68-10.992 18.048 1.008 1.392 2.544 4.56 3.072 5.952 5.232-5.472 10.224-14.112 13.344-22.32l-5.424-1.68Zm-4.656 13.248v31.584h5.52v-37.008l-.048-.048-5.472 5.472Zm43.248-10.416v5.136h24.48v-5.136h-24.48Zm1.44 22.848v5.136h21.552v-5.136h-21.552Zm7.968-4.656v18.96l5.712-.864v-18.096h-5.712Zm-9.936 16.992.864 5.76a2732.83 2732.83 0 0 0 24.384-3.168l-.144-5.376c-8.976 1.056-18.72 2.208-25.104 2.784Zm.432-22.8.336 5.328c5.76-.24 13.776-.576 21.408-1.008l.144-4.944c-8.016.288-16.368.528-21.888.624Zm14.736-4.176c2.64 3.408 5.568 8.064 6.672 11.04l4.56-2.592c-1.2-3.024-4.272-7.44-6.96-10.704l-4.272 2.256Zm-7.824-5.088c-.768 3.552-2.352 8.496-3.744 11.664l4.848 1.296c1.584-2.976 3.456-7.584 5.136-11.664l-6.24-1.296Zm19.44-.288v27.168h5.52v-27.168h-5.52Zm10.946-4.512v36.816c0 .864-.29 1.104-1.15 1.152-.96 0-3.89.048-6.772-.096.816 1.632 1.632 4.224 1.872 5.856 4.08 0 7.2-.192 9.12-1.104 1.92-.912 2.54-2.496 2.54-5.76v-36.864h-5.61Zm26.54 19.824v5.04h28.08v-5.04h-28.08Zm-6.09 18.144v4.992h20.49v-4.992h-20.49Zm-.58-6.672.62 5.184c4.95-.576 11.67-1.296 17.96-2.112l-.15-4.944c-6.62.768-13.68 1.488-18.43 1.872Zm3.79-20.496v22.272h5.47v-20.832l-5.47-1.44Zm22.95-2.304c-4.9 1.584-13.16 2.88-20.5 3.6.62 1.152 1.3 3.12 1.49 4.368 7.73-.672 16.75-1.872 23.28-3.84l-4.27-4.128Zm-9.27 4.464c.39 15.792 3.7 29.52 11.47 29.52 3.8.048 5.57-1.632 6.29-8.832-1.39-.48-3.31-1.536-4.51-2.64-.14 4.128-.53 6.096-1.39 6.096-3.36 0-6.15-11.28-6.19-24.144h-5.67Zm-6-14.304v7.2h6v-7.2h-6Zm-14.4 4.512v5.136h37.92v-5.136h-37.92Zm-2.83 0v13.536c0 7.056-.29 17.088-4.32 23.904 1.34.624 3.74 2.208 4.75 3.168 4.37-7.44 5.09-19.248 5.09-27.072V232.76h-5.52Zm45.5 15.984v5.088h42.53v-5.088h-42.53Zm21.51 8.688v4.944h17.95v-4.944h-17.95Zm-2.69-6.096v17.76h5.81v-17.76h-5.81Zm-7.44 7.68-4.75 1.536c3.93 10.032 10.51 12 21.55 12h13.73c.29-1.68 1.15-4.224 1.97-5.472-3.46.096-12.72.144-15.36.096-8.4-.048-14.5-1.152-17.14-8.16Zm-4.18-4.176c-1.1 6.432-4.03 11.52-8.92 14.544 1.24.864 3.45 2.976 4.32 4.032 5.32-3.792 8.78-9.84 10.36-17.76l-5.76-.816Zm2.84-14.688h22.03v2.4h-22.03v-2.4Zm0-6.192h22.03v2.4h-22.03v-2.4Zm-5.57-4.08v16.752h33.45V229.88h-33.45Zm53.04-1.44c-2.5 6.912-6.67 13.872-11.09 18.288.96 1.392 2.54 4.56 3.07 5.952 5.28-5.568 10.32-14.304 13.44-22.56l-5.42-1.68Zm-4.42 13.248v31.584h5.62v-37.2l-5.62 5.616Zm8.02 2.496v5.664h30.24v-5.664h-30.24Zm12.38-15.216v44.352h6v-44.352h-6Zm30.48 38.64.39 4.704c7.82-.144 19.48-.528 30.38-.912l.19-4.32c-11.23.288-23.28.48-30.96.528Zm22.23-12.192c-4.18 4.224-11.04 9.6-16.47 12.864l3.65 2.448c5.42-3.072 12.34-8.112 17.62-12.672l-4.8-2.64Zm-9.17-2.784c-1.68 2.256-4.61 5.28-6.91 7.152l3.5 2.112c2.4-1.68 5.38-4.32 8.06-6.816l-4.65-2.448Zm-10.99 7.296c3.36 1.92 7.72 4.944 9.74 6.96l3.89-3.744c-2.26-2.016-6.72-4.8-10.03-6.576l-3.6 3.36Zm20.06 3.6c3.12 2.976 6.72 7.152 8.35 9.888l4.85-2.448c-1.78-2.832-5.57-6.816-8.69-9.6l-4.51 2.16Zm-20.98-24.048v3.936h14.98v-3.936h-14.98Zm16.32 0v3.936h16.71v-3.936h-16.71Zm-10.99-2.832v17.136h4.23v-17.136h-4.23Zm5.81 7.872v7.104h3.17v-7.104h-3.17Zm10.51-7.872v17.472h4.27v-17.472h-4.27Zm-20.93 7.824v1.824c0 1.92-.28 4.56-2.06 6.192.86.48 2.16 1.44 2.74 2.16 2.11-2.352 2.4-5.52 2.4-8.208v-1.968h-3.08Zm16.23 0v1.728c0 1.824-.29 4.368-2.16 5.904.86.48 2.21 1.488 2.78 2.208 2.21-2.256 2.55-5.376 2.55-7.92v-1.92h-3.17Zm10.56-.048v5.28c0 2.112.19 2.832.72 3.456.48.528 1.39.768 2.21.768h1.48c.48 0 1.11-.048 1.49-.288.53-.24.91-.576 1.15-1.104.29-.48.39-1.776.48-2.976-.81-.24-1.92-.816-2.54-1.296 0 1.008-.05 1.824-.14 2.208-.1.336-.15.528-.29.624-.05.048-.24.096-.39.096h-.43c-.19 0-.29-.096-.38-.192v-6.576h-3.36Zm-16.9-16.176v6.192h6v-6.192h-6Zm-14.59 3.744v4.8h37.97v-4.8h-37.97Zm-3.31 0v14.592c0 7.008-.24 16.848-3.51 23.616 1.16.576 3.51 2.352 4.42 3.312 3.74-7.44 4.37-19.248 4.37-26.928v-14.592h-5.28Zm63.69 24.672h6.24c-.76-6.624 9.75-7.488 9.75-14.496 0-6.384-5.09-9.648-12.05-9.648-5.14 0-9.36 2.352-12.43 5.904l3.93 3.6c2.36-2.448 4.76-3.792 7.68-3.792 3.8 0 6.1 1.632 6.1 4.56 0 4.656-10.22 6.336-9.22 13.872Zm3.17 12.816c2.4 0 4.23-1.776 4.23-4.272 0-2.496-1.83-4.224-4.23-4.224-2.45 0-4.27 1.728-4.27 4.224 0 2.496 1.78 4.272 4.27 4.272ZM815.76 319.224v4.128h28.032v-4.128H815.76Zm1.008 15.984v3.456h26.544v-3.456h-26.544Zm.576 4.992v3.408h25.392V340.2h-25.392Zm-2.064 4.992v3.936h28.8v-3.936h-28.8Zm11.328-28.992v5.04h5.856v-5.04h-5.856Zm-4.56 16.896v13.968h5.136v-13.968h-5.136Zm10.224 0v13.968h5.136v-13.968h-5.136Zm-5.904 13.152c-2.4 2.448-7.44 4.224-12.096 5.28.816.816 2.112 2.688 2.64 3.6 5.04-1.584 10.608-4.176 13.584-7.584l-4.128-1.296Zm7.104.96-4.272.864c2.16 6.576 6.144 11.232 12.816 13.344.624-1.248 1.968-3.072 3.024-4.032-5.952-1.44-9.792-5.184-11.568-10.176Zm7.584 2.016c-1.632 1.152-4.464 2.832-6.384 3.696l2.496 2.592c1.968-.768 4.656-2.016 6.768-3.456l-2.88-2.832Zm-19.488-21.552h3.072v2.448h-3.072v-2.448Zm-4.128-3.024v8.448h11.52v-8.448h-11.52Zm17.424 3.024h3.216v2.448h-3.216v-2.448Zm-4.128-3.024v8.448h11.712v-8.448h-11.712Zm-29.328 6.336v4.32h12.768v-4.32h-12.768Zm.288-13.248v4.368h12.336v-4.368h-12.336Zm-.288 19.776v4.368h12.768v-4.368h-12.768Zm-2.016-13.296v4.56h15.984v-4.56h-15.984Zm4.656 19.968v4.512h5.424v5.472h-5.424v4.512h10.032v-14.496h-10.032Zm-2.784 0v16.512h4.512v-16.512h-4.512Zm15.984 12.432 1.344 4.368c4.08-.72 9.264-1.584 14.208-2.496l-.288-4.176c-5.616.912-11.328 1.824-15.264 2.304Zm3.888-5.616v6.864h4.848v-8.544l-2.352-.816-2.496 2.496Zm58.656-30.48c2.592 2.352 5.616 5.712 6.864 8.016l4.656-3.264c-1.44-2.256-4.56-5.472-7.2-7.728l-4.32 2.976Zm-31.44 9.36v5.472h43.344v-5.472h-43.344Zm-.912 13.584 1.44 5.808c6.192-1.248 14.544-2.928 22.32-4.56l-.432-5.232c-8.4 1.536-17.52 3.12-23.328 3.984Zm10.032-21.312v32.352c0 .816-.288 1.056-1.152 1.056-.864.048-3.648.048-6.384-.096.864 1.632 1.824 4.224 2.064 5.856 3.936 0 6.768-.192 8.688-1.104 1.968-.912 2.592-2.496 2.592-5.616v-32.448h-5.808Zm9.84-5.616c-4.944 1.68-12.432 3.168-19.2 4.08.672 1.296 1.392 3.456 1.68 4.8 6.96-.768 15.168-2.064 21.408-3.984l-3.888-4.896Zm4.704.096c.144 21.552 3.888 44.88 13.824 44.88 4.368 0 6.192-2.112 7.104-10.608-1.536-.624-3.504-1.968-4.704-3.312-.288 5.712-.816 8.064-1.824 8.064-4.368 0-8.688-19.68-8.352-39.024h-6.048Zm13.056 20.304c-4.272 7.92-12.096 14.448-20.304 18.192 1.44 1.296 3.024 3.216 3.888 4.656 8.688-4.608 16.512-11.76 21.504-20.688l-5.088-2.16Zm27.312-11.04v4.08h8.496v-4.08h-8.496Zm14.448 0v4.08h8.544v-4.08h-8.544Zm6.816-7.104V354.6c0 .912-.336 1.2-1.248 1.2-.96.048-4.32.048-7.248-.096.768 1.44 1.632 3.984 1.872 5.52 4.512 0 7.536-.096 9.504-1.056 1.968-.864 2.592-2.4 2.592-5.52v-35.856h-5.472Zm-24.624 0v42.384h5.328v-42.384h-5.328Zm3.696 0v4.368h5.616v9.696h-5.616v4.368h9.936v-18.432h-9.936Zm23.616 0h-11.52v18.432h11.52v-4.368h-7.008v-9.696h7.008v-4.368Zm-32.304-2.448c-2.064 7.008-5.616 14.064-9.504 18.576.912 1.536 2.304 4.8 2.784 6.24 4.896-5.76 9.312-14.88 12.048-23.28l-5.328-1.536Zm-3.792 13.152v31.776h5.472v-36.96l-.144-.096-5.328 5.28Zm45.024-7.248v5.616h41.76v-5.616h-41.76Zm17.52-6v45.072h6.048v-45.072h-6.048Zm.672 21.696c-4.032 6.912-11.952 13.44-20.256 16.656 1.296 1.152 3.168 3.504 4.08 4.944 8.544-3.936 16.272-11.28 20.976-19.776l-4.8-1.824Zm5.136.384-4.752 1.872c4.704 8.208 12.288 15.456 20.64 19.296.96-1.632 2.832-4.032 4.272-5.28-8.256-3.024-16.128-9.264-20.16-15.888Zm-17.52-2.112c2.208 1.968 5.232 4.752 6.672 6.48l3.792-4.032c-1.536-1.632-4.656-4.272-6.816-6.096l-3.648 3.648Zm1.92-8.064c-1.344 5.856-4.272 10.944-8.496 14.016 1.296.864 3.504 2.736 4.464 3.792 4.464-3.744 7.872-9.744 9.648-16.752l-5.616-1.056Zm21.024 8.256c3.072 2.544 7.488 6.096 9.504 8.256l3.984-3.984c-2.208-2.064-6.768-5.472-9.744-7.728l-3.744 3.456Zm1.632-8.256c-1.008 4.848-3.264 9.312-6.48 12.048 1.344.624 3.792 2.112 4.896 3.024 3.216-3.216 5.856-8.304 7.152-14.064l-5.568-1.008Zm17.136 5.088v5.376h42.476v-5.376h-42.476Zm8.016-10.752v5.232h31.49v-5.232h-31.49Zm.48 31.344v5.328h26.02v-5.328h-26.02Zm10.85-37.584v20.256h6.14v-20.256h-6.14Zm-13.874 25.824v19.392h5.904v-14.112h20.26v13.968h6.19v-19.248h-32.354Zm2.354-25.728c-1.682 5.232-4.706 10.56-8.162 13.776 1.392.672 4.032 2.16 5.232 3.072 3.26-3.696 6.67-9.552 8.69-15.408l-5.76-1.44Zm65.09 28.272c5.42 2.16 12.72 5.856 16.08 8.544l3.02-5.184c-3.65-2.592-11.04-5.952-16.37-7.92l-2.73 4.56Zm-1.64-13.248v5.376h20.5v-5.376h-20.5Zm9.17 2.256v27.648h5.67v-27.648h-5.67Zm-12.19-12.912v16.128c0 6.24-.34 14.112-4.51 19.824 1.39.72 3.6 2.784 4.37 4.08 5.13-6.672 5.85-16.992 5.85-23.76v-13.488c.91-.144 1.25-.384 1.3-.816l-7.01-1.968Zm17.09-4.128c-3.6 2.064-9.84 4.272-15.51 5.616.72 1.2 1.64 3.216 1.97 4.464 6.19-1.344 13.39-3.408 18.72-5.952l-5.18-4.128Zm-36.39 14.4v4.32h15.51v-4.32h-15.51Zm.29-13.248v4.368h15.31v-4.368h-15.31Zm-.29 19.776v4.368h15.51v-4.368h-15.51Zm-2.35-13.296v4.56h19.78v-4.56h-19.78Zm4.99 19.968v4.56h7.68v5.472h-7.68v4.56h12.72v-14.592h-12.72Zm-2.78 0v16.512h4.99v-16.512h-4.99Zm66.05-27.792c-1.63 6.672-4.56 13.296-8.21 17.424 1.3.864 3.6 2.736 4.61 3.744 3.84-4.752 7.25-12.288 9.26-19.872l-5.66-1.296Zm-1.35 21.36c-1.1 5.328-3.16 10.8-5.85 14.16 1.34.72 3.79 2.208 4.89 3.12 2.69-3.888 5.19-10.032 6.53-16.128l-5.57-1.152Zm2.4-12.912-2.16 5.328h21.84v-5.328h-19.68Zm5.52 2.352v27.648c0 .624-.24.768-.86.768-.67 0-2.69.048-4.7-.048.81 1.584 1.68 4.128 1.96 5.808 3.08 0 5.43-.24 7.11-1.152 1.73-.96 2.21-2.544 2.21-5.328v-27.696h-5.72Zm7.4 11.808c2.35 4.944 4.36 11.568 4.89 15.888l5.52-1.92c-.67-4.368-2.73-10.752-5.23-15.696l-5.18 1.728Zm5.23-14.16v.768c-.34 3.36-.87 7.632-1.3 10.224l4.95.864c.62-2.88 1.48-7.344 2.06-11.28l-4.03-.72-.91.144h-.77Zm-29.47-8.4c-2.45 6.864-6.63 13.68-11 18.048 1.01 1.392 2.55 4.56 3.08 5.952 5.23-5.472 10.22-14.112 13.34-22.32l-5.42-1.68Zm-4.66 13.248v31.584h5.52v-37.008l-.05-.048-5.47 5.472Z" fill="#424242"/></svg>